<svg xmlns="http://www.w3.org/2000/svg" width="1296.16" height="273.62" viewBox="0 0 1296.16 273.62">
  <defs>
    <style>
      .cls-1 {
        opacity: 0.04;
      }

      .cls-2 {
        fill: #fff;
      }

      .cls-3 {
        fill: #287ca0;
      }
    </style>
  </defs>
      <g id="Shadow" class="cls-1">
        <g>
          <path d="M136.37,197.93a5.45,5.45,0,0,1-2.4-1.26,7.85,7.85,0,0,1-1.71-2.16,11.28,11.28,0,0,1-1-2.73,12.88,12.88,0,0,1-.35-2.89,14.42,14.42,0,0,1,.53-3.32c.34-1.38.79-2.93,1.33-4.65s1.14-3.51,1.79-5.39l1.9-5.44c.6-1.74,1.13-3.37,1.56-4.87s.74-2.7.92-3.57.39-2.17.65-3.55.56-2.87.88-4.5.66-3.35,1-5.16.66-3.63,1-5.47a20.23,20.23,0,0,1-2.24.26c-.89.06-1.83.1-2.83.11a36.94,36.94,0,0,0-4.22.35c-1.38.2-2.8.43-4.25.7s-3,.54-4.51.84-3.23.58-5,.87c-2.6.4-5.19.87-7.79,1.39a24.92,24.92,0,0,1-8.11.25,4.53,4.53,0,0,1-2.39-1.09,8.9,8.9,0,0,0-2.47-1.46q-1.29,2.24-2.46,4.79c-.78,1.7-1.5,3.45-2.14,5.24s-1.24,3.55-1.76,5.3-1,3.37-1.36,4.9a25.4,25.4,0,0,0-.55,3.28c-.15,1.35-.29,2.73-.42,4.13s-.26,2.74-.39,4-.26,2.29-.39,3a5.47,5.47,0,0,1-.78,2A6.18,6.18,0,0,1,87,183.38a5.22,5.22,0,0,1-1.88.91,4,4,0,0,1-2.07,0,5.35,5.35,0,0,1-2.94-1.94A11.86,11.86,0,0,1,78.25,179a17.74,17.74,0,0,1-.94-4,31.14,31.14,0,0,1-.26-3.75,39.6,39.6,0,0,1,1-8.61,69.66,69.66,0,0,1,2.62-8.86c1.1-3,2.4-6,3.89-9.09s3.1-6.17,4.83-9.3c1.43-2.82,3.2-6.11,5.32-9.93s4.49-7.82,7.11-12,5.46-8.45,8.51-12.72A125.12,125.12,0,0,1,119.83,89a63.55,63.55,0,0,1,10.15-9,21.61,21.61,0,0,1,10.35-4.19,14,14,0,0,1,9,1.76,16,16,0,0,1,5.74,6.64,34.71,34.71,0,0,1,3,10.37,88.13,88.13,0,0,1,.85,12.79c0,4-.2,8.08-.57,12.28s-.84,8.3-1.39,12.29-1.14,7.81-1.78,11.46-1.21,6.94-1.74,9.86q-1.14,5.85-2.29,11.62c-.09.33-.26,1-.5,2s-.54,2.23-.91,3.65-.79,2.94-1.24,4.56-.92,3.22-1.38,4.78-.89,3-1.3,4.27-.77,2.34-1.08,3.13l.07-.07c-.31,1.43-.64,2.87-1,4.33a14.62,14.62,0,0,1-1.44,3.82,6.14,6.14,0,0,1-2.34,2.42A5,5,0,0,1,136.37,197.93Zm3.48-105.14A12.77,12.77,0,0,0,134,94.6a33.39,33.39,0,0,0-5.7,4.21,52.76,52.76,0,0,0-5.43,5.82q-2.64,3.25-5,6.58c-1.58,2.21-3.07,4.41-4.45,6.59s-2.65,4.18-3.77,6L109,125c-.28.48-.56,1-.84,1.58s-.55,1.18-.81,1.8-.48,1.19-.65,1.69l6.68.44a60.17,60.17,0,0,0,8.31-.1c3.11-.24,6.2-.57,9.25-1s5.86-.91,8.42-1.43,4.48-.93,5.78-1.21a28.6,28.6,0,0,0,.5-3c.15-1.26.29-2.66.43-4.2s.23-3.2.3-5,.1-3.55.1-5.39c0-1.49,0-3.2-.12-5.12a26.92,26.92,0,0,0-.77-5.45,11.21,11.21,0,0,0-2-4.26A4.17,4.17,0,0,0,139.85,92.79Z"/>
          <path d="M171.32,195.92q.85-6.25,2-13.82t2.31-15.39q1.19-7.83,2.31-15.48t1.91-14.08q-.06-.94-.06-1.65c0-.47,0-1,0-1.54q0-2.91.27-5.81t.73-5.33a14.36,14.36,0,0,1,1.6-4.82,3.17,3.17,0,0,1,2.84-1.23,4.18,4.18,0,0,1,3,1.14,7.59,7.59,0,0,1,1.79,3,16.54,16.54,0,0,1,.83,4.21c.13,1.58.19,3.2.19,4.87,0,.9,0,1.89-.07,3s-.07,2-.07,2.6c1.21-1.79,2.51-3.65,3.88-5.56a42.85,42.85,0,0,1,4.38-5.22,25.39,25.39,0,0,1,4.9-3.87,10,10,0,0,1,5.38-1.49,7.8,7.8,0,0,1,2.18.34,14.83,14.83,0,0,1,2.18.85,16.82,16.82,0,0,1,2.7,1.42,12,12,0,0,1,2.7,2.47,24.25,24.25,0,0,1,5,14.52,16.39,16.39,0,0,1-.4,3.34,15.6,15.6,0,0,1-1.09,3.24,8.28,8.28,0,0,1-1.6,2.35,2.54,2.54,0,0,1-2,.83,6.48,6.48,0,0,1-2.71-1.08,8.66,8.66,0,0,1-2.63-2.48,9.47,9.47,0,0,1-.94-1.78c-.32-.77-.63-1.53-.91-2.28s-.54-1.47-.77-2.12a8.67,8.67,0,0,0-.55-1.29,4.72,4.72,0,0,0-.72-.19,5,5,0,0,0-.72-.09,9.19,9.19,0,0,0-6.32,2.22,32.06,32.06,0,0,0-5.62,5.85,65.57,65.57,0,0,0-4.8,7.36q-2.19,3.9-3.83,7-1.32,7.6-2.93,16.08t-3.19,17.61c0,.79,0,1.58,0,2.36,0,1.89-.05,3.81-.14,5.74a20.52,20.52,0,0,1-.8,5,4.73,4.73,0,0,1-2.05,1.93,4.4,4.4,0,0,1-3.09.25,6,6,0,0,1-4.08-3.51,14.25,14.25,0,0,1-1.36-6.24A16.23,16.23,0,0,1,171.32,195.92Z"/>
          <path d="M227.47,178a105,105,0,0,1,3.07-13.17A102.55,102.55,0,0,1,236,150.76a106.65,106.65,0,0,1,8-14.15,91.44,91.44,0,0,1,10.84-13.23,14.3,14.3,0,0,1,3-2.09A10.47,10.47,0,0,1,262,120q2.57-4.65,6.87-4.64a10.46,10.46,0,0,1,8.57,4.55,37.4,37.4,0,0,1,5.75,12.46q.71,2.55,1.32,5c.41,1.63.75,3.37,1,5.19s.5,3.79.67,5.89.25,4.46.24,7.09a107.16,107.16,0,0,1-1.69,18.5,113.52,113.52,0,0,1-4.69,17.9,94.75,94.75,0,0,1-7.33,16,64.19,64.19,0,0,1-9.54,12.78,19.79,19.79,0,0,1-7.81,5.15,17.47,17.47,0,0,1-9.55.33,20.34,20.34,0,0,1-8.7-4.06,24.22,24.22,0,0,1-6.1-7.45,37.55,37.55,0,0,1-3.63-10.23,61.25,61.25,0,0,1-1.17-12.5A88.66,88.66,0,0,1,227.47,178Zm10.82,2.81q-.4,2.4-.57,4.56c-.11,1.43-.17,2.83-.17,4.17a37.9,37.9,0,0,0,.53,6.63,19.73,19.73,0,0,0,1.78,5.53,12.72,12.72,0,0,0,3.09,4,9.35,9.35,0,0,0,4.52,2,10.88,10.88,0,0,0,9.24-2.61,32.71,32.71,0,0,0,7.63-9.51A70,70,0,0,0,270,182.39a88.29,88.29,0,0,0,3.21-13.51q.6-3.91,1-7.4a54.75,54.75,0,0,0,.45-6.45,24,24,0,0,0-.61-5.55c-.41-1.73-.93-3.67-1.58-5.82-.39-1.3-.77-2.66-1.16-4.08s-.73-2.8-1-4.16a21.85,21.85,0,0,1-1.12,2.71,6.13,6.13,0,0,1-1.77,2.06,11.28,11.28,0,0,1-3.21,1.58,26.85,26.85,0,0,1-5.29,1,16.32,16.32,0,0,0-4.38,3.49,42.82,42.82,0,0,0-4.35,5.61,77.33,77.33,0,0,0-4.07,6.94q-1.94,3.72-3.48,7.59c-1,2.57-1.93,5.1-2.69,7.57A45.88,45.88,0,0,0,238.29,180.85Z"/>
          <path d="M309,127.12a16.65,16.65,0,0,1,.77-3.29,10.41,10.41,0,0,1,1.05-2.21,5.06,5.06,0,0,1,1-1.2,1.36,1.36,0,0,1,.72-.35,5.8,5.8,0,0,1,1.7.32c.65.21,1.28.4,1.89.56l2,.75c1.14.1,1.95,1,2.45,2.6a20.31,20.31,0,0,1,.73,5.88,30.07,30.07,0,0,1-.4,5q-2.28,15.21-4.14,26.29t-3.16,18.83q-1.31,7.74-2,12.59a58,58,0,0,0-.71,7.39,53.31,53.31,0,0,0,.34,5.71,46.15,46.15,0,0,0,1.06,6,20.14,20.14,0,0,0,1.82,4.81,3.87,3.87,0,0,0,2.68,2.22c1.83.28,3.68-.49,5.56-2.35a34.89,34.89,0,0,0,5.39-7.06,71.63,71.63,0,0,0,4.64-9.32c1.38-3.36,2.51-6.38,3.39-9,.57-1.81,1.15-3.63,1.72-5.45A120.67,120.67,0,0,0,340.52,174q1.35-6.73,2.39-13.61t1.77-13q.75-6.09,1.15-9.75.87-8.37,1.75-16.79c.35-3.2.9-5.42,1.62-6.65a3.92,3.92,0,0,1,3.64-1.85,6.08,6.08,0,0,1,2.94.7,5.58,5.58,0,0,1,2.22,2.5,16.35,16.35,0,0,1,1.36,4.82,53.69,53.69,0,0,1,.43,7.78,125,125,0,0,1-.92,13.54q-.9,8-2,16-.6,4.71-1.24,10t-1.14,10.53q-.51,5.26-.82,10t-.32,8.59q0,6.51.2,13t.18,13.81c0,2.22,0,4.17-.11,5.86a33.3,33.3,0,0,1-.31,3.79,24.89,24.89,0,0,1-1.88,7.11,3.35,3.35,0,0,1-3.9,1.78,5.77,5.77,0,0,1-3-1.32,6.72,6.72,0,0,1-1.73-2.48,11.89,11.89,0,0,1-.81-3.22c-.12-1.15-.21-2.32-.25-3.5q-.31-11.94-.65-23.85l-.59.3q-2.17,5-4.74,11.14a84.37,84.37,0,0,1-5.66,11.21,33.79,33.79,0,0,1-6.73,8.18,9.14,9.14,0,0,1-7.89,2.29,5.64,5.64,0,0,1-2.19-1.19,27.53,27.53,0,0,1-2.77-2.5,33,33,0,0,1-2.73-3.2,26.8,26.8,0,0,1-2.09-3.19,51.21,51.21,0,0,1-5-14.55,82.66,82.66,0,0,1-1.46-15.62q0-4.38.42-8.71c.27-2.89.59-5.67.94-8.36s.75-5.23,1.17-7.6.76-4.51,1-6.39q1.28-8.82,2.27-15.56t1.77-11.87c.51-3.4.94-6.33,1.3-8.75S308.77,129,309,127.12Z"/>
          <path d="M418.39,138.37a7.61,7.61,0,0,0-4.92,2.14,35.93,35.93,0,0,0-5.46,5.9q-2.83,3.71-5.75,8.38t-5.76,9.62q-1.46,2.47-2.77,4.47a11.68,11.68,0,0,1-2.63,3c-.61,2-1.27,4.65-2,7.93s-1.36,6.86-2,10.75-1.3,7.85-1.9,11.9-1.1,7.81-1.51,11.29c-.22,1.83-.4,3.62-.53,5.37s-.3,3.6-.48,5.56-.39,4.07-.64,6.33-.55,4.77-.91,7.53a12.42,12.42,0,0,1-1,3.88,6.86,6.86,0,0,1-1.52,2.08,3,3,0,0,1-1.51.77,4.29,4.29,0,0,1-1.11,0,5.68,5.68,0,0,1-4-3c-1.05-1.72-1.56-4.84-1.55-9.35,0-1.22,0-2.49.08-3.83a43.07,43.07,0,0,1,.4-4.45q1.49-12.19,2.85-22t2.77-18.23q1.4-8.42,2.83-15.89t2.92-15.14q1.5-7.67,3.13-15.9t3.48-18.33a6.6,6.6,0,0,1,2.08-3.79,5.27,5.27,0,0,1,3.57-1.53,4.8,4.8,0,0,1,4.09,2.28,11.47,11.47,0,0,1,1.59,6.59,14.78,14.78,0,0,1-.14,1.48c-.09.72-.22,1.48-.4,2.28q-1.46,7-2.92,13.91,2.76-4.35,5.76-8.75a78.4,78.4,0,0,1,6.15-8,37.3,37.3,0,0,1,6.33-5.82,10.94,10.94,0,0,1,6.27-2.25c4.19,0,7.46,2.37,9.81,7.14S434.52,135,434.49,145A154.57,154.57,0,0,1,433,164.49q-1.44,10.92-3.6,23.31t-4.66,25.88q-2.49,13.48-4.62,27.38c-.4,2.51-.81,4.62-1.23,6.3a16,16,0,0,1-1.49,4,4.7,4.7,0,0,1-2,2,5,5,0,0,1-2.78.31,4.25,4.25,0,0,1-3.54-2.44,16.11,16.11,0,0,1-1-6.44,91.38,91.38,0,0,1,.59-9.23q.57-5.43,1.6-11.91c.69-4.33,1.49-8.94,2.4-13.86s1.89-9.92,2.95-15q1.26-6.18,2.49-12.41t2.2-12.08q1-5.85,1.57-11.19a89,89,0,0,0,.61-9.88,28.78,28.78,0,0,0-.86-7.51Q420.81,138.42,418.39,138.37Z"/>
          <path d="M445.1,206c.58-5,1.35-10,2.3-15s2.13-10,3.55-14.87a137.64,137.64,0,0,1,5-14.4,100.71,100.71,0,0,1,6.79-13.49q2.63-4.49,5.56-8.5a57.12,57.12,0,0,1,5.95-7,31.31,31.31,0,0,1,6.08-4.75,11.83,11.83,0,0,1,6-1.76,9,9,0,0,1,3.83.82,12.53,12.53,0,0,1,3.18,2.27c.44-3.38,1.63-12.46,3.56-27.32s4.3-35.58,7.1-62.29a25.67,25.67,0,0,1,2-6.67c.88-1.79,1.93-2.72,3.15-2.78a6.57,6.57,0,0,1,2.56.39A4.71,4.71,0,0,1,514,32.55a12.53,12.53,0,0,1,1.57,4.12,32.86,32.86,0,0,1,.58,6.89q-6.69,59.3-13.39,117.76-.6,5-1.14,13.32t-1,17.68q-.48,9.31-.76,18.41t-.29,15.65a150.4,150.4,0,0,1-.88,16.11c-.27,2.31-.54,4.26-.83,5.84a14.81,14.81,0,0,1-1.16,3.83,4.37,4.37,0,0,1-1.81,2,5,5,0,0,1-2.73.42,4.86,4.86,0,0,1-2.95-1.13,5.86,5.86,0,0,1-1.57-2.52,13,13,0,0,1-.62-3.53q-.09-2-.12-4.2c0-1.5-.06-3-.12-4.64a29.38,29.38,0,0,0-.55-4.6c-.53.73-1.25,1.69-2.18,2.87s-1.85,2.37-2.79,3.59-1.84,2.34-2.67,3.37-1.45,1.77-1.84,2.21q-1.52,1.74-3.43,3.64a33.37,33.37,0,0,1-4.11,3.47,19.88,19.88,0,0,1-4.6,2.46,10.6,10.6,0,0,1-4.83.63A10.37,10.37,0,0,1,454,253.5a21.22,21.22,0,0,1-5-7,47,47,0,0,1-3.48-11.39,83.45,83.45,0,0,1-1.28-15.75q0-3.22.18-6.37T445.1,206Zm11.35-.31a68,68,0,0,0-.54,8.17q0,4.09.31,7.73a29.3,29.3,0,0,0,1.2,6.4,13.24,13.24,0,0,0,2.35,4.53,5.4,5.4,0,0,0,3.84,2,4.78,4.78,0,0,0,2.82-.75,16,16,0,0,0,3-2.24,33.21,33.21,0,0,0,2.76-2.93c.86-1,1.59-2,2.2-2.76,1.67-2.26,3.22-4.5,4.65-6.7a51,51,0,0,0,3.85-7.24,59.25,59.25,0,0,0,3-8.84A88.71,88.71,0,0,0,488,191.59c.44-3.83.83-7.34,1.17-10.51s.63-6.28.9-9.31.52-6.14.74-9.32.45-6.71.68-10.57a8,8,0,0,0-.88-1.69,2,2,0,0,0-1.68-.83,11,11,0,0,0-5.77,1.82,31.08,31.08,0,0,0-6.48,5.38,56.21,56.21,0,0,0-6.51,8.53,84.54,84.54,0,0,0-5.93,11.25A101.23,101.23,0,0,0,459.44,190,102.74,102.74,0,0,0,456.45,205.64Z"/>
          <path d="M614.35,241.15q2.5-25.18,5.64-50.86t6.1-50.95q1.24-10.5,2.2-19.11t1.62-15.61c.44-4.66.76-8.9,1-12.71s.33-7.34.33-10.59V79.26c0-.76,0-1.69-.07-2.81-.43,0-1.41.56-2.92,1.68s-3.28,2.6-5.32,4.44-4.18,3.89-6.43,6.18-4.34,4.61-6.27,6.94l-3.84,4.57a28.54,28.54,0,0,1-2.66,2.82,7.89,7.89,0,0,1-2,1.37,5,5,0,0,1-1.9.38q-2,0-3.51-3.63a24.87,24.87,0,0,1-1.47-9.38,49.81,49.81,0,0,1,.3-5.84,23.63,23.63,0,0,1,.92-4.47,17.14,17.14,0,0,1,1.67-3.73,29.85,29.85,0,0,1,2.57-3.58c11.07-13.44,22.27-23.37,33.6-29.68s22.7-9.45,34.11-9.4c.92,0,2,.06,3.28.17a34.48,34.48,0,0,1,3.9.55,26,26,0,0,1,3.91,1.09,17,17,0,0,1,3.34,1.63c1,.72,1.88,2.2,2.63,4.44a22.9,22.9,0,0,1,1.12,7.16q0,3-.23,5.93a27,27,0,0,1-.82,5,10.4,10.4,0,0,1-1.54,3.41,2.78,2.78,0,0,1-2.33,1.28c-1.57-.41-3.38-.93-5.41-1.54a21,21,0,0,0-6.14-.94,109.93,109.93,0,0,0-12.3.66A35.85,35.85,0,0,0,644.81,68a2.77,2.77,0,0,0-.42,1.6c-.07.87-.12,2-.17,3.28q-.19,8.24-.59,14.48c-.26,4.17-.63,8.33-1.08,12.5s-1,8.66-1.68,13.49-1.43,10.62-2.3,17.37-1.9,14.83-3.06,24.23-2.45,20.73-3.85,34q-1.59,14.76-3.17,29.52-1.12,10.18-1.75,18.32t-1.09,16.05a9.27,9.27,0,0,1-2,4.84,5,5,0,0,1-4.11,2.21,3.17,3.17,0,0,1-2.5-1.8,16.09,16.09,0,0,1-1.83-4.52,33.33,33.33,0,0,1-1-6A31.63,31.63,0,0,1,614.35,241.15Z"/>
          <path d="M716.63,273.62q-4.08.15-5.6-3.9a32.89,32.89,0,0,1-1.52-11.17c0-2.52.11-5.26.33-8.19s.49-6,.84-9.12q.92-8.06,2.06-16T715,209.1q1.14-8.13,2.22-16.25t1.93-16.29c0-.51.06-1.16.06-2a9.51,9.51,0,0,0-.46-3.32c-.31-.8-.77-1.2-1.38-1.19a5.12,5.12,0,0,0-3.12,1.4,14.08,14.08,0,0,0-2.79,3.06,141.23,141.23,0,0,0-7.71,13.6q-3.31,6.72-6.07,14.05t-5.22,15.65q-2.46,8.32-5.15,18.25Q685,246,683.93,253t-2.07,11.22a21.46,21.46,0,0,1-2.14,6.2,4,4,0,0,1-3.55,1.95q-2.62,0-3.72-3.46a32,32,0,0,1-1.09-9.13,94.42,94.42,0,0,1,.59-9.91Q682.78,149,693.56,48.55a39.28,39.28,0,0,1,.65-3.94,20.89,20.89,0,0,1,1.25-3.94,10.93,10.93,0,0,1,1.86-3,3.18,3.18,0,0,1,2.46-1.18,11.24,11.24,0,0,1,2.23.26,5.25,5.25,0,0,1,2.13.94,5,5,0,0,1,1.58,2.22,10.73,10.73,0,0,1,.63,4c0,.4-.05,1.23-.13,2.5s-.22,2.7-.39,4.32q-3.52,32.86-7.54,68.57t-8.14,72.25q4-11.44,8.33-21a117.37,117.37,0,0,1,8.89-16.39,46.22,46.22,0,0,1,9.45-10.75A16.29,16.29,0,0,1,727,139.45q3.36,0,5.2,4.87A36,36,0,0,1,734,156.73a58.16,58.16,0,0,1-.39,6.79q-.78,6.93-1.76,13.66t-2,13.54q-1.05,6.81-2.09,13.85T725.92,219q-1,9.54-1.43,18.09T724,250.82c-.08,2.93-.28,5.75-.58,8.48a45.68,45.68,0,0,1-1.34,7.23,17.32,17.32,0,0,1-2.23,5.08A4.09,4.09,0,0,1,716.63,273.62Z"/>
          <path d="M744.31,205.86a34.8,34.8,0,0,1,1.5-11q1.5-4.54,4-6.1c.47-2.21,1.22-5.21,2.22-9s2.24-7.86,3.73-12.28,3.17-8.85,5.07-13.31A86,86,0,0,1,767.12,142a39.84,39.84,0,0,1,7.4-8.91,12.81,12.81,0,0,1,8.43-3.46,10.88,10.88,0,0,1,6.63,2,15.4,15.4,0,0,1,4.67,5.69,32.13,32.13,0,0,1,2.77,8.7A61.08,61.08,0,0,1,798,157a73.2,73.2,0,0,1-.58,9.54A55.56,55.56,0,0,1,794,181a52.4,52.4,0,0,1-5.85,11,40.64,40.64,0,0,1-7.35,8,54.44,54.44,0,0,1-7.94,5.51,46,46,0,0,1-7.64,3.5c-2.46.84-4.58,1.49-6.38,2a61.74,61.74,0,0,0-1,6.83,74,74,0,0,0-.42,8q0,8.67,3,13.3a8.84,8.84,0,0,0,8.35,4.34,12.69,12.69,0,0,0,5.91-1.89,27.43,27.43,0,0,0,5.35-4.31,55.08,55.08,0,0,0,4.76-5.6c1.48-2,2.84-4,4.06-5.91a61.35,61.35,0,0,1,4.49-6.21q2.13-2.53,3.77-2.63a1.94,1.94,0,0,1,2.11,1.72,15.39,15.39,0,0,1,.46,3.85c0,.79,0,1.54,0,2.28s-.06,1.34-.1,1.83a47.59,47.59,0,0,1-1.3,7.71,30.59,30.59,0,0,1-2.49,6.76q-6.81,12.51-14,18.2a27.2,27.2,0,0,1-15.34,6.21,17.83,17.83,0,0,1-3.72-.21,13.9,13.9,0,0,1-4.44-1.53,17.08,17.08,0,0,1-4.54-3.64,22.66,22.66,0,0,1-4-6.53A47.94,47.94,0,0,1,747,243.43a86.15,86.15,0,0,1-1.11-14.81q0-7.05.84-15.79c-.57-.17-1.11-.83-1.61-2A12.68,12.68,0,0,1,744.31,205.86Zm41.06-42.42a7.28,7.28,0,0,0,.12-1.33v-1.33a10.79,10.79,0,0,0-1.32-5.95,3.71,3.71,0,0,0-3.15-1.94q-2.89.06-5.68,3.51a43.45,43.45,0,0,0-5.24,8.65,90.13,90.13,0,0,0-4.35,11.11c-1.26,4-2.24,7.54-2.94,10.74a33.36,33.36,0,0,0,8.67-3.16,26.66,26.66,0,0,0,6.85-5.25,27,27,0,0,0,4.72-6.94A26.29,26.29,0,0,0,785.37,163.44Z"/>
          <path d="M882.27,190q1.41-12.65,3.71-26.38t4.81-27.87q2.52-14.15,5-28.64t4.18-28.79q.45-3.51.77-6.48t.64-6.34a14.33,14.33,0,0,1,2.11-5.3,3.46,3.46,0,0,1,2.91-1.73,4.84,4.84,0,0,1,2.72,1.1,8.27,8.27,0,0,1,2.24,3.14,23.64,23.64,0,0,1,1.52,5.38,45.68,45.68,0,0,1,.58,7.65,96.69,96.69,0,0,1-.69,11q-2.52,13.32-5.11,26.24t-5,25.43q-2.42,12.51-4.49,24.84t-3.54,24.45l-.51,4.2c-.26,2.16-.52,4.75-.8,7.78s-.52,6.26-.73,9.69-.31,6.76-.3,10q0,3.27.21,6.2a36.37,36.37,0,0,0,.67,5.05,9.14,9.14,0,0,0,1.26,3.27,2,2,0,0,0,2,1q2.49-.3,6.08-6.06a122.12,122.12,0,0,0,7.76-15.34q4.17-9.56,8.55-22.05t8.55-26.43Q931.44,151,935,136.51t6-28.32a6,6,0,0,1,1.43-3.16,3.3,3.3,0,0,1,2.22-.69q2.55,0,4.3,3.08a15.57,15.57,0,0,1,1.75,7.77,15.17,15.17,0,0,1-.12,2.18c-.09.69-.21,1.5-.39,2.44l-.9,5.28q-1,6.06-2,11.17c-.62,3.41-1.13,6.63-1.51,9.65q-.84,6.5-1.34,11.88c-.34,3.6-.61,7-.79,10.14s-.31,6.25-.37,9.28-.08,6.09-.07,9.2c0,1.21.06,3,.18,5.29s.29,4.88.51,7.66.53,5.59.91,8.43.82,5.45,1.33,7.79a26.22,26.22,0,0,0,1.79,5.65c.68,1.41,1.45,2.06,2.33,1.94q2-.27,4.28-3.83a56,56,0,0,0,4.52-9.49q2.26-5.92,4.57-13.76t4.47-16.67q2.16-8.83,4.13-18.2t3.61-18.43q1.64-9.06,2.89-17.43c.83-5.58,1.51-10.66,2-15.26q.71-6.54,1.21-12.68t1-12.27c.34-4.08.7-8.18,1.11-12.29s.9-8.3,1.49-12.59a39.54,39.54,0,0,1,1-4.69,23.71,23.71,0,0,1,1.59-4.32,12.61,12.61,0,0,1,2.05-3.11,2.77,2.77,0,0,1,2.29-1,4.48,4.48,0,0,1,4,3.34q1.07,3,1.08,9.91,0,5.06-.45,11.76t-1.2,14.11q-.74,7.4-1.63,15t-1.78,14.4q-1.8,13.83-4.76,28.9t-6.61,29.76q-3.64,14.68-7.77,28t-8.27,23.29q-1.43,3.48-3.38,7.2a60.35,60.35,0,0,1-4.2,6.87A39.16,39.16,0,0,1,953,245a8.79,8.79,0,0,1-4.48,2.59c-3,.48-5.54-.85-7.58-4.05s-3.71-7.65-5-13.36a153.24,153.24,0,0,1-3-19.79q-1-11.22-1.54-23.27c-2.42,7.46-4.64,14.18-6.65,20.11s-4.07,11.48-6.15,16.61q-2.34,5.73-5.27,12.46T907.05,249a62.64,62.64,0,0,1-6.76,10c-2.31,2.73-4.58,4.26-6.81,4.57a7.4,7.4,0,0,1-6.47-1.91,17.44,17.44,0,0,1-4.18-7.24,54.75,54.75,0,0,1-2.29-11.46,142.4,142.4,0,0,1-.73-14.58q0-9.14.68-18.87T882.27,190Z"/>
          <path d="M1002,187.74a147.31,147.31,0,0,1,3-15.76,135.27,135.27,0,0,1,5.34-16.85,119.11,119.11,0,0,1,8-16.5A87.28,87.28,0,0,1,1029,123.85a14.27,14.27,0,0,1,3-2.28,10.4,10.4,0,0,1,4.17-1.47c1.69-3.2,4-4.78,6.84-4.79a10.68,10.68,0,0,1,8.6,4.31,35.09,35.09,0,0,1,5.81,11.65c.48,1.58.93,3.12,1.35,4.63a48.18,48.18,0,0,1,1.06,4.78c.28,1.69.52,3.5.7,5.44s.27,4.14.28,6.6a99.18,99.18,0,0,1-1.58,17.62,128.23,128.23,0,0,1-4.58,18,138.16,138.16,0,0,1-7.23,17.61,120.54,120.54,0,0,1-9.45,16.07,37.19,37.19,0,0,1-7.77,8.38,22.65,22.65,0,0,1-9.56,4.36,14,14,0,0,1-8.72-.73,14.15,14.15,0,0,1-6.16-5.81,31.62,31.62,0,0,1-3.69-10.25,73,73,0,0,1-1.26-13.95A123.24,123.24,0,0,1,1002,187.74Zm10.85.3q-.37,2.76-.54,5.19t-.15,4.68a42.81,42.81,0,0,0,.58,7.16,17.25,17.25,0,0,0,1.81,5.5,8.33,8.33,0,0,0,3.12,3.26,6.86,6.86,0,0,0,4.54.6c3.31-.55,6.38-2.54,9.22-5.93a55.82,55.82,0,0,0,7.57-12.11,98,98,0,0,0,5.54-14.71,102.4,102.4,0,0,0,3.13-14q.57-3.94,1-7.41a53,53,0,0,0,.4-6.35,21.82,21.82,0,0,0-.63-5.33c-.42-1.64-1-3.47-1.62-5.51-.39-1.24-.79-2.54-1.19-3.89s-.74-2.7-1-4a21.77,21.77,0,0,1-1.1,2.78,6.85,6.85,0,0,1-1.76,2.21,12.9,12.9,0,0,1-3.19,1.91,30.64,30.64,0,0,1-5.29,1.63,18.49,18.49,0,0,0-4.36,4.12,49.71,49.71,0,0,0-4.33,6.49c-1.4,2.48-2.75,5.17-4,8.06s-2.42,5.85-3.44,8.86-1.9,6-2.65,8.88A63.31,63.31,0,0,0,1012.81,188Z"/>
          <path d="M1073.38,208.7q.82-7.56,1.91-16.6t2.23-18.21q1.15-9.16,2.23-17.93c.73-5.85,1.34-11.17,1.85-16,0-.69-.07-1.3-.07-1.82s0-1.09,0-1.71q0-3.23.25-6.47c.16-2.15.4-4.14.7-5.94a17.14,17.14,0,0,1,1.58-5.38,3.13,3.13,0,0,1,2.83-1.43,4,4,0,0,1,3,1.15,8,8,0,0,1,1.8,3.08,18.34,18.34,0,0,1,.86,4.41q.2,2.49.21,5.13,0,1.42-.06,3.15c0,1.16-.06,2.07-.06,2.75q1.82-3,3.87-6.21a42.13,42.13,0,0,1,4.35-5.67,24.48,24.48,0,0,1,4.87-4.15,10.21,10.21,0,0,1,5.37-1.68,8.51,8.51,0,0,1,2.19.25,16.91,16.91,0,0,1,2.18.73,17.42,17.42,0,0,1,2.71,1.25,11.3,11.3,0,0,1,2.7,2.18,19.71,19.71,0,0,1,3.63,5.81,18.29,18.29,0,0,1,1.48,7.16,14.3,14.3,0,0,1-.38,3.1,14.7,14.7,0,0,1-1.07,3.1,9.34,9.34,0,0,1-1.59,2.41,3.09,3.09,0,0,1-2,1.07,5.89,5.89,0,0,1-2.71-.6,6.85,6.85,0,0,1-2.64-2,7.76,7.76,0,0,1-.95-1.58c-.32-.68-.63-1.37-.91-2.07s-.55-1.34-.79-1.94a6.86,6.86,0,0,0-.56-1.19,4.67,4.67,0,0,0-.71-.1,5.87,5.87,0,0,0-.72,0,10.11,10.11,0,0,0-6.31,2.94,35.47,35.47,0,0,0-5.58,6.72,71.83,71.83,0,0,0-4.77,8.46c-1.45,3-2.72,5.74-3.79,8.17q-1.29,8.42-2.85,18.05t-3.11,20.26c0,.87,0,1.73,0,2.59,0,2.07,0,4.18-.12,6.34a29.12,29.12,0,0,1-.76,5.86,10,10,0,0,1-2,3.09,6,6,0,0,1-3.09,1.77,3.45,3.45,0,0,1-4.11-2,14.17,14.17,0,0,1-1.39-6.54A22.76,22.76,0,0,1,1073.38,208.7Z"/>
          <path d="M1148.42,80.22a46.78,46.78,0,0,1,1-6.51,15.79,15.79,0,0,1,1.91-4.83,3.1,3.1,0,0,1,3.09-1.65,6.6,6.6,0,0,1,2.31.79,11.36,11.36,0,0,1,2.41,1.7,9.66,9.66,0,0,1,1.93,2.41,5.81,5.81,0,0,1,.78,2.92,7.42,7.42,0,0,1-.19,1.58c-.13.59-.24,1.17-.32,1.74q-8.05,42.57-16.09,88.89-1,5.55-1.61,10.59t-1,8.29c0,.72,0,1.45,0,2.17,0,1.82-.08,3.81-.25,6a39.92,39.92,0,0,1-1,6.21,19.1,19.1,0,0,1-2,5.11,5.22,5.22,0,0,1-3.28,2.66,4,4,0,0,1-3-.34,5.9,5.9,0,0,1-2.16-2.24,11.64,11.64,0,0,1-1.24-3.32,17.69,17.69,0,0,1-.4-3.53c0-1,.06-2.24.19-3.74s.29-3.05.48-4.68.39-3.25.61-4.88.42-3.05.64-4.27q8.28-49.18,16.58-94.49C1148,84.78,1148.21,82.58,1148.42,80.22Z"/>
          <path d="M1161.59,170a91,91,0,0,1,2.23-9.63,74.87,74.87,0,0,1,3.46-9.58,66.68,66.68,0,0,1,4.92-9.23,55.73,55.73,0,0,1,6.68-8.54,61.94,61.94,0,0,1,5.48-5.27,44.2,44.2,0,0,1,5.87-4.26,33.14,33.14,0,0,1,6-2.87,19,19,0,0,1,5.94-1.17,14.55,14.55,0,0,1,6.94,1.34c.43-1.76,1.58-6.52,3.46-14.08s4.18-17.94,6.9-30.83a7.36,7.36,0,0,1,2-3,3.8,3.8,0,0,1,3.12-.91,13.63,13.63,0,0,1,2.53.57,6.1,6.1,0,0,1,2.2,1.25,6.18,6.18,0,0,1,1.56,2.18,8.41,8.41,0,0,1,.59,3.33q-6.52,27.25-13,57.07c-.38,1.68-.75,3.94-1.09,6.78s-.67,5.84-1,9-.54,6.3-.71,9.39-.26,5.74-.26,7.94a43.69,43.69,0,0,1-.83,8.35q-.39,1.86-.81,3.18a7.9,7.9,0,0,1-1.13,2.27,5.78,5.78,0,0,1-1.78,1.55,11.07,11.07,0,0,1-2.69,1,7.27,7.27,0,0,1-2.91.27,2.47,2.47,0,0,1-1.56-.88,3.21,3.21,0,0,1-.62-1.69c-.06-.67-.11-1.4-.13-2.18s-.06-1.6-.13-2.42a7.18,7.18,0,0,0-.55-2.3c-.52.52-1.23,1.21-2.14,2.08s-1.82,1.75-2.75,2.66l-2.62,2.55c-.82.79-1.43,1.36-1.82,1.72q-1.48,1.37-3.36,3t-4,3.14a38.3,38.3,0,0,1-4.54,2.78,21.33,21.33,0,0,1-4.76,1.84,12.57,12.57,0,0,1-5.68.14,10,10,0,0,1-4.94-2.74,15.07,15.07,0,0,1-3.48-6,29.27,29.27,0,0,1-1.31-9.37c0-1.33.05-2.65.15-4S1161.29,171.63,1161.59,170Zm11.23-2.51a25.69,25.69,0,0,0-.51,4.95,28.64,28.64,0,0,0,.33,4.5,9.21,9.21,0,0,0,1.21,3.49,5.15,5.15,0,0,0,2.33,2.06,6.17,6.17,0,0,0,3.8.15,9.28,9.28,0,0,0,2.79-1.16,29.35,29.35,0,0,0,3-2c1-.77,1.88-1.54,2.72-2.33s1.56-1.47,2.17-2.07q2.46-2.47,4.56-4.75a39.16,39.16,0,0,0,3.79-4.74,32.45,32.45,0,0,0,3-5.31,32.94,32.94,0,0,0,2-6.4q.64-3.13,1.13-5.7c.33-1.72.62-3.38.88-5s.49-3.27.71-5,.42-3.53.64-5.56a3.65,3.65,0,0,0-.88-.81,2.56,2.56,0,0,0-1.65-.29,18.65,18.65,0,0,0-5.71,1.45,34.72,34.72,0,0,0-6.39,3.52,42.6,42.6,0,0,0-6.41,5.44,51,51,0,0,0-10.53,15.78A44.2,44.2,0,0,0,1172.82,167.46Z"/>
        </g>
      </g>
      <g id="Light">
        <g>
          <path class="cls-2" d="M66.74,172.49a5.91,5.91,0,0,1-2.7-1,7.14,7.14,0,0,1-1.93-2,9.49,9.49,0,0,1-1.17-2.67,10.91,10.91,0,0,1-.4-2.91,14,14,0,0,1,.58-3.43q.59-2.18,1.5-4.87t2-5.67q1.09-3,2.12-5.71t1.75-5.1c.48-1.56.82-2.8,1-3.71s.44-2.23.73-3.65.62-3,1-4.64.73-3.45,1.1-5.31.74-3.73,1.13-5.63c-.69.16-1.52.31-2.52.44s-2.05.24-3.17.33a45.83,45.83,0,0,0-4.74.69c-1.56.31-3.15.66-4.78,1l-5.06,1.22q-2.62.65-5.62,1.31c-2.91.63-5.83,1.33-8.74,2.09a31.23,31.23,0,0,1-9.11,1,5,5,0,0,1-2.69-.92,9.16,9.16,0,0,0-2.77-1.3c-1,1.63-1.9,3.36-2.77,5.2s-1.68,3.73-2.4,5.66-1.39,3.83-2,5.69-1.09,3.62-1.53,5.26a25.64,25.64,0,0,0-.62,3.49c-.17,1.43-.33,2.88-.47,4.36s-.29,2.89-.44,4.24-.29,2.42-.44,3.21a5.81,5.81,0,0,1-.87,2.12,7.79,7.79,0,0,1-1.6,1.79A6.85,6.85,0,0,1,9,164.21a4.91,4.91,0,0,1-2.33.23,5.35,5.35,0,0,1-3.32-1.68,11,11,0,0,1-2-3.3A16.71,16.71,0,0,1,.29,155.4,30.19,30.19,0,0,1,0,151.48a40.51,40.51,0,0,1,1.09-9.17,73.66,73.66,0,0,1,3-9.58,106.79,106.79,0,0,1,4.37-9.91q2.5-5,5.42-10.17c1.6-3.06,3.6-6.64,6-10.79s5-8.47,8-13,6.12-9.11,9.54-13.69A134,134,0,0,1,48,62.49a71.18,71.18,0,0,1,11.37-9.72A26.2,26.2,0,0,1,71,48.1q6-.74,10.1,1.43A16.09,16.09,0,0,1,87.53,56a31.52,31.52,0,0,1,3.39,10.3,79.85,79.85,0,0,1,1,12.8q0,6-.62,12.37T89.75,103.9q-.91,6.06-2,11.65t-1.93,10.06q-1.27,6-2.56,11.89c-.09.35-.28,1-.54,2.08s-.61,2.29-1,3.76-.88,3-1.39,4.72-1,3.34-1.53,4.95-1,3.1-1.46,4.45-.87,2.44-1.21,3.27l.08-.08c-.34,1.48-.71,3-1.1,4.49a15.48,15.48,0,0,1-1.6,4,7.49,7.49,0,0,1-2.63,2.7A6.41,6.41,0,0,1,66.74,172.49ZM70.46,65.42a15.93,15.93,0,0,0-6.53,2.13,38.48,38.48,0,0,0-6.38,4.59,58.42,58.42,0,0,0-6.09,6.25c-2,2.33-3.84,4.68-5.61,7s-3.44,4.73-5,7.08S37.9,97,36.63,99l-.76,1.25c-.32.52-.64,1.08-.95,1.7s-.62,1.25-.91,1.92-.54,1.26-.73,1.79l7.51,0a74.57,74.57,0,0,0,9.32-.72q5.25-.7,10.39-1.69t9.45-2c2.86-.7,5-1.25,6.49-1.62A28.36,28.36,0,0,0,77,96.44c.17-1.27.33-2.7.48-4.27s.25-3.25.33-5,.11-3.59.11-5.45c0-1.51-.05-3.24-.15-5.18a24.34,24.34,0,0,0-.88-5.47,10.32,10.32,0,0,0-2.22-4.21A4.79,4.79,0,0,0,70.46,65.42Z"/>
          <path class="cls-2" d="M106,166.85q.95-6.32,2.19-13.95t2.55-15.53q1.32-7.89,2.56-15.57t2.12-14.11c0-.62-.08-1.17-.08-1.64v-1.53c0-1.93.1-3.85.29-5.78a53,53,0,0,1,.81-5.34,13.54,13.54,0,0,1,1.79-4.87,3.9,3.9,0,0,1,3.17-1.37,4.89,4.89,0,0,1,3.4,1,7.05,7.05,0,0,1,2,2.83,14.77,14.77,0,0,1,1,4.11c.14,1.55.22,3.15.22,4.79,0,.89,0,1.88-.08,3s-.07,1.94-.07,2.57q2-2.76,4.35-5.72a45.12,45.12,0,0,1,4.89-5.37,29,29,0,0,1,5.48-4.07,12.94,12.94,0,0,1,6-1.74,10,10,0,0,1,2.44.23,16.91,16.91,0,0,1,2.45.72,18.89,18.89,0,0,1,3,1.25,12.22,12.22,0,0,1,3,2.27,20.27,20.27,0,0,1,4.05,6.18,18.81,18.81,0,0,1,1.65,7.67,13.73,13.73,0,0,1-.44,3.27,14.24,14.24,0,0,1-1.21,3.21,9,9,0,0,1-1.79,2.39,3.24,3.24,0,0,1-2.26.92,7.48,7.48,0,0,1-3-.88,8.71,8.71,0,0,1-3-2.25,8.33,8.33,0,0,1-1.05-1.69c-.37-.72-.71-1.45-1-2.17s-.61-1.4-.87-2a6.75,6.75,0,0,0-.63-1.23,7.64,7.64,0,0,0-.8-.15,7.77,7.77,0,0,0-.8,0,11.73,11.73,0,0,0-7.09,2.55,36.11,36.11,0,0,0-6.28,6.11,67.17,67.17,0,0,0-5.37,7.58c-1.63,2.66-3.06,5-4.27,7.15q-1.47,7.62-3.25,16.14t-3.54,17.73v2.34q0,2.81-.15,5.7a18.79,18.79,0,0,1-.88,5,5.82,5.82,0,0,1-2.3,2.11,5.65,5.65,0,0,1-3.46.57,5.79,5.79,0,0,1-4.6-3.08,12,12,0,0,1-1.54-6.09A14,14,0,0,1,106,166.85Z"/>
          <path class="cls-2" d="M169,144.5a91.81,91.81,0,0,1,3.4-13,94.63,94.63,0,0,1,6-14,103.58,103.58,0,0,1,9-14.09,95.25,95.25,0,0,1,12.11-13.24,16.43,16.43,0,0,1,3.36-2.13,13.6,13.6,0,0,1,4.68-1.45,9.1,9.1,0,0,1,7.69-4.71,12.09,12.09,0,0,1,9.62,4,32.07,32.07,0,0,1,6.48,11.57q.79,2.4,1.5,4.69A46.14,46.14,0,0,1,234,107c.31,1.72.57,3.56.77,5.54s.29,4.2.29,6.69a87.41,87.41,0,0,1-1.83,17.6,98.68,98.68,0,0,1-5.2,17.25,91.47,91.47,0,0,1-8.16,15.69,70.84,70.84,0,0,1-10.64,12.93,25.58,25.58,0,0,1-8.74,5.59,23.46,23.46,0,0,1-10.72,1.16,22.9,22.9,0,0,1-9.76-3.13,21.61,21.61,0,0,1-6.87-6.66,30.19,30.19,0,0,1-4.1-9.59,50.17,50.17,0,0,1-1.35-12A75.43,75.43,0,0,1,169,144.5Zm12.13,1.92c-.29,1.57-.5,3-.62,4.44s-.18,2.75-.18,4a30.63,30.63,0,0,0,.62,6.36,15.62,15.62,0,0,0,2,5.19,11.28,11.28,0,0,0,3.47,3.57,10.71,10.71,0,0,0,5.09,1.6,14.47,14.47,0,0,0,10.34-3.24,36.43,36.43,0,0,0,8.53-9.67,67.32,67.32,0,0,0,6.25-13,76.63,76.63,0,0,0,3.55-13.06c.44-2.5.82-4.87,1.14-7.09a45,45,0,0,0,.47-6.15,19.2,19.2,0,0,0-.69-5.25c-.47-1.62-1.06-3.44-1.8-5.45-.44-1.22-.87-2.49-1.31-3.82s-.83-2.63-1.17-3.91a19.67,19.67,0,0,1-1.25,2.63,6.57,6.57,0,0,1-2,2,13.9,13.9,0,0,1-3.59,1.66,34.52,34.52,0,0,1-5.92,1.28,19.48,19.48,0,0,0-4.91,3.58,47,47,0,0,0-4.86,5.62,75.85,75.85,0,0,0-4.53,6.92,79.89,79.89,0,0,0-3.88,7.52c-1.15,2.55-2.14,5-3,7.48A41.11,41.11,0,0,0,181.09,146.42Z"/>
          <path class="cls-2" d="M260.19,91.48a14.37,14.37,0,0,1,.84-3.11,9.27,9.27,0,0,1,1.18-2.11,5.44,5.44,0,0,1,1.13-1.16,1.78,1.78,0,0,1,.81-.36,7.93,7.93,0,0,1,1.9.24c.73.18,1.44.33,2.12.46s1.54.42,2.28.64c1.26,0,2.18.82,2.74,2.33a15.75,15.75,0,0,1,.84,5.46,23.14,23.14,0,0,1-.44,4.69q-2.49,14.28-4.54,24.75t-3.48,17.78q-1.43,7.31-2.19,11.9a46.39,46.39,0,0,0-.77,7,39.45,39.45,0,0,0,.4,5.32,34,34,0,0,0,1.21,5.55,15.9,15.9,0,0,0,2,4.38,4,4,0,0,0,3,1.9c2.05.13,4.13-.72,6.23-2.57a37.56,37.56,0,0,0,6-6.92,67.76,67.76,0,0,0,5.16-9c1.54-3.2,2.8-6.07,3.77-8.58l1.91-5.15a101.31,101.31,0,0,0,3.26-11.13q1.5-6.32,2.64-12.72T300.19,109c.53-3.78.95-6.8,1.24-9.06q1-7.8,1.91-15.61c.39-3,1-5,1.79-6.19a4.78,4.78,0,0,1,4.07-1.82,8.12,8.12,0,0,1,3.3.56A5.44,5.44,0,0,1,315,79.13a12.65,12.65,0,0,1,1.54,4.4,41,41,0,0,1,.51,7.16,96.94,96.94,0,0,1-1,12.51q-1,7.41-2.16,14.85-.66,4.36-1.35,9.26c-.47,3.26-.88,6.52-1.25,9.77s-.66,6.36-.88,9.3-.33,5.59-.33,7.94q0,6,.26,12t.25,12.74c0,2.05,0,3.85-.11,5.42a26.09,26.09,0,0,1-.33,3.51,20.34,20.34,0,0,1-2.09,6.69q-1.28,2.15-4.36,1.91a6.79,6.79,0,0,1-3.37-1,6,6,0,0,1-1.94-2.19,8.89,8.89,0,0,1-.91-2.92c-.15-1.07-.25-2.14-.3-3.23q-.4-11-.8-22.07l-.66.31q-2.42,4.77-5.28,10.63a79.78,79.78,0,0,1-6.3,10.79,36.78,36.78,0,0,1-7.51,8.1,12.24,12.24,0,0,1-8.82,2.73,6.25,6.25,0,0,1-2.45-1,27.13,27.13,0,0,1-3.12-2.13,29.85,29.85,0,0,1-3.07-2.8,21.34,21.34,0,0,1-2.35-2.83,40.37,40.37,0,0,1-5.71-13.3,64.37,64.37,0,0,1-1.68-14.59,77.77,77.77,0,0,1,.44-8.22q.44-4.11,1-7.93t1.29-7.22q.69-3.37,1.13-6.05,1.4-8.35,2.49-14.74t1.94-11.22q.84-4.83,1.43-8.27T260.19,91.48Z"/>
          <path class="cls-2" d="M382.67,98.28a9.78,9.78,0,0,0-5.5,2.08,37.69,37.69,0,0,0-6.09,5.51q-3.15,3.47-6.42,7.81t-6.41,9c-1.08,1.53-2.11,2.93-3.08,4.17a12.64,12.64,0,0,1-2.94,2.83,76.27,76.27,0,0,0-2.16,7.32c-.76,3-1.5,6.33-2.24,9.9s-1.43,7.24-2.09,11-1.21,7.2-1.65,10.4c-.24,1.69-.44,3.33-.58,4.94s-.32,3.31-.52,5.12-.42,3.74-.69,5.82-.6,4.4-1,7a10.19,10.19,0,0,1-1.18,3.61,7,7,0,0,1-1.68,2,3.87,3.87,0,0,1-1.69.8,6.18,6.18,0,0,1-1.24.09,6,6,0,0,1-4.55-2.46q-1.75-2.28-1.76-8.5c0-1.11,0-2.29.07-3.52a35.26,35.26,0,0,1,.44-4.11q1.62-11.28,3.12-20.35t3-16.85Q337.43,134,339,127.1t3.22-14q1.65-7.07,3.45-14.65t3.85-16.85a5.88,5.88,0,0,1,2.31-3.52,6.76,6.76,0,0,1,4-1.49,5.67,5.67,0,0,1,4.58,2,8.8,8.8,0,0,1,1.8,6,10.58,10.58,0,0,1-.15,1.35,20.64,20.64,0,0,1-.44,2.09q-1.62,6.41-3.23,12.76c2.06-2.7,4.19-5.41,6.42-8.13a77.12,77.12,0,0,1,6.86-7.42,39.85,39.85,0,0,1,7.08-5.43,14.13,14.13,0,0,1,7-2.18c4.7-.09,8.36,2,11,6.25s4,10.92,4,20a113.85,113.85,0,0,1-1.58,17.69q-1.58,9.9-4,21.19T390,166.29q-2.75,12.32-5.1,25-.66,3.45-1.35,5.77a13.54,13.54,0,0,1-1.65,3.7,5.3,5.3,0,0,1-2.24,1.91,6.87,6.87,0,0,1-3.12.44,4.58,4.58,0,0,1-4-2,11.8,11.8,0,0,1-1.1-5.8,70.45,70.45,0,0,1,.62-8.42q.63-5,1.76-10.9t2.64-12.69c1-4.51,2.09-9.1,3.27-13.78q1.4-5.67,2.75-11.35t2.42-11q1.06-5.34,1.72-10.19a67,67,0,0,0,.66-9,21.14,21.14,0,0,0-1-6.78C385.71,99.23,384.48,98.27,382.67,98.28Z"/>
          <path class="cls-2" d="M412.75,158.51q1-6.81,2.53-13.6a126.43,126.43,0,0,1,3.93-13.5,108,108,0,0,1,5.58-13.1A85.34,85.34,0,0,1,432.35,106a92.84,92.84,0,0,1,6.2-7.76,56.41,56.41,0,0,1,6.64-6.39A35.27,35.27,0,0,1,452,87.52a15.69,15.69,0,0,1,6.72-1.68,12.16,12.16,0,0,1,4.29.67,14.07,14.07,0,0,1,3.56,2c.49-3,1.8-11.16,3.93-24.44s4.74-31.79,7.82-55.61a20,20,0,0,1,2.28-5.95A4.37,4.37,0,0,1,484.1,0,8.87,8.87,0,0,1,487,.35a5.07,5.07,0,0,1,2.5,1.74,10.07,10.07,0,0,1,1.76,3.66,23.22,23.22,0,0,1,.66,6.13q-7.38,52.78-14.76,105-.66,4.43-1.24,11.9t-1.1,15.79c-.35,5.55-.62,11-.81,16.44s-.3,10.06-.3,14a109.18,109.18,0,0,1-.95,14.4q-.44,3.1-.92,5.24a11.72,11.72,0,0,1-1.28,3.46,4.56,4.56,0,0,1-2,1.87,6.83,6.83,0,0,1-3.05.47,6,6,0,0,1-3.3-.9,5,5,0,0,1-1.76-2.2,9.16,9.16,0,0,1-.7-3.13c-.08-1.16-.12-2.41-.15-3.75s-.07-2.72-.15-4.14a20.07,20.07,0,0,0-.62-4.09c-.59.67-1.39,1.55-2.42,2.63s-2.07,2.19-3.12,3.32-2.05,2.16-3,3.11-1.61,1.64-2.05,2.05q-1.69,1.6-3.82,3.38a36.49,36.49,0,0,1-4.59,3.27,25.44,25.44,0,0,1-5.13,2.4,14.59,14.59,0,0,1-5.4.77,12.61,12.61,0,0,1-6.42-2.21,18.86,18.86,0,0,1-5.58-6.09,35.48,35.48,0,0,1-3.92-10.1,60.56,60.56,0,0,1-1.47-14.15c0-1.94.06-3.85.18-5.74S412.41,160.86,412.75,158.51Zm12.7-.69a47.14,47.14,0,0,0-.59,7.36,60.73,60.73,0,0,0,.37,6.94,21.47,21.47,0,0,0,1.35,5.71,10.89,10.89,0,0,0,2.65,4,6.4,6.4,0,0,0,4.29,1.62,6.54,6.54,0,0,0,3.16-.78,19.56,19.56,0,0,0,3.34-2.12,35.18,35.18,0,0,0,3.08-2.72c.95-.95,1.77-1.81,2.46-2.56q2.79-3.12,5.17-6.15a45.41,45.41,0,0,0,4.3-6.6,49.08,49.08,0,0,0,3.34-8,66.49,66.49,0,0,0,2.31-10.24q.74-5.16,1.28-9.43t1-8.33q.45-4.08.81-8.35c.25-2.85.49-6,.74-9.45a6.89,6.89,0,0,0-1-1.49,2.38,2.38,0,0,0-1.88-.71,14.81,14.81,0,0,0-6.46,1.75,34.58,34.58,0,0,0-7.23,4.95,54.1,54.1,0,0,0-7.26,7.8,74.3,74.3,0,0,0-6.61,10.25,79.81,79.81,0,0,0-5.32,12.37A75.93,75.93,0,0,0,425.45,157.82Z"/>
          <path class="cls-2" d="M602,185.92q2.79-22.23,6.28-44.89t6.79-44.93q1.4-9.27,2.46-16.85t1.81-13.76q.72-6.16,1.1-11.21t.36-9.33V43.14c0-.67,0-1.5-.07-2.49a9.94,9.94,0,0,0-3.27,1.49c-1.69,1-3.67,2.3-6,3.92s-4.68,3.44-7.2,5.47-4.86,4.07-7,6.13L593,61.71a28.07,28.07,0,0,1-3,2.49,8.85,8.85,0,0,1-2.28,1.22,6.88,6.88,0,0,1-2.13.34q-2.26,0-3.93-3.18A18.07,18.07,0,0,1,580,54.3a35.26,35.26,0,0,1,.33-5.15,17.38,17.38,0,0,1,1-3.95,14.43,14.43,0,0,1,1.87-3.3,27.88,27.88,0,0,1,2.87-3.17Q604.7,20.9,623.73,12.52a93.42,93.42,0,0,1,38.21-8.29c1,0,2.25,0,3.67.15s2.88.26,4.37.49a35,35,0,0,1,4.37,1,22.12,22.12,0,0,1,3.75,1.43A7.73,7.73,0,0,1,681,11.18a16.11,16.11,0,0,1,1.25,6.31c0,1.79-.09,3.53-.26,5.23a19.07,19.07,0,0,1-.92,4.42,8.36,8.36,0,0,1-1.72,3,3.44,3.44,0,0,1-2.61,1.13q-2.65-.55-6.06-1.37a29.21,29.21,0,0,0-6.87-.83q-6.92,0-13.78.58A47.77,47.77,0,0,0,636,33.23a2.08,2.08,0,0,0-.47,1.41c-.08.76-.14,1.72-.19,2.88q-.23,7.26-.66,12.77t-1.21,11q-.78,5.51-1.88,11.89T629,88.5q-1.47,8.94-3.41,21.35t-4.3,30q-1.77,13-3.53,26-1.24,9-1.94,16.17t-1.22,14.15a7.47,7.47,0,0,1-2.24,4.28,6.11,6.11,0,0,1-4.59,2,3.56,3.56,0,0,1-2.79-1.56,12.76,12.76,0,0,1-2.06-4,24.81,24.81,0,0,1-1.1-5.31A21.64,21.64,0,0,1,602,185.92Z"/>
          <path class="cls-2" d="M716.23,214.81q-4.56.08-6.25-3.52c-1.12-2.39-1.69-5.68-1.69-9.87q0-3.34.37-7.23c.25-2.59.56-5.27,1-8q1-7.1,2.31-14.13c.86-4.69,1.71-9.41,2.57-14.19s1.69-9.54,2.5-14.31,1.53-9.56,2.17-14.37a16.54,16.54,0,0,0,.07-1.74,7,7,0,0,0-.51-2.94,1.65,1.65,0,0,0-1.55-1.06,6.52,6.52,0,0,0-3.49,1.21,13.81,13.81,0,0,0-3.12,2.68,118.7,118.7,0,0,0-8.63,11.94,123.33,123.33,0,0,0-6.8,12.35q-3.07,6.43-5.84,13.76t-5.76,16.06q-2.58,8.73-3.82,14.85c-.84,4.07-1.61,7.37-2.32,9.87a16.09,16.09,0,0,1-2.39,5.45,4.75,4.75,0,0,1-4,1.71,4.22,4.22,0,0,1-4.15-3.07,22.32,22.32,0,0,1-1.22-8.05,63.56,63.56,0,0,1,.67-8.73q12.12-88.8,24.24-177.36a28.25,28.25,0,0,1,.73-3.48,16.36,16.36,0,0,1,1.4-3.47,10.06,10.06,0,0,1,2.09-2.66,4,4,0,0,1,2.76-1,17.6,17.6,0,0,1,2.5.23,7.08,7.08,0,0,1,2.38.83,4.7,4.7,0,0,1,1.77,2,7.78,7.78,0,0,1,.7,3.49c0,.35,0,1.09-.15,2.2s-.25,2.39-.44,3.81q-4,29-8.49,60.47T686.7,142.1A193.15,193.15,0,0,1,696,123.65a98.31,98.31,0,0,1,10-14.4,45.62,45.62,0,0,1,10.58-9.43,21.16,21.16,0,0,1,11.35-3.38q3.75,0,5.8,4.34a25.66,25.66,0,0,1,2.06,11,40.84,40.84,0,0,1-.44,6q-.89,6.12-2,12.06t-2.27,11.94q-1.19,6-2.35,12.21t-2.06,12.76q-1.17,8.41-1.62,16t-.58,12.09a71.2,71.2,0,0,1-.67,7.48,32,32,0,0,1-1.5,6.36,13.37,13.37,0,0,1-2.5,4.45A4.72,4.72,0,0,1,716.23,214.81Z"/>
          <path class="cls-2" d="M747.23,155.34a24.9,24.9,0,0,1,1.69-9.71q1.68-4,4.48-5.34.81-2.92,2.49-7.91t4.19-10.82q2.5-5.84,5.69-11.73a72.2,72.2,0,0,1,7.05-10.69,37.87,37.87,0,0,1,8.3-7.81,16.25,16.25,0,0,1,9.44-3A14.47,14.47,0,0,1,798,90.24a15.3,15.3,0,0,1,5.21,5.13,24.93,24.93,0,0,1,3.08,7.79,43.41,43.41,0,0,1,1,9.73,52.75,52.75,0,0,1-.66,8.49,41,41,0,0,1-3.82,12.83,43.63,43.63,0,0,1-6.57,9.69,39.9,39.9,0,0,1-8.22,7,63.3,63.3,0,0,1-8.89,4.72,57.06,57.06,0,0,1-8.56,3c-2.74.69-5.11,1.24-7.12,1.61a45.94,45.94,0,0,0-1.14,6,54.37,54.37,0,0,0-.48,7.09c0,5.12,1.13,9.08,3.38,11.85a11,11,0,0,0,9.33,4,16.51,16.51,0,0,0,6.61-1.53,30.1,30.1,0,0,0,6-3.7,52.05,52.05,0,0,0,5.33-4.85Q795,176.51,797,174a55.84,55.84,0,0,1,5-5.41q2.38-2.2,4.22-2.24a2.15,2.15,0,0,1,2.35,1.58,11.43,11.43,0,0,1,.52,3.45c0,.69,0,1.37,0,2s-.06,1.2-.11,1.63a33.52,33.52,0,0,1-1.47,6.83,23.41,23.41,0,0,1-2.79,5.95q-7.63,10.93-15.68,15.79a34.69,34.69,0,0,1-17.14,5.1,25.89,25.89,0,0,1-4.15-.28,18.73,18.73,0,0,1-5-1.46,19.61,19.61,0,0,1-5.07-3.32,20.47,20.47,0,0,1-4.44-5.87,36.5,36.5,0,0,1-3.16-9.1,61,61,0,0,1-1.21-13.13,115.72,115.72,0,0,1,1-13.95,3.28,3.28,0,0,1-1.8-1.78A9.36,9.36,0,0,1,747.23,155.34Zm46-36.92a5.36,5.36,0,0,0,.15-1.18v-1.18a8.21,8.21,0,0,0-1.47-5.32,4.43,4.43,0,0,0-3.52-1.77q-3.24,0-6.36,3a37.76,37.76,0,0,0-5.87,7.59,69.3,69.3,0,0,0-4.89,9.79,86.32,86.32,0,0,0-3.3,9.47,43,43,0,0,0,9.69-2.65,29.24,29.24,0,0,0,7.68-4.54,24,24,0,0,0,5.29-6.08A19.55,19.55,0,0,0,793.2,118.42Z"/>
          <path class="cls-2" d="M901.54,144.8q1.62-11.4,4.22-23.76t5.47-25.12q2.87-12.76,5.65-25.87T921.64,44q.52-3.18.88-5.88c.25-1.79.49-3.71.74-5.76a11.7,11.7,0,0,1,2.38-4.8A4.09,4.09,0,0,1,928.91,26a6.14,6.14,0,0,1,3,1,7.83,7.83,0,0,1,2.49,2.89,18.24,18.24,0,0,1,1.69,4.91,34.86,34.86,0,0,1,.62,7,71.76,71.76,0,0,1-.8,10q-2.87,12.1-5.8,23.81t-5.68,23q-2.76,11.31-5.1,22.44t-4,22.08c-.1.58-.3,1.84-.59,3.79s-.6,4.29-.92,7-.6,5.66-.84,8.77-.37,6.11-.37,9c0,2,.08,3.87.22,5.64a26.93,26.93,0,0,0,.74,4.62,7.92,7.92,0,0,0,1.39,3,2.55,2.55,0,0,0,2.2,1q2.79-.13,6.82-5.2a98,98,0,0,0,8.73-13.58q4.69-8.5,9.64-19.73T952,123.69q4.69-12.61,8.73-25.78t6.82-25.84a5.05,5.05,0,0,1,1.61-2.87,4.19,4.19,0,0,1,2.49-.58,5.94,5.94,0,0,1,4.8,2.94,12.57,12.57,0,0,1,1.94,7.22,14,14,0,0,1-.14,2c-.1.63-.25,1.38-.44,2.24-.35,1.61-.69,3.23-1,4.84q-1.17,5.55-2.24,10.23c-.7,3.12-1.28,6.07-1.72,8.84q-.95,5.94-1.54,10.88t-.91,9.3q-.33,4.35-.44,8.52c-.08,2.79-.11,5.6-.11,8.46,0,1.12.06,2.74.18,4.88s.31,4.5.55,7.07.57,5.18,1,7.81A73.4,73.4,0,0,0,973,171.1a22.52,22.52,0,0,0,2,5.3c.76,1.34,1.63,2,2.61,1.93q2.26-.14,4.8-3.29a44.26,44.26,0,0,0,5.09-8.5q2.57-5.34,5.17-12.47t5.05-15.21q2.46-8.1,4.69-16.7t4.1-17q1.88-8.37,3.3-16.11t2.31-14.15q.79-6.06,1.39-11.77l1.17-11.41q.58-5.7,1.28-11.44t1.73-11.72a31,31,0,0,1,1.09-4.37,20.2,20.2,0,0,1,1.8-4,11.35,11.35,0,0,1,2.31-2.88,3.37,3.37,0,0,1,2.56-1,4.92,4.92,0,0,1,4.47,3.17q1.17,2.87,1.17,9.3c0,3.15-.19,6.83-.55,11s-.83,8.59-1.39,13.19-1.19,9.27-1.87,14-1.37,9.2-2,13.42q-2.06,12.87-5.42,26.82t-7.51,27.45q-4.14,13.49-8.79,25.63a200.71,200.71,0,0,1-9.34,21.09,68.07,68.07,0,0,1-3.81,6.45,50.18,50.18,0,0,1-4.73,6.08,34.77,34.77,0,0,1-5.13,4.67,9.84,9.84,0,0,1-5,2.09c-3.37.25-6.19-1.14-8.46-4.21A37.8,37.8,0,0,1,961.42,184a121.59,121.59,0,0,1-3.3-18.33c-.75-6.89-1.3-14-1.64-21.41q-4.11,10.09-7.52,18.11T942,177.19q-2.64,5.12-5.94,11.1a115,115,0,0,1-7,11.18,54.4,54.4,0,0,1-7.59,8.72q-3.9,3.51-7.63,3.77a10,10,0,0,1-7.23-2.09A16.54,16.54,0,0,1,902,203.1a43.26,43.26,0,0,1-2.53-10.49,106.38,106.38,0,0,1-.77-13.22q0-8.26.81-17T901.54,144.8Z"/>
          <path class="cls-2" d="M1035.53,148.47a115,115,0,0,1,3.41-14.63,107.62,107.62,0,0,1,6-15.56,101.5,101.5,0,0,1,9-15.19,81.34,81.34,0,0,1,12.11-13.51,15,15,0,0,1,3.37-2,12.6,12.6,0,0,1,4.68-1.23,8.38,8.38,0,0,1,7.68-4.29,13.15,13.15,0,0,1,9.62,4.48,33.43,33.43,0,0,1,6.48,11.43c.53,1.54,1,3,1.5,4.51a43.86,43.86,0,0,1,1.17,4.65c.31,1.64.57,3.39.76,5.27a60.28,60.28,0,0,1,.3,6.35,81.44,81.44,0,0,1-1.83,16.83,102.29,102.29,0,0,1-5.2,17,113.83,113.83,0,0,1-8.15,16.31,100.75,100.75,0,0,1-10.65,14.58,34.7,34.7,0,0,1-8.74,7.32,25.84,25.84,0,0,1-10.72,3.34,18.81,18.81,0,0,1-9.78-1.38,16.68,16.68,0,0,1-6.88-5.94,28.89,28.89,0,0,1-4.1-9.89,58.84,58.84,0,0,1-1.35-13.18A96.65,96.65,0,0,1,1035.53,148.47Zm12.16.94c-.29,1.72-.5,3.34-.62,4.86s-.19,3-.19,4.39a35.1,35.1,0,0,0,.62,6.79,15.44,15.44,0,0,0,2,5.31,8.7,8.7,0,0,0,8.56,4.2,16.78,16.78,0,0,0,10.36-4.94,47.5,47.5,0,0,0,8.52-11,79.65,79.65,0,0,0,6.26-13.64,82.91,82.91,0,0,0,3.55-13.15c.44-2.49.81-4.83,1.13-7a42.11,42.11,0,0,0,.48-6,18.38,18.38,0,0,0-.7-5.13c-.46-1.58-1.06-3.37-1.79-5.35q-.66-1.8-1.32-3.78c-.44-1.31-.83-2.61-1.17-3.89a18.09,18.09,0,0,1-1.24,2.6,6.42,6.42,0,0,1-2,2,13.83,13.83,0,0,1-3.58,1.65,36.57,36.57,0,0,1-5.93,1.29,19,19,0,0,0-4.9,3.7,45,45,0,0,0-4.87,5.92,79.21,79.21,0,0,0-4.54,7.41,87.23,87.23,0,0,0-3.88,8.18c-1.14,2.79-2.15,5.53-3,8.22A49.56,49.56,0,0,0,1047.69,149.41Z"/>
          <path class="cls-2" d="M1115.51,173.56c.63-4.82,1.36-10.13,2.19-15.89s1.68-11.58,2.56-17.45,1.73-11.61,2.56-17.23,1.53-10.75,2.12-15.39c0-.67-.07-1.26-.07-1.77v-1.66c0-2.09.09-4.18.29-6.26a57.21,57.21,0,0,1,.8-5.74,14.73,14.73,0,0,1,1.79-5.14,3.55,3.55,0,0,1,3.18-1.25,5,5,0,0,1,3.4,1.25,8.17,8.17,0,0,1,2,3.1,15.83,15.83,0,0,1,1,4.34c.15,1.62.22,3.29.22,5,0,.93,0,2-.07,3.08s-.08,2-.08,2.68q2.06-2.86,4.35-5.85a41.06,41.06,0,0,1,4.9-5.31,25.66,25.66,0,0,1,5.48-3.82,12.16,12.16,0,0,1,6-1.36,10.15,10.15,0,0,1,2.45.36,21.56,21.56,0,0,1,2.45.84,22,22,0,0,1,3,1.37,14,14,0,0,1,3,2.3,20.65,20.65,0,0,1,4,6,16.89,16.89,0,0,1,1.64,7.19,12,12,0,0,1-.43,3,13.35,13.35,0,0,1-1.21,3,8.83,8.83,0,0,1-1.79,2.28,3.4,3.4,0,0,1-2.26.92,7.65,7.65,0,0,1-3-.77,8.41,8.41,0,0,1-3-2.12,8.25,8.25,0,0,1-1.06-1.62c-.36-.7-.71-1.39-1-2.1s-.61-1.35-.88-2a6.68,6.68,0,0,0-.62-1.2,4.55,4.55,0,0,0-.8-.15,8,8,0,0,0-.81-.05,11.47,11.47,0,0,0-7.08,2.5,34,34,0,0,0-6.28,6.24,67.2,67.2,0,0,0-5.38,8q-2.45,4.26-4.27,7.71-1.47,8.12-3.25,17.36t-3.55,19.45v2.51q0,3-.14,6.15a23.9,23.9,0,0,1-.88,5.62,8.64,8.64,0,0,1-2.3,2.81,6.5,6.5,0,0,1-3.48,1.43,4.39,4.39,0,0,1-4.6-2.32,12.75,12.75,0,0,1-1.54-6.45A18.46,18.46,0,0,1,1115.51,173.56Z"/>
          <path class="cls-2" d="M1200,51.87a39.92,39.92,0,0,1,1.17-6.5,14.33,14.33,0,0,1,2.15-4.78,3.51,3.51,0,0,1,3.47-1.56,8.44,8.44,0,0,1,2.59.86,14.42,14.42,0,0,1,2.7,1.8,10.51,10.51,0,0,1,2.15,2.5,5.6,5.6,0,0,1,.87,3,6.56,6.56,0,0,1-.22,1.59c-.14.59-.26,1.18-.36,1.75q-9.12,42.71-18.24,88.43c-.73,3.65-1.34,7.15-1.83,10.47s-.85,6.06-1.09,8.2v2.18q0,2.72-.29,6a33.8,33.8,0,0,1-1.1,6.11,16.14,16.14,0,0,1-2.22,4.9,5.12,5.12,0,0,1-3.69,2.32,5.22,5.22,0,0,1-3.43-.65,7.16,7.16,0,0,1-2.41-2.45,12,12,0,0,1-1.39-3.42,15,15,0,0,1-.43-3.54c0-1,.07-2.23.21-3.7s.33-3,.55-4.61.45-3.19.7-4.79.48-3,.73-4.19q9.41-48.17,18.83-93.29C1199.58,56.43,1199.78,54.24,1200,51.87Z"/>
          <path class="cls-2" d="M1214.61,143.09a79.65,79.65,0,0,1,2.52-9.55,67.66,67.66,0,0,1,3.9-9.4,61.65,61.65,0,0,1,5.54-9,53.79,53.79,0,0,1,7.51-8.2,64.23,64.23,0,0,1,6.16-5,46.87,46.87,0,0,1,6.6-4,37.69,37.69,0,0,1,6.74-2.54,23,23,0,0,1,6.67-.79,18.93,18.93,0,0,1,4.26.57,18.16,18.16,0,0,1,3.53,1.31c.49-1.8,1.79-6.65,3.9-14.4s4.7-18.43,7.76-31.79A7.25,7.25,0,0,1,1282,47.3a4.36,4.36,0,0,1,3.5-.82,17.35,17.35,0,0,1,2.84.71,7.51,7.51,0,0,1,2.47,1.42,7,7,0,0,1,1.75,2.36,8.42,8.42,0,0,1,.65,3.54q-7.31,28.38-14.63,59a63.51,63.51,0,0,0-1.24,7c-.39,2.93-.75,6-1.09,9.31s-.61,6.53-.8,9.73-.29,6-.29,8.26a40.2,40.2,0,0,1-.95,8.61,28.3,28.3,0,0,1-.91,3.23,6.71,6.71,0,0,1-1.27,2.23,5.52,5.52,0,0,1-2,1.42,11.39,11.39,0,0,1-3,.74,8.66,8.66,0,0,1-3.28-.05,3.23,3.23,0,0,1-1.75-1.08,3.48,3.48,0,0,1-.69-1.81c-.07-.71-.12-1.47-.14-2.28s-.08-1.66-.15-2.52a7.31,7.31,0,0,0-.62-2.43q-.87.72-2.4,1.92l-3.1,2.45c-1,.84-2,1.62-3,2.35s-1.6,1.25-2,1.57q-1.68,1.25-3.79,2.69t-4.56,2.78a42.2,42.2,0,0,1-5.1,2.35,23.54,23.54,0,0,1-5.36,1.35,15.56,15.56,0,0,1-6.38-.48,13,13,0,0,1-5.54-3.3,16.87,16.87,0,0,1-3.9-6.4,27.9,27.9,0,0,1-1.46-9.6c0-1.33.06-2.67.18-4A40.77,40.77,0,0,1,1214.61,143.09Zm12.62-1.52a22.63,22.63,0,0,0-.58,5,27.73,27.73,0,0,0,.36,4.61,9.6,9.6,0,0,0,1.35,3.67,6.55,6.55,0,0,0,2.62,2.33,7.84,7.84,0,0,0,4.27.54,9.72,9.72,0,0,0,3.13-.9,26.07,26.07,0,0,0,3.32-1.78q1.63-1,3.06-2.1c1-.72,1.76-1.36,2.44-1.91,1.85-1.53,3.56-3,5.14-4.43a38.43,38.43,0,0,0,4.27-4.51,29.28,29.28,0,0,0,5.61-11.64c.48-2.13.91-4.07,1.27-5.81s.69-3.45,1-5.11.56-3.35.8-5.07.49-3.64.73-5.73a4.56,4.56,0,0,0-1-.9,3.23,3.23,0,0,0-1.86-.44,21.48,21.48,0,0,0-6.41,1.06,38.22,38.22,0,0,0-7.18,3.12,44.11,44.11,0,0,0-7.21,5.08,48.52,48.52,0,0,0-6.56,6.85,46.48,46.48,0,0,0-5.29,8.4A39.28,39.28,0,0,0,1227.23,141.57Z"/>
        </g>
      </g>
      <g id="Title">
        <g>
          <path class="cls-3" d="M69.74,178.49a5.91,5.91,0,0,1-2.7-1,7.14,7.14,0,0,1-1.93-2,9.49,9.49,0,0,1-1.17-2.67,10.91,10.91,0,0,1-.4-2.91,14,14,0,0,1,.58-3.43q.59-2.18,1.5-4.87t2-5.67q1.09-3,2.12-5.71t1.75-5.1c.48-1.56.82-2.8,1-3.71s.44-2.23.73-3.65.62-3,1-4.64.73-3.45,1.1-5.31.74-3.73,1.13-5.63c-.69.16-1.52.31-2.52.44s-2.05.24-3.17.33a45.83,45.83,0,0,0-4.74.69c-1.56.31-3.15.66-4.78,1l-5.06,1.22q-2.62.65-5.62,1.31c-2.91.63-5.83,1.33-8.74,2.09a31.23,31.23,0,0,1-9.11,1,5,5,0,0,1-2.69-.92,9.16,9.16,0,0,0-2.77-1.3q-1.47,2.44-2.77,5.2c-.87,1.85-1.68,3.73-2.4,5.66s-1.39,3.83-2,5.69-1.09,3.63-1.53,5.26a25.64,25.64,0,0,0-.62,3.49c-.17,1.43-.33,2.88-.47,4.36s-.29,2.89-.44,4.24-.29,2.42-.44,3.21a5.81,5.81,0,0,1-.87,2.12,7.79,7.79,0,0,1-1.6,1.79A6.85,6.85,0,0,1,12,170.21a4.91,4.91,0,0,1-2.33.23,5.35,5.35,0,0,1-3.32-1.68,10.78,10.78,0,0,1-2-3.3,16.71,16.71,0,0,1-1.06-4.06A30.19,30.19,0,0,1,3,157.48a40.51,40.51,0,0,1,1.09-9.17,73.66,73.66,0,0,1,3-9.58,106.79,106.79,0,0,1,4.37-9.91q2.5-5,5.42-10.17c1.6-3.06,3.6-6.64,6-10.79s5-8.47,8-13,6.12-9.11,9.54-13.69A134,134,0,0,1,51,68.49a71.18,71.18,0,0,1,11.37-9.72A26.32,26.32,0,0,1,74,54.1q6-.74,10.1,1.43A16.09,16.09,0,0,1,90.53,62a31.52,31.52,0,0,1,3.39,10.3,79.85,79.85,0,0,1,1,12.8q0,6-.62,12.37T92.75,109.9q-.91,6.06-2,11.65t-1.93,10.06q-1.27,6-2.56,11.89c-.09.35-.28,1-.54,2.08s-.61,2.29-1,3.76-.88,3-1.39,4.72-1,3.34-1.53,4.95-1,3.1-1.46,4.45-.87,2.44-1.21,3.27l.08-.08c-.34,1.48-.71,3-1.1,4.49a15.34,15.34,0,0,1-1.6,4,7.49,7.49,0,0,1-2.63,2.7A6.41,6.41,0,0,1,69.74,178.49ZM73.46,71.42a15.93,15.93,0,0,0-6.53,2.13,38.48,38.48,0,0,0-6.38,4.59,58.42,58.42,0,0,0-6.09,6.25c-2,2.33-3.84,4.68-5.61,7s-3.44,4.73-5,7.08-3,4.48-4.23,6.43l-.76,1.25c-.32.52-.64,1.08-.95,1.7s-.62,1.25-.91,1.92-.54,1.26-.73,1.79l7.51,0a74.57,74.57,0,0,0,9.32-.72q5.25-.7,10.39-1.69t9.45-2c2.86-.7,5-1.25,6.49-1.62a28.82,28.82,0,0,0,.54-3.06c.17-1.27.33-2.7.48-4.27s.25-3.25.33-5,.11-3.59.11-5.45c0-1.51-.05-3.24-.15-5.18a24.34,24.34,0,0,0-.88-5.47,10.32,10.32,0,0,0-2.22-4.21A4.79,4.79,0,0,0,73.46,71.42Z"/>
          <path class="cls-3" d="M109,172.85q.95-6.32,2.19-13.95t2.55-15.53q1.32-7.89,2.56-15.57t2.12-14.11c0-.62-.08-1.17-.08-1.64v-1.53c0-1.93.1-3.85.29-5.78a53,53,0,0,1,.81-5.34,13.54,13.54,0,0,1,1.79-4.87,3.9,3.9,0,0,1,3.17-1.37,4.89,4.89,0,0,1,3.4,1,7.05,7.05,0,0,1,2,2.83,14.77,14.77,0,0,1,.95,4.11c.14,1.55.22,3.15.22,4.79,0,.89,0,1.88-.08,3s-.07,1.94-.07,2.57q2-2.76,4.35-5.72a45.12,45.12,0,0,1,4.89-5.37,29,29,0,0,1,5.48-4.07,12.94,12.94,0,0,1,6-1.74,10,10,0,0,1,2.44.23,16.91,16.91,0,0,1,2.45.72,18.89,18.89,0,0,1,3,1.25,12.22,12.22,0,0,1,3,2.27,20.27,20.27,0,0,1,4.05,6.18,18.81,18.81,0,0,1,1.65,7.67,13.66,13.66,0,0,1-.44,3.27,14.24,14.24,0,0,1-1.21,3.21,9,9,0,0,1-1.79,2.39,3.24,3.24,0,0,1-2.26.92,7.48,7.48,0,0,1-3-.88,8.71,8.71,0,0,1-3-2.25,8.33,8.33,0,0,1-1.05-1.69c-.37-.72-.71-1.45-1-2.17s-.61-1.4-.87-2a7.13,7.13,0,0,0-.63-1.23,7.64,7.64,0,0,0-.8-.15,7.77,7.77,0,0,0-.8,0,11.73,11.73,0,0,0-7.09,2.55,35.75,35.75,0,0,0-6.28,6.11,67.17,67.17,0,0,0-5.37,7.58c-1.63,2.66-3.06,5-4.27,7.15q-1.47,7.62-3.25,16.14t-3.54,17.73v2.34q0,2.81-.15,5.7a18.79,18.79,0,0,1-.88,5,5.82,5.82,0,0,1-2.3,2.11,5.65,5.65,0,0,1-3.46.57,5.79,5.79,0,0,1-4.6-3.08,12,12,0,0,1-1.54-6.09A14,14,0,0,1,109,172.85Z"/>
          <path class="cls-3" d="M172,150.5a91.81,91.81,0,0,1,3.4-13,94.63,94.63,0,0,1,6-14,103.58,103.58,0,0,1,9-14.09,95.25,95.25,0,0,1,12.11-13.24,16.43,16.43,0,0,1,3.36-2.13,13.6,13.6,0,0,1,4.68-1.45,9.1,9.1,0,0,1,7.69-4.71,12.09,12.09,0,0,1,9.62,4,32.15,32.15,0,0,1,6.48,11.57q.79,2.4,1.5,4.69A46.14,46.14,0,0,1,237,113c.31,1.72.57,3.56.77,5.54s.29,4.2.29,6.69a87.49,87.49,0,0,1-1.83,17.6,98.68,98.68,0,0,1-5.2,17.25,91.47,91.47,0,0,1-8.16,15.69,70.84,70.84,0,0,1-10.64,12.93,25.58,25.58,0,0,1-8.74,5.59,23.46,23.46,0,0,1-10.72,1.16,22.94,22.94,0,0,1-9.76-3.13,21.61,21.61,0,0,1-6.87-6.66,30.29,30.29,0,0,1-4.1-9.59,50.17,50.17,0,0,1-1.35-12A75.43,75.43,0,0,1,172,150.5Zm12.13,1.92c-.29,1.57-.5,3-.62,4.44s-.18,2.75-.18,4a30.63,30.63,0,0,0,.62,6.36,15.62,15.62,0,0,0,2,5.19,11.28,11.28,0,0,0,3.47,3.57,10.71,10.71,0,0,0,5.09,1.6,14.47,14.47,0,0,0,10.34-3.24,36.43,36.43,0,0,0,8.53-9.67,67.32,67.32,0,0,0,6.25-13,76.63,76.63,0,0,0,3.55-13.06c.44-2.5.82-4.87,1.14-7.09a45,45,0,0,0,.47-6.15,19.15,19.15,0,0,0-.69-5.25c-.47-1.62-1.06-3.44-1.8-5.45-.44-1.22-.87-2.49-1.31-3.82s-.83-2.63-1.17-3.91a19.67,19.67,0,0,1-1.25,2.63,6.57,6.57,0,0,1-2,2,13.9,13.9,0,0,1-3.59,1.66,34.52,34.52,0,0,1-5.92,1.28,19.48,19.48,0,0,0-4.91,3.58,47,47,0,0,0-4.86,5.62,75.85,75.85,0,0,0-4.53,6.92,79.89,79.89,0,0,0-3.88,7.52q-1.71,3.82-3,7.48A41.11,41.11,0,0,0,184.09,152.42Z"/>
          <path class="cls-3" d="M263.19,97.48a14.37,14.37,0,0,1,.84-3.11,9.27,9.27,0,0,1,1.18-2.11,5.44,5.44,0,0,1,1.13-1.16,1.78,1.78,0,0,1,.81-.36,7.93,7.93,0,0,1,1.9.24c.73.18,1.44.33,2.12.46s1.54.42,2.28.64c1.26,0,2.18.82,2.74,2.33a15.75,15.75,0,0,1,.84,5.46,23.14,23.14,0,0,1-.44,4.69q-2.49,14.28-4.54,24.75t-3.48,17.78q-1.43,7.31-2.19,11.9a46.39,46.39,0,0,0-.77,7,39.45,39.45,0,0,0,.4,5.32,34,34,0,0,0,1.21,5.55,15.9,15.9,0,0,0,2,4.38,4,4,0,0,0,3,1.9c2.05.13,4.13-.71,6.23-2.57a37.56,37.56,0,0,0,6-6.92,67.76,67.76,0,0,0,5.16-9c1.54-3.2,2.8-6.07,3.77-8.58l1.91-5.15a101.31,101.31,0,0,0,3.26-11.13q1.5-6.31,2.64-12.72T303.19,115q.81-5.67,1.24-9.06,1-7.8,1.91-15.61c.39-3,1-5,1.79-6.19a4.78,4.78,0,0,1,4.07-1.82,8.12,8.12,0,0,1,3.3.56A5.44,5.44,0,0,1,318,85.13a12.65,12.65,0,0,1,1.54,4.4,41,41,0,0,1,.51,7.16,96.94,96.94,0,0,1-1,12.51q-1,7.41-2.16,14.85-.66,4.36-1.35,9.26c-.47,3.26-.88,6.52-1.25,9.77s-.66,6.36-.88,9.3-.33,5.58-.33,7.94q0,6,.26,12t.25,12.74c0,2.05,0,3.85-.11,5.42a26.09,26.09,0,0,1-.33,3.51,20.34,20.34,0,0,1-2.09,6.69q-1.28,2.15-4.36,1.91a6.75,6.75,0,0,1-3.37-1,6,6,0,0,1-1.94-2.19,8.82,8.82,0,0,1-.91-2.92c-.15-1.06-.25-2.14-.3-3.23q-.4-11-.8-22.07l-.66.31q-2.42,4.77-5.28,10.63a79.78,79.78,0,0,1-6.3,10.79,36.56,36.56,0,0,1-7.51,8.1,12.24,12.24,0,0,1-8.82,2.73,6.25,6.25,0,0,1-2.45-1,27.13,27.13,0,0,1-3.12-2.13,29.85,29.85,0,0,1-3.07-2.8,21.34,21.34,0,0,1-2.35-2.83,40.37,40.37,0,0,1-5.71-13.3,64.43,64.43,0,0,1-1.68-14.59,77.77,77.77,0,0,1,.44-8.22q.44-4.11,1-7.93t1.29-7.22q.69-3.37,1.13-6.05,1.4-8.35,2.49-14.74t1.94-11.22q.84-4.83,1.43-8.27T263.19,97.48Z"/>
          <path class="cls-3" d="M385.67,104.28a9.78,9.78,0,0,0-5.5,2.08,37.69,37.69,0,0,0-6.09,5.51q-3.15,3.47-6.42,7.81t-6.41,9c-1.08,1.53-2.11,2.93-3.08,4.17a12.43,12.43,0,0,1-2.94,2.83,76.27,76.27,0,0,0-2.16,7.32c-.76,3-1.5,6.33-2.24,9.9s-1.43,7.24-2.09,11-1.21,7.2-1.65,10.4c-.24,1.69-.44,3.33-.58,4.94s-.32,3.31-.52,5.12-.42,3.74-.69,5.82-.6,4.4-1,7a10.19,10.19,0,0,1-1.18,3.61,7,7,0,0,1-1.68,2,3.87,3.87,0,0,1-1.69.8,6.18,6.18,0,0,1-1.24.09,6,6,0,0,1-4.55-2.46q-1.75-2.28-1.76-8.5c0-1.11,0-2.29.07-3.52a35.26,35.26,0,0,1,.44-4.11q1.62-11.28,3.12-20.35t3-16.85Q340.43,140,342,133.1t3.22-14q1.65-7.07,3.45-14.65t3.85-16.85a5.88,5.88,0,0,1,2.31-3.52,6.76,6.76,0,0,1,4-1.49,5.67,5.67,0,0,1,4.58,2,8.8,8.8,0,0,1,1.8,6,10.58,10.58,0,0,1-.15,1.35,20.64,20.64,0,0,1-.44,2.09q-1.62,6.41-3.23,12.76c2.06-2.7,4.19-5.41,6.42-8.13a77.12,77.12,0,0,1,6.86-7.42,39.85,39.85,0,0,1,7.08-5.43,14.13,14.13,0,0,1,7-2.18c4.7-.09,8.36,2,11,6.25s4,10.92,4,20a113.85,113.85,0,0,1-1.58,17.69q-1.58,9.9-4,21.19T393,172.29q-2.75,12.32-5.1,25-.66,3.45-1.35,5.77a13.54,13.54,0,0,1-1.65,3.7,5.3,5.3,0,0,1-2.24,1.91,6.87,6.87,0,0,1-3.12.44,4.58,4.58,0,0,1-4-2,11.8,11.8,0,0,1-1.1-5.8,70.45,70.45,0,0,1,.62-8.42q.63-5,1.76-10.9t2.64-12.69c1-4.51,2.09-9.1,3.27-13.78q1.4-5.67,2.75-11.35t2.42-11q1.06-5.34,1.72-10.19a67,67,0,0,0,.66-9,21.14,21.14,0,0,0-1-6.78C388.71,105.23,387.48,104.27,385.67,104.28Z"/>
          <path class="cls-3" d="M415.75,164.51q1-6.81,2.53-13.6a126.43,126.43,0,0,1,3.93-13.5,108,108,0,0,1,5.58-13.1A85.34,85.34,0,0,1,435.35,112a92.84,92.84,0,0,1,6.2-7.76,56.41,56.41,0,0,1,6.64-6.39A35,35,0,0,1,455,93.52a15.72,15.72,0,0,1,6.72-1.68,12.16,12.16,0,0,1,4.29.67,14.07,14.07,0,0,1,3.56,2c.49-3,1.8-11.16,3.93-24.44s4.74-31.79,7.82-55.61a20,20,0,0,1,2.28-5.95A4.37,4.37,0,0,1,487.1,6a8.87,8.87,0,0,1,2.86.34,5.07,5.07,0,0,1,2.5,1.74,10.07,10.07,0,0,1,1.76,3.66,23.22,23.22,0,0,1,.66,6.13q-7.38,52.79-14.76,105-.66,4.43-1.24,11.9t-1.1,15.79c-.35,5.55-.62,11-.81,16.44s-.3,10.06-.3,14a109.18,109.18,0,0,1-.95,14.4q-.44,3.1-.92,5.24a11.72,11.72,0,0,1-1.28,3.46,4.56,4.56,0,0,1-2,1.87,6.83,6.83,0,0,1-3.05.47,6,6,0,0,1-3.3-.9,5,5,0,0,1-1.76-2.2,9.16,9.16,0,0,1-.7-3.13c-.08-1.16-.12-2.41-.15-3.75s-.07-2.72-.15-4.14a20.07,20.07,0,0,0-.62-4.09c-.59.67-1.39,1.55-2.42,2.63s-2.07,2.19-3.12,3.32-2.05,2.16-3,3.11-1.61,1.64-2.05,2.05q-1.69,1.6-3.82,3.38a36.49,36.49,0,0,1-4.59,3.27,25.19,25.19,0,0,1-5.13,2.4,14.59,14.59,0,0,1-5.4.77,12.61,12.61,0,0,1-6.42-2.21,18.86,18.86,0,0,1-5.58-6.09,35.48,35.48,0,0,1-3.92-10.1,60.56,60.56,0,0,1-1.47-14.15c0-1.94.06-3.85.18-5.74S415.41,166.86,415.75,164.51Zm12.7-.69a47.14,47.14,0,0,0-.59,7.36,60.61,60.61,0,0,0,.37,6.94,21.47,21.47,0,0,0,1.35,5.71,10.77,10.77,0,0,0,2.65,4,6.4,6.4,0,0,0,4.29,1.62,6.54,6.54,0,0,0,3.16-.78,19.56,19.56,0,0,0,3.34-2.12,35.18,35.18,0,0,0,3.08-2.72c.95-.95,1.77-1.81,2.46-2.56q2.79-3.12,5.17-6.15a45.41,45.41,0,0,0,4.3-6.6,49.08,49.08,0,0,0,3.34-8,66.49,66.49,0,0,0,2.31-10.24q.74-5.16,1.28-9.43t1-8.33q.45-4.08.81-8.35c.25-2.85.49-6,.74-9.45a6.89,6.89,0,0,0-1-1.49,2.38,2.38,0,0,0-1.88-.71,14.81,14.81,0,0,0-6.46,1.75,34.58,34.58,0,0,0-7.23,4.95,54.1,54.1,0,0,0-7.26,7.8,73.7,73.7,0,0,0-6.61,10.25,79.81,79.81,0,0,0-5.32,12.37A75.93,75.93,0,0,0,428.45,163.82Z"/>
          <path class="cls-3" d="M605,191.92q2.79-22.23,6.28-44.89t6.79-44.93q1.4-9.27,2.46-16.85c.72-5,1.31-9.64,1.81-13.76s.85-7.85,1.1-11.21.36-6.47.36-9.33V49.14c0-.67,0-1.5-.07-2.49a9.94,9.94,0,0,0-3.27,1.49c-1.69,1-3.67,2.3-6,3.92s-4.68,3.44-7.2,5.47-4.86,4.07-7,6.13l-4.3,4a28.07,28.07,0,0,1-3,2.49,8.85,8.85,0,0,1-2.28,1.22,6.88,6.88,0,0,1-2.13.34q-2.26,0-3.93-3.18A18.07,18.07,0,0,1,583,60.3a35.26,35.26,0,0,1,.33-5.15,17.38,17.38,0,0,1,1-3.95,14.07,14.07,0,0,1,1.87-3.3,27.88,27.88,0,0,1,2.87-3.17Q607.7,26.9,626.73,18.52a93.42,93.42,0,0,1,38.21-8.29c1,0,2.25,0,3.67.15s2.88.26,4.37.49a34.61,34.61,0,0,1,4.37,1,22.12,22.12,0,0,1,3.75,1.43A7.78,7.78,0,0,1,684,17.18a16.11,16.11,0,0,1,1.25,6.31c0,1.79-.09,3.53-.26,5.23a19.07,19.07,0,0,1-.92,4.42,8.36,8.36,0,0,1-1.72,3,3.42,3.42,0,0,1-2.61,1.13q-2.65-.56-6.06-1.37a29.21,29.21,0,0,0-6.87-.83q-6.92,0-13.78.58A47.77,47.77,0,0,0,639,39.23a2.08,2.08,0,0,0-.47,1.41c-.08.76-.14,1.72-.19,2.88q-.23,7.26-.66,12.77t-1.21,11q-.78,5.51-1.88,11.89T632,94.5q-1.47,8.94-3.41,21.35t-4.3,30q-1.77,13-3.53,26-1.24,9-1.94,16.17t-1.22,14.15a7.47,7.47,0,0,1-2.24,4.28,6.11,6.11,0,0,1-4.59,2,3.56,3.56,0,0,1-2.79-1.56,12.76,12.76,0,0,1-2.06-4,24.1,24.1,0,0,1-1.1-5.31A21.64,21.64,0,0,1,605,191.92Z"/>
          <path class="cls-3" d="M719.23,220.81q-4.56.08-6.25-3.52c-1.12-2.39-1.69-5.68-1.69-9.87q0-3.34.37-7.23c.25-2.59.56-5.27,1-8q1-7.1,2.31-14.13t2.57-14.19q1.29-7.16,2.5-14.31t2.17-14.37c0-.45.07-1,.07-1.74a7,7,0,0,0-.51-2.94,1.65,1.65,0,0,0-1.55-1.06,6.52,6.52,0,0,0-3.49,1.21,14,14,0,0,0-3.12,2.68,118.7,118.7,0,0,0-8.63,11.94,123.33,123.33,0,0,0-6.8,12.35q-3.07,6.43-5.84,13.76t-5.76,16.06q-2.58,8.73-3.82,14.85c-.84,4.07-1.61,7.37-2.32,9.87a16.09,16.09,0,0,1-2.39,5.45,4.75,4.75,0,0,1-4,1.71,4.22,4.22,0,0,1-4.15-3.07,22.32,22.32,0,0,1-1.22-8.05,63.56,63.56,0,0,1,.67-8.73q12.12-88.8,24.24-177.36a28.25,28.25,0,0,1,.73-3.48,16.36,16.36,0,0,1,1.4-3.47,10.06,10.06,0,0,1,2.09-2.66,4,4,0,0,1,2.76-1,17.6,17.6,0,0,1,2.5.23,7.08,7.08,0,0,1,2.38.83,4.7,4.7,0,0,1,1.77,2,7.78,7.78,0,0,1,.7,3.49c0,.35,0,1.09-.15,2.2s-.25,2.39-.44,3.81q-4,29-8.49,60.47T689.7,148.1A193.15,193.15,0,0,1,699,129.65a98.31,98.31,0,0,1,10-14.4,45.62,45.62,0,0,1,10.58-9.43,21.16,21.16,0,0,1,11.35-3.38q3.75,0,5.8,4.34a25.69,25.69,0,0,1,2.06,11,40.84,40.84,0,0,1-.44,6q-.89,6.12-2,12.06t-2.27,11.94q-1.19,6-2.35,12.21t-2.06,12.76q-1.17,8.41-1.62,16t-.58,12.09a71.2,71.2,0,0,1-.67,7.48,32,32,0,0,1-1.5,6.36,13.54,13.54,0,0,1-2.5,4.45A4.72,4.72,0,0,1,719.23,220.81Z"/>
          <path class="cls-3" d="M750.23,161.34a24.9,24.9,0,0,1,1.69-9.71c1.12-2.66,2.62-4.44,4.48-5.34q.81-2.92,2.49-7.91t4.19-10.82q2.49-5.84,5.69-11.73a72.2,72.2,0,0,1,7.05-10.69,37.87,37.87,0,0,1,8.3-7.81,16.25,16.25,0,0,1,9.44-3A14.47,14.47,0,0,1,801,96.24a15.3,15.3,0,0,1,5.21,5.13,24.93,24.93,0,0,1,3.08,7.79,43.41,43.41,0,0,1,1,9.73,52.75,52.75,0,0,1-.66,8.49,41,41,0,0,1-3.82,12.83,43.63,43.63,0,0,1-6.57,9.69,39.9,39.9,0,0,1-8.22,7,63.3,63.3,0,0,1-8.89,4.72,57.06,57.06,0,0,1-8.56,3c-2.74.69-5.11,1.24-7.12,1.61a45.94,45.94,0,0,0-1.14,6,54.37,54.37,0,0,0-.48,7.09c0,5.12,1.13,9.08,3.38,11.85a11,11,0,0,0,9.33,4,16.51,16.51,0,0,0,6.61-1.53,30.1,30.1,0,0,0,6-3.7,50.92,50.92,0,0,0,5.33-4.85Q798,182.51,800,180a55.84,55.84,0,0,1,5-5.41q2.38-2.2,4.22-2.24a2.15,2.15,0,0,1,2.35,1.58,11.43,11.43,0,0,1,.52,3.45c0,.69,0,1.37,0,2s-.06,1.2-.11,1.63a34.2,34.2,0,0,1-1.47,6.83,23.41,23.41,0,0,1-2.79,5.95q-7.63,10.93-15.68,15.79a34.69,34.69,0,0,1-17.14,5.1,25.89,25.89,0,0,1-4.15-.28,18.73,18.73,0,0,1-5-1.46,19.61,19.61,0,0,1-5.07-3.32,20.47,20.47,0,0,1-4.44-5.87,36.5,36.5,0,0,1-3.16-9.1,61,61,0,0,1-1.21-13.13,115.72,115.72,0,0,1,1-13.95,3.28,3.28,0,0,1-1.8-1.78A9.36,9.36,0,0,1,750.23,161.34Zm46-36.92a5.36,5.36,0,0,0,.15-1.18v-1.18a8.21,8.21,0,0,0-1.47-5.32,4.43,4.43,0,0,0-3.52-1.77q-3.24,0-6.36,3a37.4,37.4,0,0,0-5.87,7.59,69.3,69.3,0,0,0-4.89,9.79,87.05,87.05,0,0,0-3.3,9.47,43,43,0,0,0,9.69-2.65,29.24,29.24,0,0,0,7.68-4.54,23.82,23.82,0,0,0,5.29-6.08A19.62,19.62,0,0,0,796.2,124.42Z"/>
          <path class="cls-3" d="M904.54,150.8q1.62-11.4,4.22-23.76t5.47-25.12q2.87-12.76,5.65-25.87T924.64,50q.52-3.18.88-5.88c.25-1.79.49-3.71.74-5.76a11.7,11.7,0,0,1,2.38-4.8A4.09,4.09,0,0,1,931.91,32a6.18,6.18,0,0,1,3,1,7.83,7.83,0,0,1,2.49,2.89,18.24,18.24,0,0,1,1.69,4.91,34.86,34.86,0,0,1,.62,7,71.76,71.76,0,0,1-.8,10q-2.87,12.09-5.8,23.81t-5.68,23q-2.76,11.31-5.1,22.44t-4,22.08c-.1.58-.3,1.84-.59,3.79s-.6,4.29-.92,7-.6,5.66-.84,8.77-.37,6.11-.37,9c0,2,.08,3.87.22,5.64a26.93,26.93,0,0,0,.74,4.62,7.92,7.92,0,0,0,1.39,3,2.55,2.55,0,0,0,2.2,1q2.79-.13,6.82-5.2a98,98,0,0,0,8.73-13.58q4.69-8.5,9.64-19.73T955,129.69q4.69-12.61,8.73-25.78t6.82-25.84a5.05,5.05,0,0,1,1.61-2.87,4.19,4.19,0,0,1,2.49-.58,5.94,5.94,0,0,1,4.8,2.94,12.49,12.49,0,0,1,1.94,7.22,14,14,0,0,1-.14,2c-.1.63-.25,1.38-.44,2.24-.35,1.61-.69,3.23-1,4.84q-1.17,5.55-2.24,10.23c-.7,3.12-1.28,6.07-1.72,8.84q-.95,5.94-1.54,10.88t-.91,9.3q-.33,4.35-.44,8.52c-.08,2.78-.11,5.6-.11,8.46,0,1.12.06,2.74.18,4.88s.31,4.5.55,7.07.58,5.18,1,7.81A73.4,73.4,0,0,0,976,177.1a22.35,22.35,0,0,0,2,5.3c.76,1.34,1.63,2,2.61,1.93q2.26-.14,4.8-3.29a44.26,44.26,0,0,0,5.09-8.5c1.71-3.56,3.43-7.73,5.17-12.47s3.42-9.82,5.05-15.21,3.2-11,4.69-16.7,2.86-11.39,4.1-17,2.35-11,3.3-16.11,1.72-9.88,2.31-14.15q.81-6.06,1.39-11.77l1.17-11.41q.58-5.7,1.28-11.44t1.73-11.72a31,31,0,0,1,1.09-4.37,20.2,20.2,0,0,1,1.8-4,11.35,11.35,0,0,1,2.31-2.88,3.38,3.38,0,0,1,2.56-1,4.92,4.92,0,0,1,4.47,3.17q1.17,2.87,1.17,9.3,0,4.74-.55,11T1032.13,59q-.84,6.9-1.87,14t-2,13.42q-2.06,12.87-5.42,26.82t-7.51,27.45q-4.14,13.49-8.79,25.63a200.71,200.71,0,0,1-9.34,21.09,70.27,70.27,0,0,1-3.81,6.45,50.18,50.18,0,0,1-4.73,6.08,34.77,34.77,0,0,1-5.13,4.67,9.84,9.84,0,0,1-5,2.09c-3.37.25-6.19-1.14-8.46-4.21A37.8,37.8,0,0,1,964.42,190a121.59,121.59,0,0,1-3.3-18.33c-.75-6.89-1.3-14-1.64-21.41q-4.11,10.09-7.52,18.11T945,183.19q-2.64,5.12-5.94,11.1a115,115,0,0,1-7,11.18,54.4,54.4,0,0,1-7.59,8.72q-3.9,3.51-7.63,3.77a10,10,0,0,1-7.23-2.09A16.54,16.54,0,0,1,905,209.1a43.26,43.26,0,0,1-2.53-10.49,106.38,106.38,0,0,1-.77-13.22q0-8.26.81-17T904.54,150.8Z"/>
          <path class="cls-3" d="M1038.53,154.47a115,115,0,0,1,3.41-14.63,107.62,107.62,0,0,1,6-15.56,101.5,101.5,0,0,1,9-15.19,81.34,81.34,0,0,1,12.11-13.51,15.2,15.2,0,0,1,3.37-2,12.6,12.6,0,0,1,4.68-1.23,8.38,8.38,0,0,1,7.68-4.29,13.15,13.15,0,0,1,9.62,4.48,33.43,33.43,0,0,1,6.48,11.43c.53,1.54,1,3,1.5,4.51a43.86,43.86,0,0,1,1.17,4.65c.31,1.64.57,3.39.76,5.27a60.28,60.28,0,0,1,.3,6.35,80.76,80.76,0,0,1-1.83,16.83,102.29,102.29,0,0,1-5.2,17,113.32,113.32,0,0,1-8.15,16.31,101.51,101.51,0,0,1-10.65,14.58,34.7,34.7,0,0,1-8.74,7.32,25.84,25.84,0,0,1-10.72,3.34,18.81,18.81,0,0,1-9.78-1.38,16.74,16.74,0,0,1-6.88-5.94,28.89,28.89,0,0,1-4.1-9.89,58.84,58.84,0,0,1-1.35-13.18A96.65,96.65,0,0,1,1038.53,154.47Zm12.16.94c-.3,1.72-.5,3.34-.62,4.86s-.19,3-.19,4.39a35.17,35.17,0,0,0,.62,6.79,15.52,15.52,0,0,0,2,5.31,8.7,8.7,0,0,0,8.56,4.2,16.78,16.78,0,0,0,10.36-4.94,47.5,47.5,0,0,0,8.52-11,79.65,79.65,0,0,0,6.26-13.64,83.2,83.2,0,0,0,3.55-13.15c.44-2.49.81-4.83,1.13-7a42.11,42.11,0,0,0,.48-6.05,18,18,0,0,0-.7-5.13c-.46-1.58-1.06-3.37-1.79-5.35q-.66-1.8-1.32-3.78c-.44-1.31-.83-2.61-1.17-3.89a18.09,18.09,0,0,1-1.24,2.6,6.42,6.42,0,0,1-2,2,13.68,13.68,0,0,1-3.58,1.65,36.33,36.33,0,0,1-5.93,1.29,18.79,18.79,0,0,0-4.9,3.7,45,45,0,0,0-4.87,5.92,77.14,77.14,0,0,0-4.54,7.41,87.23,87.23,0,0,0-3.88,8.18c-1.15,2.79-2.14,5.53-3,8.22A49.56,49.56,0,0,0,1050.69,155.41Z"/>
          <path class="cls-3" d="M1118.51,179.56c.63-4.82,1.36-10.13,2.19-15.89s1.68-11.59,2.56-17.45,1.73-11.61,2.56-17.23,1.54-10.75,2.12-15.39c0-.67-.07-1.26-.07-1.77v-1.66c0-2.09.09-4.18.29-6.26a57.21,57.21,0,0,1,.8-5.74,14.73,14.73,0,0,1,1.79-5.14,3.55,3.55,0,0,1,3.18-1.25,5,5,0,0,1,3.4,1.25,8.25,8.25,0,0,1,2,3.1,15.83,15.83,0,0,1,1,4.34c.15,1.62.22,3.3.22,5,0,.93,0,2-.07,3.08s-.07,2-.08,2.68q2.06-2.86,4.35-5.85a41.06,41.06,0,0,1,4.9-5.31,25.66,25.66,0,0,1,5.48-3.82,12.16,12.16,0,0,1,6-1.36,10.15,10.15,0,0,1,2.45.36,21.56,21.56,0,0,1,2.45.84,22,22,0,0,1,3,1.37,14,14,0,0,1,3,2.3,20.65,20.65,0,0,1,4,6,16.75,16.75,0,0,1,1.64,7.19,12,12,0,0,1-.43,3,13.35,13.35,0,0,1-1.21,3,8.46,8.46,0,0,1-1.79,2.28,3.4,3.4,0,0,1-2.26.92,7.65,7.65,0,0,1-3-.77,7.59,7.59,0,0,1-4-3.74c-.36-.69-.7-1.4-1-2.1s-.61-1.35-.88-2a6.68,6.68,0,0,0-.62-1.2,4.55,4.55,0,0,0-.8-.15,8,8,0,0,0-.81-.05,11.47,11.47,0,0,0-7.08,2.5,34,34,0,0,0-6.28,6.24,67.2,67.2,0,0,0-5.38,8q-2.45,4.26-4.27,7.71-1.47,8.12-3.25,17.36t-3.55,19.45v2.51q0,3-.14,6.15a23.9,23.9,0,0,1-.88,5.62,8.64,8.64,0,0,1-2.3,2.81,6.5,6.5,0,0,1-3.48,1.43,4.39,4.39,0,0,1-4.6-2.32,12.75,12.75,0,0,1-1.54-6.45A18.46,18.46,0,0,1,1118.51,179.56Z"/>
          <path class="cls-3" d="M1203,57.87a39.92,39.92,0,0,1,1.17-6.5,14.33,14.33,0,0,1,2.15-4.78,3.51,3.51,0,0,1,3.47-1.56,8.44,8.44,0,0,1,2.59.86,14.42,14.42,0,0,1,2.7,1.8,10.51,10.51,0,0,1,2.15,2.5,5.6,5.6,0,0,1,.87,3,6.5,6.5,0,0,1-.22,1.59c-.14.59-.26,1.18-.36,1.75q-9.12,42.71-18.24,88.43c-.73,3.65-1.34,7.15-1.83,10.47s-.85,6.06-1.09,8.2v2.18q0,2.72-.29,6a33.8,33.8,0,0,1-1.1,6.11,16.14,16.14,0,0,1-2.22,4.9,5.12,5.12,0,0,1-3.69,2.32,5.22,5.22,0,0,1-3.43-.65,7.16,7.16,0,0,1-2.41-2.45,11.71,11.71,0,0,1-1.39-3.42,15.54,15.54,0,0,1-.43-3.54c0-1,.07-2.23.21-3.7s.33-3,.55-4.61.45-3.19.7-4.79.48-3,.73-4.19q9.41-48.17,18.83-93.29C1202.58,62.43,1202.78,60.24,1203,57.87Z"/>
          <path class="cls-3" d="M1217.61,149.09a79.65,79.65,0,0,1,2.52-9.55,67.66,67.66,0,0,1,3.9-9.4,61.65,61.65,0,0,1,5.54-9,53.79,53.79,0,0,1,7.51-8.2,64.23,64.23,0,0,1,6.16-5,47.45,47.45,0,0,1,6.6-4,37.69,37.69,0,0,1,6.74-2.54,23,23,0,0,1,6.67-.79,18.93,18.93,0,0,1,4.26.57,18.16,18.16,0,0,1,3.53,1.31c.49-1.8,1.79-6.65,3.9-14.4s4.7-18.43,7.76-31.79A7.31,7.31,0,0,1,1285,53.3a4.36,4.36,0,0,1,3.5-.82,17.1,17.1,0,0,1,2.84.71,7.51,7.51,0,0,1,2.47,1.42,6.87,6.87,0,0,1,1.75,2.36,8.42,8.42,0,0,1,.65,3.54q-7.31,28.38-14.63,59a63.51,63.51,0,0,0-1.24,7c-.39,2.93-.75,6-1.09,9.31s-.61,6.53-.8,9.73-.29,6-.29,8.26a40.2,40.2,0,0,1-.95,8.61,28.3,28.3,0,0,1-.91,3.23,6.71,6.71,0,0,1-1.27,2.23,5.52,5.52,0,0,1-2,1.42,11.8,11.8,0,0,1-3,.74,8.66,8.66,0,0,1-3.28-.05,3.25,3.25,0,0,1-1.75-1.08,3.48,3.48,0,0,1-.69-1.81c-.07-.71-.12-1.47-.14-2.28s-.08-1.66-.15-2.52a7.25,7.25,0,0,0-.62-2.43q-.87.72-2.4,1.92c-1,.8-2.06,1.61-3.1,2.45s-2,1.62-3,2.35-1.6,1.25-2,1.57q-1.68,1.25-3.79,2.69t-4.56,2.78a40.72,40.72,0,0,1-5.1,2.35,23.54,23.54,0,0,1-5.36,1.35,15.56,15.56,0,0,1-6.38-.48,13,13,0,0,1-5.54-3.3,16.87,16.87,0,0,1-3.9-6.4,27.9,27.9,0,0,1-1.46-9.6c0-1.33.06-2.67.18-4A40.77,40.77,0,0,1,1217.61,149.09Zm12.62-1.52a22.63,22.63,0,0,0-.58,5,27.73,27.73,0,0,0,.36,4.61,9.6,9.6,0,0,0,1.35,3.67,6.55,6.55,0,0,0,2.62,2.33,7.84,7.84,0,0,0,4.27.54,9.72,9.72,0,0,0,3.13-.9,26.07,26.07,0,0,0,3.32-1.78c1.09-.68,2.12-1.38,3.06-2.1s1.76-1.36,2.44-1.91c1.85-1.53,3.56-3,5.14-4.43a38.43,38.43,0,0,0,4.27-4.51,29.28,29.28,0,0,0,5.61-11.64c.48-2.13.91-4.07,1.27-5.81s.69-3.45,1-5.11.56-3.35.8-5.07.49-3.64.73-5.73a4.56,4.56,0,0,0-1-.9,3.23,3.23,0,0,0-1.86-.44,21.48,21.48,0,0,0-6.41,1.06,38.22,38.22,0,0,0-7.18,3.12,44.11,44.11,0,0,0-7.21,5.08,49,49,0,0,0-6.56,6.84,46.91,46.91,0,0,0-5.29,8.41A39.28,39.28,0,0,0,1230.23,147.57Z"/>
        </g>
      </g>
</svg>
