<svg id="Layer_1" data-name="Layer 1" xmlns="http://www.w3.org/2000/svg" width="609.61" height="319.93" viewBox="0 0 609.61 319.93">
  <defs>
    <style>
      .cls-1 {
        fill: #fff;
        stroke: #000;
        stroke-linecap: round;
        stroke-linejoin: round;
        stroke-width: 0.25px;
      }
    </style>
  </defs>
  <g id="SouthAmerica">
    <path class="cls-1" d="M183.75,272c-.2,0-.39,0-.48.16A1,1,0,0,1,183.75,272Z" transform="translate(-2.51 -28.23)"/>
    <path class="cls-1" d="M199.51,234.5c.63-7.3-14.1-13.76-19.54-11.28,1.39-2-.93.19-1.06,1.24-.06-.5,1.24-3.82.14-2.33.75-2.52-3.13-2.48-5.29-4.4-1.73,0-1.91,3.17-3.16,2.47-3.12,4.79,1.87-1.77.79-3.16-4.25-.88-4.6.57-4.6,2.72-.55-3.88-.14.84-4,.44,12.72-9-2.33-21.19-11.61-19.14,2-6.79-6.62-4.08-5-5.19,2-1.89-1.75-4.11-2-2.47-1.59-2.25-6.54-2.11-11.89-2.34-.37-2.67-3-1.66-3.56-4-1.89,1.23,1.89,1.52-2,2.34-3.2-.09.53,7.49-2.51,4.12,0-1.88-.11-4.56,1.45-5.91-2.75,0-5.32,9.61-4,4.78-.49-3.09,3.86-3.79,3.7-5.77-6.42,2-9.63,5.18-12,10.72.31-.9-1.65-2.7-.53-.55.25,1.88-1.63.84-1.32,2.33,2.08,1.93-.24,6.89,1,7.57-.64,4.22-11.79,13.22-5.55,15.57-10.41,19,27.7,32.15,24.3,55.39,0,15.15.94,29.62,3.43,42.07,1.78,3,1.24-1.36.32-2.53.41.39,3.15-1.37,1.8.06-.48,1,1.26.44,1,1.78-.49-1.21-1.24-.13-.13.14-.82.42.14,7.13,1.08,4.38.92.94-1.12,2.12.11,4.42.34-1.71.81,2.24-.79-1-.9-.45-2.68-.49-1.19.69-3.73,1.75,3.86,0,1.84,3.71,5.7.7-2.51-1.16,2,1.51-2.14-1.54,1,3.82.39,1,.37.16,1.15,2.51,0,2.61,1.09.48,2,1,1.06.69,2.42,2.71,2.5,3.74,4.09,5.36.34,1.91.42-1.92,2.91-.41-3-.07-1.19,1.74-2.64,1.23,3,1.58,0,.31,2.64-1.1,1.18.56.22,2.3-.27,1.24-2-.11,2.08,2.42,2.12.83-1.71-1.95.14-3.16,2-2.62,1.45.24-.41-1.42-2.38-1.51,1.55.11.69-1.59-.13-1.24.5-4.49,1.81-.66,1.58-4.39,6.9-6-8.52-6.48.13-10.32.11-1.89-1.44-8.05.93-5.08,3.66-2.47-4.2-.35-3.17-5.22,3.59,2.05,5.65.68,4-3.17-1.67-2.47,8.4.6,8.71-5-1.46-2.85-10.41-22.44-1.19-15.55-11.16.74,5.48,22.16,9.64.15-.43-2.16.4-1.44,1.33-1-4.1,9.77,1.37-1.28,2.64-4.8,1.08-3.95-2.33-9.57,5.67-10.59,9-2.74,13-15.45,10.7-24.75C193.19,245.21,199.05,241.47,199.51,234.5Z" transform="translate(-2.51 -28.23)"/>
    <path class="cls-1" d="M184.06,272c-.08-.11-.21,0-.31,0Z" transform="translate(-2.51 -28.23)"/>
    <path class="cls-1" d="M182.61,272.3c.13,0,.26-.13.4-.27C182.87,271.89,182.48,272,182.61,272.3Z" transform="translate(-2.51 -28.23)"/>
    <path class="cls-1" d="M154.62,310.52h.13C154.75,310.38,154.75,310.38,154.62,310.52Z" transform="translate(-2.51 -28.23)"/>
    <path class="cls-1" d="M155,310.93c0-.27-.26-.41-.39-.27C154.75,310.79,154.88,310.93,155,310.93Z" transform="translate(-2.51 -28.23)"/>
    <path class="cls-1" d="M162.28,347.08c-6.51-1.81-16.45-9.35-6.61.14-.77-.55-5.12-1.32-1.71.14-1.42-.7-1.29,1.05-.27.14C154.91,347.62,161.21,348.88,162.28,347.08Z" transform="translate(-2.51 -28.23)"/>
    <path class="cls-1" d="M171.78,340.07c1.54.23-.33-.82-.39,0,.52.54-1.06-1.12-2.25-1.27C163.3,342.67,173.55,342.1,171.78,340.07Z" transform="translate(-2.51 -28.23)"/>
    <path class="cls-1" d="M212.58,347.5c-1-2.78-1.89-3.66-4.35-1.65A3.44,3.44,0,0,0,212.58,347.5Z" transform="translate(-2.51 -28.23)"/>
  </g>
  <g id="NorthAmerica">
    <path class="cls-1" d="M146.56,195.6a.4.4,0,0,0,.27-.14C146.56,195.46,146.56,195.46,146.56,195.6Z" transform="translate(-2.51 -28.23)"/>
    <path class="cls-1" d="M138,190l-.13.14C138,190.12,138,190.08,138,190Z" transform="translate(-2.51 -28.23)"/>
    <path class="cls-1" d="M140.49,190.23c.74-.42.48-1-.13-.41C139.45,189.3,140.12,190.09,140.49,190.23Z" transform="translate(-2.51 -28.23)"/>
    <path class="cls-1" d="M147.62,189.13c-.26,0-.53.14-.53.42C147.22,189.41,147.62,189.27,147.62,189.13Z" transform="translate(-2.51 -28.23)"/>
    <path class="cls-1" d="M132.3,170.85c-13.06-7.32-4,3.13-9.5.69-5.72,1.05,3.76.43,3.83,2.06.72,1.5.78-1.27,1.58-1.1C129.13,172.16,136.05,172.87,132.3,170.85Z" transform="translate(-2.51 -28.23)"/>
    <path class="cls-1" d="M122.27,167.69c-4.78-1.61-14.19-12.57-19.94-4.4C108,157.69,114.56,171.14,122.27,167.69Z" transform="translate(-2.51 -28.23)"/>
    <path class="cls-1" d="M155.28,34.62c.71.92,3.93-.44,4,.28,4,0-3.44.26,2.37.13-15.85,2,9.5,2,6.34-.27-3.54.46,1.55-1.84-1.71-1.24.19,1.34-2.38-2.45-4.89-1.37,3.65.43-6.87,1-3.43,1.51-1,.11,1.05.12,1.32,0-.82.54-4.19-.25-3.3.27C154.56,34.73,160.24,33.88,155.28,34.62Z" transform="translate(-2.51 -28.23)"/>
    <path class="cls-1" d="M130.85,36.55c1.47-.13,3.07.51,4.36,0C135.75,34.82,128,37.12,130.85,36.55Z" transform="translate(-2.51 -28.23)"/>
    <path class="cls-1" d="M97.31,48.51c2,4.34,10.17-2.88,15.19-2.62C119.81,41.17,95.6,45.26,97.31,48.51Z" transform="translate(-2.51 -28.23)"/>
    <path class="cls-1" d="M110.91,40.81c3.09,1.25,7.36-1.8,11.09-.55-2.48-.21-4.4.72-.79.55-1,.16-5.57.37-2.77.68,4.49-.56-5.25.51-.66,1,1.22.76,4.19-.62,7.39-.41-13.11,2,5.19,1.94,8.85-1.38-6.49.75.41-2.62-5.55-.69,1.27.78.2.47-.66.83,3.35.45-3.81,1.15-2.11,0-1.12,0,0-1.08-2.64-.69.92-.72-2.19-.78-.26-.83C126,36.54,113.38,40.21,110.91,40.81Z" transform="translate(-2.51 -28.23)"/>
    <path class="cls-1" d="M113.83,41.17a1.07,1.07,0,0,0-.28.19Z" transform="translate(-2.51 -28.23)"/>
    <path class="cls-1" d="M116.59,41.22c3.56-.75-.94-.69-2.11.27C115.23,41.7,115.86,41.29,116.59,41.22Z" transform="translate(-2.51 -28.23)"/>
    <path class="cls-1" d="M129.79,38.33c3,.2,1.58-1.09,4.1-1.1C132.41,36.38,125.2,38.24,129.79,38.33Z" transform="translate(-2.51 -28.23)"/>
    <path class="cls-1" d="M134.55,42.46c1.5-.83-.7-.8-1.32-.28C133.49,42.87,134.15,42.59,134.55,42.46Z" transform="translate(-2.51 -28.23)"/>
    <path class="cls-1" d="M137.22,40.82c-1.48.83,2.69,0,1.55-.84C137.33,39.06,135.31,40.85,137.22,40.82Z" transform="translate(-2.51 -28.23)"/>
    <path class="cls-1" d="M143.79,36.55c6.44,2.82,4-3.27-1.85-1.24,1.47,1,.18-.09,1.85.55C142.48,36.42,139.42,36.62,143.79,36.55Z" transform="translate(-2.51 -28.23)"/>
    <path class="cls-1" d="M144.19,39.43h-.66C143.79,39.43,144.06,39.57,144.19,39.43Z" transform="translate(-2.51 -28.23)"/>
    <path class="cls-1" d="M149.86,36.82c4.31,2.37,4.61-3.11.27-.55C149.56,36.66,152.46,36.88,149.86,36.82Z" transform="translate(-2.51 -28.23)"/>
    <path class="cls-1" d="M140.23,41.22c-7.37.69,5-.12,1.05.69-5.23,1.57,6.57-.38,4.36-2.07-5-.63-2.21.67-4,1.24.37-1.33-3.18-.9-.93-.68C140,40.36,139.11,41.15,140.23,41.22Z" transform="translate(-2.51 -28.23)"/>
    <path class="cls-1" d="M147.22,43.28c4.6-1.58-1.52-2.1-1.05-1.37C143.75,42.05,144.62,43.47,147.22,43.28Z" transform="translate(-2.51 -28.23)"/>
    <path class="cls-1" d="M152.11,40.94c-6.5,4.93,21.72,3,14.39.69-5.69-.4-10.8,0-13.07-.27,1.35-.61,1.9-.33.26-.55C160,41.58,152.33,38.37,152.11,40.94Z" transform="translate(-2.51 -28.23)"/>
    <path class="cls-1" d="M155.12,40.89l.16,0Z" transform="translate(-2.51 -28.23)"/>
    <path class="cls-1" d="M148.28,40c-1.34,2,3.2-.11,4,.14C152.47,39.43,147.52,39.05,148.28,40Z" transform="translate(-2.51 -28.23)"/>
    <path class="cls-1" d="M152.51,37.51c-2.11-.41-2.61,1.11-.14.41C154.81,38.52,155.11,37.15,152.51,37.51Z" transform="translate(-2.51 -28.23)"/>
    <path class="cls-1" d="M156.33,40a2.12,2.12,0,0,0,.93-.55C157,39,155.67,39.43,156.33,40Z" transform="translate(-2.51 -28.23)"/>
    <path class="cls-1" d="M194.63,29.26c.26,0,.26-.14,0,0Z" transform="translate(-2.51 -28.23)"/>
    <path class="cls-1" d="M202.77,29.75c-8.52-.91-23.53-.61-26,1-1.06-1.45-18.52,1.43-6.47,1-11,.86,4.95.9.26.83,1.32,2.13,5.81-.88,11.76,0-25.66,2.26-2.62,1.34-18.23,4.53,7.15-.61-3.46,2.26,6.08.14-4.83,3.44-6.32-1.66-8.32,1.38,4.07-.5-7.62,2.08-2.77.82-2.72,2.06,22.18,0,11.22-.55-3.85-.86.53,0,3.43-.55.05-1,6.2-1,3.17-1.51,1.42.26,3.78-.25.8-.55,7.15-.52-2.49-.89-.4-.82C198.37,31.74,189.13,33.35,202.77,29.75Z" transform="translate(-2.51 -28.23)"/>
    <path class="cls-1" d="M159.11,57.72c.8,1.12,3.71-.13,4.22-1.52C162.33,55.29,159.27,56.16,159.11,57.72Z" transform="translate(-2.51 -28.23)"/>
    <path class="cls-1" d="M168.75,46c-1.69-1.38-6.45-1.72-5.28.69C164.75,46.56,169.3,47.43,168.75,46Z" transform="translate(-2.51 -28.23)"/>
    <path class="cls-1" d="M130.46,55c2.59,1.44,4.66-.8,2.24-1.93C131.87,52.09,126.08,54.79,130.46,55Z" transform="translate(-2.51 -28.23)"/>
    <path class="cls-1" d="M130.19,45.07c-1.05-.41-4.61,0-2.9,1C127.6,47.21,130.3,45.76,130.19,45.07Z" transform="translate(-2.51 -28.23)"/>
    <path class="cls-1" d="M140.23,44.93c-2.14-.08-7.73.16-4.23,1.24-1.07-.33-1.3,1.27-1.19.41-11.32,2,9.59,3.8,2.51.14.22-.69,3.74-.91,2.25-1.1C140.23,45.45,142,45,140.23,44.93Z" transform="translate(-2.51 -28.23)"/>
    <path class="cls-1" d="M148.68,65.28c-3.06-3.08-4.4-5.76-10.7.41,3-.09,2.44,2,6.34-.83C144.47,64.19,149,67.67,148.68,65.28Z" transform="translate(-2.51 -28.23)"/>
    <path class="cls-1" d="M182.35,59c.09-.79-4.73,1-1.19-.82-2.76.17-1.54.22-1.72-1-1.92.59-.42-1.21-2.69.28,2.38-1.24-3.61-1.12-.61-1.25-.58-.64-5-.41-1.06-1.1-1.23-.51,1.59-.49-.92-.68,4.34.49,2.52-1-1.19-.55,10-1.66-2.25-.25,2.77-1.24-2.87-.28.7-.09,1.06-.69-3.62-.57-1.6-1.1-5.41,1,.76-1.5,4.8-2.68-.8-1.37.37-.53,1.65-.39,3-1.51-1.09-1-4.65,1.39-2.9.41-2-.36,1.09-1-2.78-.41,2.12-.4,3.21-2.06-.66-.42.92-.24,3.86-1.79,1.19-1.51-.6-1.41-5.87.2-2,.69-.64-.1-3.62-.82-1.58.69-.37,0-1.43-1.34-1.19-.28-.8-1.64-1-.53-2.91,0,3.88-2.72.5-4.33-4-2.61,1.28.46,2,.49.14.28s-.12.7.66.68c-1.65-1.07-4.06.8-1.46.83-3.3.2-.88,1.92-3.17,2.61.45-.18,0-5,4.76-4.95-3.1-1.43-15.85,4.28-7.66,4.4-9.44,0,3.12,2.37.66,2.06-2.15,3.07-9.25,8.61-6.34.83-7.37,3.9.39-1-4.62-.83-.08-.64,3.47-.72,1.45-2.34.22-3.23,12.46-5.37,7.53-5.63-5.85-1.76-12,6.3-13.6,7.83,2.75,1.9,3.27,0,.13,2.34,1.21.28,2.16-1.25,1.06.28-1.51.17-8.44,5.33-6.34,3.3,1.06.51,1.59-1.19.13-.42,5.19-6.37-11.84,2.7-11.49-3.43-1.7-.29-8.07,1.48-4.22,1.51,5.44-1,2.24-.5-1.45,1.1-.24,1.88-.67,1.46-1.06,1.37-1,1,.28,1.54-.92.14,6.34-4.17-14.21-.47-5.42-3.57-6.3-5-16.47.16-15.84-4.4-9.72,7.5-46.44-6.75-62.19,5.77,1.17,2.36-1.1,1.94,2.51,2.2-2.59,1.74-.54-1.1-2.38,1.1,2.8-.24-2.38,1.3-3.57.27,3.58-2.19-8.34.56-7.78,3.17,6.46.79,12.74-.63,3.16,3-1.39.19-13.93,3.92-11,5-2,1.27,3.91-.06.27,1.24-5.36-1.62-1.63,4.6,2.9-.14-6.12,4.11-3.17,5.78,1.72,3.57-1,.8-1.16,1.63.66.83,5.54-1.43-10.41,4.93-11.49,6.32C10,83,25.06,70.16,32.88,71.73c-7.49,0-10.4,5.6-3.57,2.62,4.91-1.15,3.42-3,8.72-3-2,.29-1,2.18,2,.69-4.37,3,9.38.93,6.07,2.48,1.35-1.71-2.43,1,.4,1-.15.55.84,2.48,1.32,1.79,2.2-.08-1.08-2,2.38-1.24-2.16,1.19,0,2,.79-.28,1.32-1.54-1.27,1.75.29,1.71,0,.52-2.25.95-1.61,2-2.56,1.47,1.22.36,1.45-1.24-.79,2.86-1.74,2.39-2.64,2.47-4.24,3.92,5.75-2.54,1.06,2.48,2.68-.69,3.15-2.24,2.11.68-1.54.5,2-2.13-.66-1.23-.59.74-1.87,2.13.92,1.23-4,2.58-1.87,3.56.27,2.61-2.41.45.6.93-.93,1.24-.26-1.26-3.23,3.77-.92,1.79-3.33,2.22,3.12.06.92,1-1.22.33-3.39,1.91-1,1.79-.25-.34-2.47,1-1.19.69-.55,1,3.2,0,1.19,1,0,1.4,5-1.45,2,.41-.49.83.62,0,1.18.14-2.55,1.06-.44,2.36.27.55-.81,1.81,2.06,5.6-3.3,7.83-.18.11,2.59-1.49,1.85-2.06-3.34-2.58-5,4-4,4.13-16.75,13.8-6.19,26.6-2.76,43.3,1.2.59.82.58-1.36,0-.72,1.84,6,2.87,3.6,7.39,9.38,11.39-1-8-.93-14.29,3.13-7.33,3.14,8,5.42,7.56,4.11,13,13.47,31.53,29.18,29.27,1,.79,2.58,4.25,2.77,1.38-.29-3.74,8.15-1.81,1.19-1.68-4.85,8.43,10.91,4.7,7.79,7,7.58,14.28,11.27-7.87,7.13-4.13-1.67.6,4.32-.94.79-1.61,1.7-3.34-14.32,2-8.55-2.91.62-1.89,1.36-6.77-.69-3-12,1.93,5.4.25,4.75-9.07-25.34,19.63-27.73-12.18-8.58-20.35,1,3,6.84.18,7,2.89,2.35-.62-1.27-1.55.79-2.2.31-.77-1.7.39-.4-.69-2.72.23,7.56-2.15,8.93,1.14,6.44-1.65,1.79,6.28,5.07,9.17,6.89,6.12-5-16.46,14.79-22.27-1.47.07-1.2.34-.4-.69-1.16-1.51.86.38,2-1,.17-.94-.25-.74-1.45-1,.79-.74,3.84-.47.53-2.75-.47.09,2,1.44.53-2.06,1.61,3.12.23-3.23,3-3.3-1.46,1.51-1.91,2.42-.79,3.71-2.78,3.31.39.28,1.55-1.13.32-1.09-.9-3.08,1-3.54-4.11,5.05,9.42-6.65,11.49-5.23-3.39,1.37.89-4.87,1.93-4.59.35-.86,6.51-.94,5.46-2.69,1.94-9.64-2.91-2.84-7-.28-6.15.86-11.92,3.56-15.84,5.64-6.5,6.82-15,1.15-2.11-.28,2.75-4.66,19.08-4.71,24.68-11.14,3.79-1,.23,3.32,1.2,5,6.13-.33,2.82-2.13,7.39-.42-17.9,6.16,9.4.62,6.47-2.33-11.75,4-5.1-4.59-9.9-4.51,13.39-4.36-5.23-2.33-9.64,3C152.92,92,165.23,96,176,89.89c-.85-1.1,2.93-3.91-1.59-3.44,3.25-4.11-3.85.87-4.88.55.09-1.18,5.5-2.18,6.07-2.75-3.1-.67-1.92-1.63-4.22-.28,2.68-2.09-1.8,0,.26-1.78.27,0-1.75-1.69-2.38-2.48,1.83-.37-1.53-.65.4-.82,1.21,1,1.5-2.31.53-3.17,1.25-.87-1.2.22-.92-.41,2.75-.37-.91-5.6-.93-3.3-4.66,5.09-5.29,2.69-9.64,2.34,2.46-.53,2.44-3.52,3.57-4.81-3.91,1.07-2.32-4.48-6.61-2.2-12.51-3.86-3.91,13.73-16.77,16.08-2.15.84-2.42,8.25-4.1,8.2-.08-1.46-1.8.17-1.31,1.42-.81-3.42-3.63,1.52-1.19-2.33-3.89-1.3,2.88-7.25.14-7.56-6,.51-7.2-6-12.68-4.13-5.38-8.18,21.71-17.23,27.73-21-.45,2.71,7,0,5.15-2.61.07-.31,3.91-1,1.45-1.1,2.55-.41.93-1-.53-1.24,3.45,0-2.82-.6,1.06-.41,3.67-.18,3.52,1.84,6.2-1,.86-.62,3.24,1.77,1.85,1.37.56.54,2.05-.4.66.28,2.49,1.48-.7.37-1.05,1.37,1.25.38,2-.33,4.09.55,2.62,5-4.56,2.67-4.23,6-9.9,2-11,2.14-.79,3.57,11.51,11.23,4-1.62,9.24,2.48,1.15,1,1.68,1.33,1.72-.55,3.84-1-.94-2.07,1.45-3.44-3.9.6-2.89-2.65,0-3.43C176.25,63.65,177.93,63.46,182.35,59Z" transform="translate(-2.51 -28.23)"/>
    <path class="cls-1" d="M75.53,53.32c.13.13.13.13.26.13S75.79,53.32,75.53,53.32Z" transform="translate(-2.51 -28.23)"/>
    <path class="cls-1" d="M75.53,53.59a.39.39,0,0,0,.26.14C75.79,53.59,75.79,53.45,75.53,53.59Z" transform="translate(-2.51 -28.23)"/>
    <path class="cls-1" d="M82.26,53c.13,0,.27-.14.4-.27C82.53,52.9,82.39,52.9,82.26,53Z" transform="translate(-2.51 -28.23)"/>
    <path class="cls-1" d="M128.08,51.94c-7.62-1,3.25-6.61-3.57-6.18-1,.17-3.91,4.58-3.17,2.33,1.6-4.25-3.59.52-3.69-1,2.44-1.45-3.17-.36-4.23,0,7.46-3.77-14.1,1.85-7.13,1.79,1.27,1.83,5.77-.94-2.11,1.24,1.26,1.88,5.74-.25,7.92.82C89.37,55.57,126.81,55.84,128.08,51.94Z" transform="translate(-2.51 -28.23)"/>
    <path class="cls-1" d="M178,100.33c-3.51.84,2.67-3.28-2.25-2.2-1.2,1.33.23-1.32-.66,0-1.06-1-2-.54,0-1.92-5.15,1.57.21-1.95,1.19-3.3-6.47,2.34-13,9.52-7.2,10.22.65,4.82,8.71-3.43,3,1.19,1.15,1.68,3.89-3.37,4.22-1.52-1.42,2.82-.37.85.27,1.38-1,.47.29,1.31,1.05,0,2.17-2.67-1.77-.59.8-2.75-.75-.66-2,2.3-1.85,1C175.93,101.32,179.66,100.06,178,100.33Z" transform="translate(-2.51 -28.23)"/>
    <path class="cls-1" d="M117,172.6c-.27-2.65-2.81-1.35-4-.27C113.92,174.06,117.23,175.12,117,172.6Z" transform="translate(-2.51 -28.23)"/>
    <path class="cls-1" d="M112.89,195.73c-4.87-5.62-9.56,4.16-12.54-5.53-11.09-3.58,3.88,11.25,6.87,7.73-1.42-2.92,3.84-3.52,4.88-1C107.89,196.32,114.13,201.67,112.89,195.73Z" transform="translate(-2.51 -28.23)"/>
  </g>
  <g id="Europe">
    <path class="cls-1" d="M357.17,126.17c-1.17-13.28-8.57-6.24-17.57-10-8.26-2.5-10.58,3.72-16.9,3-3.67,2.83,2.79,1.07.8,5-.41-1.8-1.19.5-.14.42.11-.37,2,.91.8,1.23.45.72,1,.5,1,1.24-1.91.64,2.46-.32,1.06.69-.27.39-1-.1-1.32.41.29.23,1.92-.54,1.05,0,4.88.18,9.77,1.77,15.06-.83,1.09.35-1.16,4,1.58,1.52C342.38,126,357.37,127.8,357.17,126.17Z" transform="translate(-2.51 -28.23)"/>
    <path class="cls-1" d="M237.27,54.69c.51-.68,3.94-1.45,3.17-1.65,5.49-1.74-14.69.23-4.09-1.23-1.17-.52-3,.38-4.09-.14,2.75-.65,1.65-1.26,4.56-1.06,3.05-.92-.77-.93-1.53-1.14-2.81.05,3-.23,4.06.83-8.58.72,3.39,2.34,4,.54-1.32-.18.05-.11-.4-.55,1.28-.5-2.37.11.27-.82-2.86-.52-3.14-2.38-6.34-2.06-.92-.47.58.24,2.51-.69-1.3-.68-3.16.24-3.44-.28,7.39-2,5.57.73,10.83-1.23,1.05-.8-2-1.31-1.85,0-.86-1.89.82-.8.4-1.65,6.82,2.1,1.29-1.16,1.32-1.93-2.27-1.28,4.26,2,2.77-.41.28-1.43-1.86-.76-2.64-1.79-1.72-1.69,10,0,2.77-1.92-1.49-1,4.5.56,1.95-.21-4.16-1.4-3.39.6-2.47-1.72,3.16-1,3.34-2.09,7.92-2.88-2.48-.42-6.88.22-2-.55,14.74-.84-1.74-2.91-8.2.47,4.44-2,4.25-2.84-1.44-1.3,1.88-1.23-4-.67-8.58-.14,17.72-1.35,15.57-2.52-1.85-1.78,2.31-.5,17.18-.39,8.45-.83-6.21-.8-10.7.95-16.77.69-4.27-.17-6.35-.37-2.51.69,1.33.32-2.76-.47-2.77,0a7.63,7.63,0,0,0,2,.69c-13.08-1.46-29.48-.39-28.79,3.84-7,1.07-19.45,3.61-5.14,3.44-3.33,1.78-.92-.23-7.14,1.1,2,3,14.57-1.19,16.77,5.09-2.64.56.16.1-.26.41,1.22,1-1.17.43.79,1.51-.91.22-2,.52-.26.69.17,1.68,0,.68-2,1.24,1.94.13,1.42.06,0,1,4.14-.59-2,.33-.14,1,1.19,1.12,5.15-2,3-.41,4.42.26-1.57.22.25.43,2.1.52,1.72-1,.41.77,1.35.27,2.28.41.14.27,1,.42,2.56.46.52.59,3.58,1.88-6.29-1.51-5,.93-1.79,0-.92,1.4.88.73-3.1,1.35,4.24-.34,4.92-.29-3,2.29-.57,1.08-1.32,1.93,1.09.24-.85.09-.52-.14-.48-.06-1.44,1.35-.28.72-3.57.85-2.84,1.4-4.35,1.34-2.37,2.52,2.82,0,3.83.69,2.23.34-7.53.4-4.88,1.79.65-.15-3.5,2.07,0,1.79,1,.47-.78.08-1.18.49.13.53,1.3.67.39,2.12,3.11-2.05-3.38,3.58,2.5-.28.6.53.75,0,.93.41-.66.42.26.42.26.83-.71,0-.57-1-1.19-.83.2,0-.68.72.4.55-1.36.6-3.56.29-2.11,1.1-.13,0-.93.28-.4.14-.35.78,2.15-.43.26.41,1-.17-1.09.74.93.28-1.77.34-1.13.57.13.41-1.91,1,1,.31-1.05,1.65,2.12,1.11-.59,1.72,1.71,1.38-.8.82-1.22,1,.53,1-1.65.1-.6.29-.26.69.29-.47,1.12.48-.27.41.41.53,2.62.65,4.36-.69-1.47,1.38-1.09.81-.66,1.24-1.06.35,0,.35.79,0-1.29.94,1.49-.67.41.39-1.64.87,1.43,1.27,2.76.85.12.09.33-.62-1.06-.42-.21-.53,1.81-.2,1.06-.41,1.11-.13-.37.09,1.06-1-2.18,0,1.47-.16-.53-.69,1,.2,1.77-.25.39-.55.87.25,1.86-.07.53-.41,1.34.47,1.34-1.18.27-1.51.89.44,1.44.1.66-.14-1.88-.29,2.1-1.08.39-.28,1-.48,1.79-.39.79-1.1.68.5,1.48.39.8-.55,1.8,1.43-.1-.72.92.14-.8-.41,1.92-.54-.53-1,.38-.4,2.29.71,1.59-.41.94-.54-2.13-.56.13-.69s.06-.27.4-1.51c3,.92.58-1.89,4.49-1.24,3.45-3.55.12.83,4.22-1.1C226,55.92,229.79,56.77,237.27,54.69Z" transform="translate(-2.51 -28.23)"/>
    <path class="cls-1" d="M533.3,103.63c-3.06-.08-7.55-9.73-.79-4.4-6.42-5.57-8.11-7.8-13.6-13.61-.3,3.71,8.59,11.11,11.62,18.83,1.74,2.58.48-.45,1.59-.41C533.68,104.29,534.85,106,533.3,103.63Z" transform="translate(-2.51 -28.23)"/>
    <path class="cls-1" d="M569.09,62.53C557.71,49,517.21,54,487.88,46.31c-.76,1-1.56,1.94-2.64.68,6.07-.11-8.17-3.42-11.22-1.37,12.63,2.44-11.69,4.05-13.07-.28-2.17-2.51-7-1.39-9.77-2.33-1.92,3.7-21.14-2.33-24,1.51.2-1.75,8.78-3.68,5.54-4.81-2.48-.63-1-.42.53,0-5.45-3.6-11.29-1-16.9-4-5.16,5.41-1.16,3.45-6.6,5-3.05-.46-15.58,1.74-12.41,2.75-.44,0,1.28.29.26.41-2.07-.57.24.47,1.32.41-.4,1.14-8.9-.45-8.45,1.38,2.24,1.33,8.11,4.11,2,2.34-3.63-2.49-9.09,1-2.38,1.65,3.45,1.4-3.08,0-4.62-.42.07-.57-.53-3.46-2.24-2.75,2.41,2.13-3.12,2.18,2,4.54-1.28,3.48,5.91,2.27,10.16,6.05-12.7-7.48-2.12,5.46-14.39,1.51,14.42,2.68-10.47-24.45-6.07-5.5,10.65,4.2-8.17-1.09-12.81-1.24-.11.24,2.66,1.16,4.09,2.07.53,1.39-2.15.23-.92,1.37-1.58.72-1.29-2.52-2.72-1-2.64-.45-8.06,2.83-6.39-.23-1.8-.63-7.62,2.38-10.17,4-2.51,0-3.92-2.14-.53-2.06-4.82-3.43-5.86-1.38-2.64,2.2-1,2.49-2.73-1.65-7.13,2.34,3.89,3.48-2.6,1-4.22.82-1.3.94,1.06,1.6,2.11,1.65-3.77,3.93-5.87-5.26-9.37-5.5,12.22,4.6,19.85-3,.79-4.95a10.43,10.43,0,0,0-7.92-1.1c1.6-.41-1-.35.79-1-2.48-1.07-1.16,2.4-2.91.55,1.27-1.86-3.18,2.61-1.58.69-.73-.57,2-.81,0-1.1.59.61-1.65-.51-.93.13-1,.91-1.53,1.95-3.16,1.79,2.43-.3-3.33-.94-.54.41-2.31-.5-1,.51-2.77,1.24,1.48-1-.41-1.76,0-.55-.26-.14-.39.28-.52.41.87-1.54-1.79-.47-.53-.27-1.38.6-2.7-1.15-3,.27,3.5.09-2.26,2.26-.94,2.75-.21.44-1.86-.71-.91-.27-1.69.59.5.26-1.19.69-.42-.06-.42.14,0,.13-.95.65.88-.34,1.19.28-1.88-.15.25.34-.13.68-.92-.8-2.6-.07-.92,0a9.88,9.88,0,0,0-3.3,2.06c.13.4,1.5-.09,1.05.55-1.67-.28-2.63,1.5-1.85,2.06,1.08-.22-.76.12-1.32.27-.42,1.09-1.48.93-3.17,2.89.37.31,3-.36,1.72-.55,2.43-1.31,0,.5.4.69-1,.7-3.37-.28-2.38.41-.89-.23-2.28,0-.92.28-.76-.14-1.79.4-.53.41-.29.4-1.7-.84-.14.55-.64-1.09-4-.25-1.45-.28-.69,1.24-3.36-1-.79,1.24-1.12-.94-1.55.08-3.17.28.7.25.57,0-.13.41.23,0,1,.39.13.41.89,0,1.66.63.22.51,1.07,1.2-.79,1.54.84,1.55-1.18.17-.4,1.1.39.28-1.6,2.45-.32.9,2.25.68-.69.38-2.93.72-1.83,1.75-2.9.89.2,1,.24.32,1.53-.55-1.82.76.4.41-2.39.87,1,.66-.66,1,.83.55-1.14-.42-.66,0,0,4,7.52.38,7.79-1.51,1-.43,1.37,2.77,3.3,4.95.9,5.11,1.64,2.25,5.42,1.51,3.14-2.89,0-5.88,2-5.91,2.54-.66,4.49-3.06,0-4.12-1.2-6.14,5.36-4.71,6.86-10.45.88-1,4,.88,2.51-1.93-1.91-5.43.34-3,.53,1,7.72,4.75-6.53,4-2.64,12,5.44,4.42,17-4.83,9,3-2.51-1-8.55.78-4.22,2.48,2,6.62-4.83-2.1-5.15,4,1.05,4,1.6,2.37-1.72,4.7,2.9-1.38-1.76,1.34-.13.11-5.22-2.22-9.35,3.91-11-.66-2.23,1.85-7.16,1-6.07-1.51,1.69,1.15,2.75-.2-.13-.82-.3.52,4.05-2.51.92-1.65.27-3.07-1.93.55-3.56-.28-.33.83,1.11,1.9.13,1.24,1.68,3.34.68,1.86,1.06,4.67,1.8,1.2,1.33.49-.27.28-1.16,1.58-2.86-1.69-3,2.47-1.66.71,0-.42.14-1.1-1-2.1-6.51,2.35-4.76,3.3,2,.19-1.71.13-.79.41,3.65.41-4.86.4-5.28,3.82-4.25,3.64-4.81-1.61-6.73,2.89-1.37,1,2.4-4.07-1.35-3.52C267,94,279.25,94.92,274.51,93c1.05-.24,4.25-4.71.13-3.16-1.48-.27.48-.72-.26-1.51-2.54-.86,1.62-1.16-2.12-2.75-1-4.71-4.24-2.13-2.77-4,5.23-5.27-1.73-1.57-2.37-3.3,5.38-2.21-1.42-2.09-2,.27-.53.07-.23,1.28.26,1.65-1.76.37-2.33,2.85.4.55-.12.27-.73.79,0,.82-1.93,1.25-1.4,4.59,0,.83-1.18.36.29,1.62-.13.69,2-1.51-.19,3.88-1.32,1.92-1.48-1.86-4.31-.52-5.15.69,2.22.46-1.2,1.11-2.24.69.23,1.31.64.92-.27,1.92,0,.92,2.71-.05.93,1.1-1.69,1.84.14,0,.92.55-1.69.42-2.16.51-3,1.37,2.43-.2-.11.07.13.83.89.31,1.68,0,.92.69,4.27.39,10.84-5.28,3.69-6.64,6-.62,4.28,5.75,7.67-.65.57-.6,2.7,5.07-1.59,3.16,2.19,3.78-2.69,2.91-.66,3.72-1,.11,2.85,1.58,4.23.13-3.73,2.37-5.87,2.42-2.76,6.24-.65.16-4,1.14-1.73,1.15.36,1.72,6.58,3.74,6.73,8.25-2.82-3.82.19,6.12-5.54,3.61-14-1.8-10,1.47-11.1,10.31-.43.47-.12,8.48,2.91,2.75,2.79-1.57-3,1.74,2.11,2.88-1.78,5.45,2.24,2.54,3.83.28,9.14,1.76,12-20.6,18.23-15.85,15.15-4.93,5.06,1.65,15.18,5,6.29.71,3.15,11.61,7.13,5-2.26-2.6-.12-4.36,2.11-1.79-2.25-3.22-17.16-13.9-9.37-13.47-.76.49.47,2,1.45.2,1.31,4.47,7.11,4.63,9.77,9.8-.3,4.45,2.73,7.4,6.87,7.7-6.12-.71-2.24,3.3.53,4.12-1.72-3.7,1.32-1.39-.4-3.57,1.3-.53,2.8,1.66,1.72-.83-4.06-2-.63-1.29-2.38-3.57-1.64-3.4,1.86-.17,2.24-.55-1.62-1.9,2.28.28-.13-1.1-1.32-1.12,7.33-2.12,4.22.86,9.38-5.62-2.16-2,5.55-12.82-3.73.42-2.05-1.6.14-.41-.3-1.45,1.16-1.86,3-3.58.45.87,3.34.73,0,.55a4.19,4.19,0,0,0,3.43,1.1c2.12.57-1.27,1-1.18,1.93.92,0,2.91,1.19,1.71,1.92,5.42-.54,7.32-1.38.93-3.16-1.07-1.52,1.63.55,1.32-.41.77.9.3.93.39,0,1-.7.59-.28.14.41.95-1.54,7.56-3.72,3.69-.93-3.42,1.21,5.62,5.74,10.83,6,3.92.07,7.8,5.91,10.82,3.3-3.58-4.69-5.91-8.83-.39-10.72-1.19-2.06-2.89-3.13-5.15-4.54-1.48-.89-.42-7.51,1.85-3.71,3.95-8.71,10.19.06,16.9-3,2.33,2.15,9.38.6,3.43-1.51-2.37-.87,2.06-.49-.13-2.2.48-1,4.16-.14.66-1.1-1.26-1.52,14.8-7.69,17.16-1.92,2.88-1.07,2.95,1.15,5,1.1.49.22,5.25-3.14,3.57-1.1,10.07,6,19.84,15.63,30.23,8.11C438.64,92,450,100,445.89,91.4c12.34-.58,15.71,7.76,32.48,3.7,5.63,2.21,7.61-2.87,4.23-6.18,7.6-9.26,21,15.4,30.5,9.9,3.43-1.06,2.28,5.77,3,7.28-3.35.11-4.06-.29-1.59,3.3.65,1.33,1.3,1.76-.13,2.48,11.51,3.1,12.64-19.86.93-25.71-4.78-2.81-2.75,0-3.44.28-6.26-3.8-8.43-.32-4-9.08,1.12-8.74,23.82-.2,19.94-4-3.87-2.67,3.93-8.37,5.54-3.57,3.45,2.39,1.18-2.39,4-1.1-.9-1-3.59-3-.13-2.61,3.85,1-1.67-.65,1.32,2.34.29,7.15-5.25,12.37,7.66,20.07,1.85,4.24,7.06,3.45,2.77-1.24,1-.33,3.33,0,1.18-1.1-2.73-2.8,1-1.74,1.19-3-2.39-1.24-4.47-4.68-1-3a30.73,30.73,0,0,0-4.62-3.85c1.07-3-2.34,2.7-2.51-2.47.33-.41-2.68-3.1,1.19-1.51,1.79-3.52.51,1.23,4.09-1.65,1.25-.7,6.44,2.65,4,.41,3-2.39.95-2.49,5.28-4.54-3.68-1.34,3.71.61,3.3.14-1.66-2.16-4.91-3.21-6.2-3.85-5.86-1.49,1.92,0,.52-2.47C547,55.37,566.18,63.58,569.09,62.53Z" transform="translate(-2.51 -28.23)"/>
    <path class="cls-1" d="M253.65,62.9c3.1-.29-2.41-1.75,0-2.75-4.7.91-6.72,0-9.38,1.93-3.67,1.73,1-2.83-4.48-1.24-2.43.82,6.15,1.33-1.19,2.07-.81,1,4.44-.33,2.77,1.23-.93.29.35,0,.53,0C235.3,66.5,254.26,66,253.65,62.9Z" transform="translate(-2.51 -28.23)"/>
  </g>
  <g id="Africa">
    <path class="cls-1" d="M244.4,197.93c0,.35.57.23.8.42C245.41,197.79,244.68,198.12,244.4,197.93Z" transform="translate(-2.51 -28.23)"/>
    <path class="cls-1" d="M237.41,188.72c.11,0,.15,0,.13-.14S237.41,188.72,237.41,188.72Z" transform="translate(-2.51 -28.23)"/>
    <path class="cls-1" d="M237.67,187.76c.13-.14.13-.14-.13-.14C237.67,187.62,237.67,187.76,237.67,187.76Z" transform="translate(-2.51 -28.23)"/>
    <path class="cls-1" d="M237.93,189.82c.14,0,.14-.14.27-.14C237.93,189.27,237.54,189.55,237.93,189.82Z" transform="translate(-2.51 -28.23)"/>
    <path class="cls-1" d="M238.2,187.76h-.27C237.93,188,238.33,188,238.2,187.76Z" transform="translate(-2.51 -28.23)"/>
    <path class="cls-1" d="M238.07,188.72c.12.2.45-.2.13-.14C238.2,188.72,238.2,188.72,238.07,188.72Z" transform="translate(-2.51 -28.23)"/>
    <path class="cls-1" d="M238.73,189.41l.26-.28C238.73,189.13,238.73,189.27,238.73,189.41Z" transform="translate(-2.51 -28.23)"/>
    <path class="cls-1" d="M239.52,189.41l.13.14C239.65,189.41,239.65,189.27,239.52,189.41Z" transform="translate(-2.51 -28.23)"/>
    <path class="cls-1" d="M238.07,168.38c-.14.27-.27.55-.14.68C238.07,168.93,238.07,168.65,238.07,168.38Z" transform="translate(-2.51 -28.23)"/>
    <path class="cls-1" d="M219.85,175.53c.13,0,.66-.28.52-.55S219.58,175.11,219.85,175.53Z" transform="translate(-2.51 -28.23)"/>
    <path class="cls-1" d="M221.43,180.61c.13,0,.26-.41.13-.55S221.17,180.47,221.43,180.61Z" transform="translate(-2.51 -28.23)"/>
    <path class="cls-1" d="M223.15,180.47c.26-.41-.27-.68-.4-1C222.75,179.79,222.62,180.47,223.15,180.47Z" transform="translate(-2.51 -28.23)"/>
    <path class="cls-1" d="M223.94,179.92c.53-.55-.53-.41,0,0Z" transform="translate(-2.51 -28.23)"/>
    <path class="cls-1" d="M224.6,177.17c0,.28-.27.69.13.69C225.26,177.59,224.86,177.31,224.6,177.17Z" transform="translate(-2.51 -28.23)"/>
    <path class="cls-1" d="M224.6,175.66c-.13.28,0,.42,0,.69A.65.65,0,0,0,224.6,175.66Z" transform="translate(-2.51 -28.23)"/>
    <path class="cls-1" d="M366.67,253.33c-1.08.9-5,.31-6.2,3.85-6.69,44.89,11.63,7.46,12.28-6.46C372.4,240.13,367.16,252.51,366.67,253.33Z" transform="translate(-2.51 -28.23)"/>
    <path class="cls-1" d="M368.78,248.11c-.26.27-.13.55.14.55S368.92,248.25,368.78,248.11Z" transform="translate(-2.51 -28.23)"/>
    <path class="cls-1" d="M371.69,257.46a1.08,1.08,0,0,1,.26-.69C371.82,256.91,371.56,257.18,371.69,257.46Z" transform="translate(-2.51 -28.23)"/>
    <path class="cls-1" d="M374.86,190.61c0,.17-.06.28-.16.31C375.25,190.92,375.39,190.83,374.86,190.61Z" transform="translate(-2.51 -28.23)"/>
    <path class="cls-1" d="M358.36,185.66a1,1,0,0,0-.33.06c0-.1,0-.2-.2-.3-.27.55-.8-.55-.93-.68s-.39,0-.53-.28-.13-.69-.39-.82c.13.41-.14,0-.27-.14s-.39-.28-.53-.41a9,9,0,0,1-.79-1.1c-.26-.42-.39-.69-.92-.83s-.4-.27-.66-.55-.53,0-.79-.14-.4-.41-.4-.68-.13-.55-.4-.55.14.82-.13,1a1.54,1.54,0,0,1-.26-.83c0-.27-.4-.27-.4-.55a7.27,7.27,0,0,0-.39-1c-.27-.27-.14-.68-.27-1a13.21,13.21,0,0,0-1.32-3.85c-.26.41-.26,1-.79,1.1h0c.35-.69.5-1.21.28-1.41-5.34-10-4.89-12-10.31-23.37-1.26-1.39-4.11-8.67-.65-2.2,4.27,5.84,3.75-8.66-2.36-6-4.09-.07-13.25.68-19.17-4.47-8.82,1,.5,10.24-12.81,3.71-.91-4.16-9-4.08-8.71-2.74-4.53-6.33-.89-.82-1.05-10.59-1.53.69-4.11-2-5,1.51.35-3.53-4.93.22-7.19-1.1-29.65,5.17-18,4.79-34.86,21.45-.28.42.07.65.61.76l-1.12.06c-10.63,10.95-4.11,19.55-9.92,31.21,1.69-.29.41,1.9,1.13,1.63-.44.71,2,1.48.72,1.67-.83-1.34-1.17,3.08-.4,1.1a1.83,1.83,0,0,0,.4.48,1.37,1.37,0,0,0-.72.17c-.06.07-2.52,1.52,3.49,1.31,1.47.24-1.91.34.26.82-2,1,2.14,5.15,3.43,5.91.77-2.79-.37,3,1.72,3.58-.71-.22,14,5.58,17.17,6.42,2.77.35,8.61-4.8,9.63-3.16,3.06,3.07,8.54-3.11,9,2.24.21-1,.81,4.16,2,2.2.17.86.87.25.94,0,.19,1.36,0-.46.12-.66,1.7,3.75,4.44,5.84,9.37,6.46-6,0-2.11,3.79-4.62,7.42,18.12,26.34-.69,24.74,13.08,62.52a66.65,66.65,0,0,1,6.47,18.14c17.36,4.48,33.51-18.58,32.86-31.61-1.66-8.64,20.17-12.54,10.18-26-3.09-5.44,1.17-12.41-4.09-16.09,5.16,2.46,2,3.31,6.21-4.29.95-.38.87-3,.71-5.85,1.21,10,20.81-17.48,20.15-25.91C373.84,183.82,355.43,197.15,358.36,185.66Zm-1.31.87-3.65-3.92-6.51-1.32,1,25.41" transform="translate(-2.51 -28.23)"/>
    <path class="cls-1" d="M236.48,186.08l.08,0Z" transform="translate(-2.51 -28.23)"/>
    <path class="cls-1" d="M342.1,268.84a1.08,1.08,0,0,0,.13-.69C342.1,268.43,342,268.7,342.1,268.84Z" transform="translate(-2.51 -28.23)"/>
    <path class="cls-1" d="M297.09,238.2a.77.77,0,0,1,.26-.4A.39.39,0,0,0,297.09,238.2Z" transform="translate(-2.51 -28.23)"/>
    <path class="cls-1" d="M351,230.24c-1.17,1.18,1.39,2.17.13,1.1A1.63,1.63,0,0,0,351,230.24Z" transform="translate(-2.51 -28.23)"/>
    <path class="cls-1" d="M351.62,235.6c.26-.14.53-.28.4-.69C351.88,235.19,351.49,235.19,351.62,235.6Z" transform="translate(-2.51 -28.23)"/>
    <path class="cls-1" d="M351.75,228.31c0,.34.1.68.13.83C351.48,230.18,352.65,228.66,351.75,228.31Z" transform="translate(-2.51 -28.23)"/>
    <path class="cls-1" d="M285.73,212.23a.26.26,0,0,0,0,.41A.26.26,0,0,0,285.73,212.23Z" transform="translate(-2.51 -28.23)"/>
    <path class="cls-1" d="M284.68,212.47c-2.56.3-1.16,2.64-.66,3.88C285.51,215.81,287.83,213.19,284.68,212.47Z" transform="translate(-2.51 -28.23)"/>
    <path class="cls-1" d="M384.1,227.87c0-.13.18,0,.27,0C390.5,224.5,378.61,223.31,384.1,227.87Z" transform="translate(-2.51 -28.23)"/>
    <path class="cls-1" d="M292.47,135.07c0,.14.26-.13.26.14C293.75,134.79,292.22,134.26,292.47,135.07Z" transform="translate(-2.51 -28.23)"/>
    <path class="cls-1" d="M352.28,179c-.13-.27-.53,0-.66-.27.13-.14.13-.55-.13-.42,0,.14.13.69-.13.42C351.49,179.1,352,179,352.28,179Z" transform="translate(-2.51 -28.23)"/>
  </g>
  <g id="Asia">
    <path class="cls-1" d="M552.05,234.77c-.32.2.14.48.4.42C552.32,235.05,552.32,234.64,552.05,234.77Z" transform="translate(-2.51 -28.23)"/>
    <path class="cls-1" d="M555.49,220.89c-6.65-6.22-8.35,5.29-10.83,1-1.09-1.14-.94-7.69-5.41-5.5-6.17,3.78,6.31,3.26,3.69,5-.19-.56-4.15.27-3,.69,1.44.69,1.54,5.09,2.51,1.37,1.13-2.16-.41.93,1.05,1.1,1.55,1,9.11,3.5,8.85,6.88,2.1.63-2.2.25.92,1-1.7-.26-5.18,4-1,2.34.25-.23,1.29-2,.39-.28-.17,1.14,3-.1,4.09,2.75C556,233.13,560.44,221.56,555.49,220.89Z" transform="translate(-2.51 -28.23)"/>
    <path class="cls-1" d="M356.24,181.44v-.28C356,181.16,356.11,181.3,356.24,181.44Z" transform="translate(-2.51 -28.23)"/>
    <path class="cls-1" d="M376.84,156.83c.16,0,.5.09.53-.14A.32.32,0,0,0,376.84,156.83Z" transform="translate(-2.51 -28.23)"/>
    <path class="cls-1" d="M529.21,105.55c-.13,0,.27.28.27.28S529.34,105.69,529.21,105.55Z" transform="translate(-2.51 -28.23)"/>
    <path class="cls-1" d="M530.27,106.24c-.13,0-.27-.14-.4-.14C529.87,106.38,530.14,106.52,530.27,106.24Z" transform="translate(-2.51 -28.23)"/>
    <path class="cls-1" d="M530.53,105.55c4.59,4.15-2.33,9.66,3.83,8.67-5.12-2.36.9-1.84,3.3-.42,0-.89-.57-2.92,1.45-2.33C542.46,109.15,531.28,107,530.53,105.55Z" transform="translate(-2.51 -28.23)"/>
    <path class="cls-1" d="M530.93,113.25a.29.29,0,0,0,.26.28C531.19,113.39,531.19,113.25,530.93,113.25Z" transform="translate(-2.51 -28.23)"/>
    <path class="cls-1" d="M387.53,166.32c.21-.33.61-.85.27-1.1C387.8,165.49,387.27,165.9,387.53,166.32Z" transform="translate(-2.51 -28.23)"/>
    <path class="cls-1" d="M354.52,174.8a.59.59,0,0,1,.27.31C354.8,174.81,354.46,174.35,354.52,174.8Z" transform="translate(-2.51 -28.23)"/>
    <path class="cls-1" d="M354.52,174.84c-.12-.18-.46-.22-.52-.41C354.13,174.56,354.26,174.84,354.52,174.84Z" transform="translate(-2.51 -28.23)"/>
    <path class="cls-1" d="M354.13,174l.13.14S354.26,174,354.13,174Z" transform="translate(-2.51 -28.23)"/>
    <path class="cls-1" d="M354.13,174.29c0,.14,0,.14.13.14C354.45,174.23,354.11,174.06,354.13,174.29Z" transform="translate(-2.51 -28.23)"/>
    <path class="cls-1" d="M368,149.13h.4A.24.24,0,0,0,368,149.13Z" transform="translate(-2.51 -28.23)"/>
    <path class="cls-1" d="M375.25,150.37h.27C375.82,150.38,375.36,150.15,375.25,150.37Z" transform="translate(-2.51 -28.23)"/>
    <path class="cls-1" d="M377,151.16a.12.12,0,0,0,.09,0C377.1,151.08,377.09,151.08,377,151.16Z" transform="translate(-2.51 -28.23)"/>
    <path class="cls-1" d="M377,151.19l0,0S377,151.11,377,151.19Z" transform="translate(-2.51 -28.23)"/>
    <path class="cls-1" d="M380.54,150.09c-.27.28-.53.69-1.06.69C379.75,151.51,382.48,149.31,380.54,150.09Z" transform="translate(-2.51 -28.23)"/>
    <path class="cls-1" d="M525.51,211.13c-12.89,2.77-12.22,3.16-12.28,17.32,2.81,1.07,2.28-3.87,2-6,2.29-3.9,1.36,4.14,3.43,4.26.27-1.58,3.23-1,2.11-2.06-1.5.69-1.59-3.75-3.43-5.36,1.52,1.4,2.72-3.33,4.09-1.79,1.41-1.37-2-1.18-.79-.68-2.78-.07-6,3.6-5.81-2.07C517.33,211.72,524.9,217.37,525.51,211.13Z" transform="translate(-2.51 -28.23)"/>
    <path class="cls-1" d="M483.26,228c3.69,2.55,3.16-11.4-.39-7.15,1.7-2.28-2-4.34-2.38-5.64,1.86-2.25.24-1.82-2.11-1.65,2.38.13.56-1.55,2-.68-4.47-1.6-8.14-9.65-15.19-11.14C463.46,202.65,480,227.85,483.26,228Z" transform="translate(-2.51 -28.23)"/>
    <path class="cls-1" d="M512.71,212.37c-4.44-3.18-1.61-7.38-3.76-8.1,5.82.58.41-.49,4.68-2.25-10.49-7.65-3.11.28-10,.55-3.24,3.11-6.13,11-10,7.43-4.21,5.38,1.3,7.26.92,12.26,1.52.41,3.66-1.24,3.44,1.24,1.85-.46,5.75-2,5.81,1.24C510,222.31,507.53,213.19,512.71,212.37Z" transform="translate(-2.51 -28.23)"/>
    <path class="cls-1" d="M509.54,158.34c2,9.71,5.1-7,1.19-3.57C510.29,155.9,509.53,157.06,509.54,158.34Z" transform="translate(-2.51 -28.23)"/>
    <path class="cls-1" d="M451,160c-.18-.46-.61.21-.26.28C450.78,160.13,451,160,451,160Z" transform="translate(-2.51 -28.23)"/>
    <path class="cls-1" d="M451,160.27c-.45-.7.21,1.94.27,1.37C451.73,162.5,451.59,160.37,451,160.27Z" transform="translate(-2.51 -28.23)"/>
    <path class="cls-1" d="M450.91,161.78c0,.14.13-.14,0,.14C451.05,161.75,451,161.53,450.91,161.78Z" transform="translate(-2.51 -28.23)"/>
    <path class="cls-1" d="M451,161v.28C451.18,161.09,451.18,161.09,451,161Z" transform="translate(-2.51 -28.23)"/>
    <path class="cls-1" d="M452,161.78c.39-.28.13-.69,0-1.1Z" transform="translate(-2.51 -28.23)"/>
    <path class="cls-1" d="M452.89,161.09c.14-.14-.13-.55-.26-.69A.52.52,0,0,0,452.89,161.09Z" transform="translate(-2.51 -28.23)"/>
    <path class="cls-1" d="M522.21,135.11c.56.82.95.8,1.72,1.1,0-.6-1.2-2.29.4-.55.06,2.46,1.15,4.32,1.32,2.89C529.16,142.69,525,127.87,522.21,135.11Z" transform="translate(-2.51 -28.23)"/>
    <path class="cls-1" d="M524.72,133.05c9.44-5.33,6.51,3.21,9.11-.14,1.12-1.1-.78-3.15.66-1.92,2.52,1.23,2.69-2.09,3.57.41.72,0,.28-1,.13-1.38,2-1.28.85-1.58,1.58.69,1.59-3.12-1.53-8.13-1.58-11.82-.94-2-5.14-4.09-3.17-3.3,1.2.86-.42,1.33-.92.41-2.17.65,2.54,4.56,1,7.7-3.68,6.5-2.36-.78-3.69,1.51C535.32,131,520.22,129.34,524.72,133.05Z" transform="translate(-2.51 -28.23)"/>
    <path class="cls-1" d="M463.85,175.53c3.35-7.77,7.22,28.39,7,9.48-.88-3.89-4.94-9.1,0-3.16-.22,10.82,1.66,22.39,10.1,31.19,5.09,2.78-1.31-11.8-2.95-13-6.57-4.81-6.26-9-5.17-16.84a.92.92,0,1,1,1.72.55c1.38,1.75,4.49,1,4.49,4.68.66,0,1.29-1.33,1.19.41,1,2.07,3.14-1,2.37,4.54.64.92,1.18-.59,2.78-1.52-.8-2.35-.74-.52.65-.27-.55-2.91-1.17.1.4-1.38-1.17-1.2-.1.49-.13-1.37,17.43-2-12.56-21.12-.53-25.33,4.93-.84,1.1-.38,4.62,0,.31-.29-.13,2.6.53,2.89,2.89-.29-1.19-1.38,1.19-2.61,5.4-.81,8.51-2.36,12.94-5.5.9-1.5-.32-1.46,1.19-2.2,1.06,1,.46-3,2-1.65-1.08-4.14.33-2.3,1.06-7.15,2.61.8-1.49-1.8.66-1,.34-.36-1.05-1.13-.35-1,1.1.54.19-1.83.21-.75-.26,0-1.07.39-.26,0,1.68-1.23-2.46-2.09-2.11-1.24-2.36-1.36,6.54-1.76-3.7-5.22,8.14,3.34.61-4.18-3-6-.66-6.21,9.4-6.44-.54-7.56,1.18,3.29-7.31-2.24-5.67-3.57,4.34.34,5.44-9.72,6.86.55-1.78,2.11,6.31-5.62,6.61-.14.62,1,1.82.17,0,.69.52,2.44,1.13.82,3.16,1.78.35-.58,2.27-1.17,3.27-1.55-5.59,1.81.76,7.26-.1,9.42.58,2.06,2-.53,1.85.42.46.4.84,0,.26-.42.17-.64.8.72.66-.13-.84-.83,1.62.23,1.19-1,4.48-.76-3.75-9.25-6.46-10.34-.52-1.22,1.44-2.24,2.37-3.58.2-1.05-1.7-2.86,0-3.55,1.54,1.33.66,0-.14-.46.39-.51,1.23.15,1-.66-1.2-3.11-4.33-6,.79-4.81,0-12.51-5.71-2.76-12.28-9.76-4.29-.56-23-18.6-20.21-6.32-.6,4.62.54,6.61-4.75,3.84C468.25,99,455,92.14,445.1,90.8c3,8.23-5,3.24-9.9,2.21-3.47,2.79-9.35,3.2-3.17,6.6.51,1.48-5.48-3.2-4-3.3-3.7-1-10.58-5.85-14.13-3.58-14.4-14.36-7.11-3.6-16.76-8.11-4-4.18-14.74.14-19.55,1.65,1,1,4,1.53.53,1.52-.59,1.32,1.39,1.45-.79,2.33,1.68,1.44,6,2.52.53,3-3-1.29-5.4-.55-8.45-.69-1.1-.35-4.7-1.8-7.79-1.92-.06,1.73-4,1.81-2.51,3.84-.13,2.29-3-2.9-2.77.28-2.23,4.19,3.78,6,5.14,8.8.28-.84,4.14-2,6.34-1.24.95,2.37,1.63,4.34-1.18,3.44-3.74.72,2.05,2.63-2.65,1.78,6.55,6,6.61,10.51,9.51,17.19,4.73.45-8.05,4.56-10-2.31,0-4.61,2.63-3.84-.92-7.18-4,.32-20.31-9.15-15.45-2.06,3.55.47,6,5.9,11.2,8.09-.71,1.53-2.94-2.51-3.54-1.73-1.67,1.18,3.65,9.75,1.59,6.84-30.42-5.88-15.52,23.51-6.74,39.62,11.17,13.55,3.82,26.51,25.62,10.17,6.63-3,12.18-7.6,14-15.53-3.41-2.93-8-4-7.53-9.07-8,13.07-7.61-.12-11.61,1.78,4.08-3.31-3.39-3.48-3.17-5.22-1.43-2.11-3.64-8.46-3.18-8.38,3,5,4.08-1.18,7.8,7.7,7,3.44,9.42,2.13,16,6,7.2,1.48,13.75-1.36,18.09,4.09,2.69-3.14-1.55,3,3,1-2.17,1.75,2.86,3.75,3.7,1.93-6.11,3.69,3.74,8.26,3.43,2.89,2.32-2.11.88,10.13,4.62,15.39,1.15,3.2,5.39,11.42,5.81,13.61,1.56,9.64,6.67-4.5,5.94,4.43,1.79,10.51,6.74-1.79,1.06-4.81-1.32-.51,1.63-6.72.27-9-1.64-6,8.06-12.84,11.08-15.39-.5.09,2.68-6.83,3-5-.14,1.15.7,1.24.66.27.62,1.62,0-.13.37-.71.2-.4-.14,1.89.43,1,.67.85.12-1,.26-1.89.33-1.84-.07.84.53-.14-.41,0,.43,2,.52-.14.83,1.27-.56-2,.14-2.06.32,1.35,1.19,1.79,1.71.41,2,6.2,2.77,5.1,2.12-.72,4.1,1.83-2,6,.66,8.42.45-2.09.09-.08.66.69-.53-1.17,1.18-.39,2,.83-1.84.56,2.86,2.83,1.71,8.38,1.29-1.88,0-.3.8.27.58-1.49.17.9.92-.68-.11,1,1.26,1,1.72-.55C464.36,176.3,462,173.85,463.85,175.53Z" transform="translate(-2.51 -28.23)"/>
    <path class="cls-1" d="M485.9,192c-.13-.14-.26-.41-.39-.55C485.51,191.75,485.64,191.88,485.9,192Z" transform="translate(-2.51 -28.23)"/>
    <path class="cls-1" d="M486.69,189.27c0,.28-.13.41.14.55C487,189.68,486.83,189.41,486.69,189.27Z" transform="translate(-2.51 -28.23)"/>
    <path class="cls-1" d="M491.58,184.6l-.13-.14A.13.13,0,0,0,491.58,184.6Z" transform="translate(-2.51 -28.23)"/>
    <path class="cls-1" d="M484.05,164.8c0-.13,0-.13-.13-.13Z" transform="translate(-2.51 -28.23)"/>
    <path class="cls-1" d="M484.19,164.8c.13.14.13.28.26.28C484.71,164.8,484.32,164.67,484.19,164.8Z" transform="translate(-2.51 -28.23)"/>
    <path class="cls-1" d="M485.11,163.7c0,.14-.13.42-.13.55C485.24,164.12,485.51,163.84,485.11,163.7Z" transform="translate(-2.51 -28.23)"/>
    <path class="cls-1" d="M485.37,164.25l-.26.28C485.37,164.53,485.37,164.39,485.37,164.25Z" transform="translate(-2.51 -28.23)"/>
    <path class="cls-1" d="M488.28,168.48c.6,7,6.71-2.49,3.7-1.51C490.33,166.32,489.47,166.9,488.28,168.48Z" transform="translate(-2.51 -28.23)"/>
    <path class="cls-1" d="M526.57,193.67c-1.36-4.23-2.55.06-4.23,1.38-2.13,1.41.27-1-1.45-.83-.84-.47-3.19,1.86-2.77,3.57.56,2.26,1.23-3.67,1.72-.68,3.14-2.1,1.22,2.32,4.62,3.71.63-1.62.16.78.79.69.81-.53-.49-6.29.79-3.17,0-1.48.53.82.66,1.38C527.5,197.71,526.89,195.35,526.57,193.67Z" transform="translate(-2.51 -28.23)"/>
    <path class="cls-1" d="M369.39,112.09s0-.08-.07-.11A.17.17,0,0,0,369.39,112.09Z" transform="translate(-2.51 -28.23)"/>
    <path class="cls-1" d="M361.71,103.1l.08.08C361.79,103.1,361.75,103.08,361.71,103.1Z" transform="translate(-2.51 -28.23)"/>
    <path class="cls-1" d="M502.67,233.81c-8.24-4.8-7.13-.46-13.6-3.71C475.31,228.91,504.06,239.25,502.67,233.81Z" transform="translate(-2.51 -28.23)"/>
  </g>
  <g id="Australia">
    <path id="path3566" class="cls-1" d="M576.22,327c5,3.91,19.51-8.67,23-12.64-2-1.05-17.44,7.93-23,12.64" transform="translate(-2.51 -28.23)"/>
    <path id="path3568" class="cls-1" d="M599.06,314.37c-.26.14-.53.27-.53.55a1.05,1.05,0,0,0,.53-.55" transform="translate(-2.51 -28.23)"/>
    <path id="path3570" class="cls-1" d="M599.72,315.74c1.2,2.39,10.23-6.79,12.28-8.38-.1-1.66-6.54,3.07-3.7-2.48-.64.42-.18-.92-.53-.27-.1.4-1,2.38-.79,1-1.81-.11,1.4-3.58.4-3.85-3.55-5.25-1,1.14-2,4,1.26.54-3.23,4.85-5,5.91,3.86,1.63-2.21,5.16-.66,4.12" transform="translate(-2.51 -28.23)"/>
    <path id="path3572" class="cls-1" d="M607.25,304.88c-.14,0-.27.14-.4.14.26.14.4.14.4-.14" transform="translate(-2.51 -28.23)"/>
    <path id="path3574" class="cls-1" d="M608.57,303.23c-.27.14-.4.83-.14.69s.14-.55.14-.69" transform="translate(-2.51 -28.23)"/>
    <path id="path3366" class="cls-1" d="M565.65,260.89c.27-.13,0-.41,0-.68a.46.46,0,0,0,0,.68" transform="translate(-2.51 -28.23)"/>
    <path id="path3368" class="cls-1" d="M570.14,265.43a.5.5,0,0,0,.14-.41.48.48,0,0,0-.14.41" transform="translate(-2.51 -28.23)"/>
    <path id="path3348" class="cls-1" d="M495.15,297.46c5.22-2.06.44-20,1.71-17.19,1.44-.44-.76-1.83.13-2.61,2.31,5-.36-2.91,1.85-5.91.76-4.55,10.32-6.24,15.45-7.83,3.39-.89,4.46-12,6.08-5.09,1-6.2,1.57-.91,2.77-4.12-.76-.81.88-2,1.05-1-.42-1.11.64-.33.93-2.33.69-.41,1.66.57,1.58-1.24.77-.46,5.57-.12,3.7,3.58,1.31-3.5,3,0,3.43-1.65-.38-2.47,2.82-7.9,6.21-6.33,2.21-1.61-1.46-2.05-.53-2.89.25.48.5,1,.26,0,3.07,2,7.45,3.7,9,2.07-1.16,5.38-5.91,8.37,3.31,12,5.75,7.11,6.3-11.94,7.39-11.83,3.6-8.2.61,6.59,6.07,7-.54,4.49-.19,11.8,4.09,12.38,3.58,8.61,10,20.58-2.11,30-6.75,6.53-14.38,18-19.54,12.92.63-2-2,.86-3.56,1.37-6.22-1.24-5.48-5.92-4.23-8.38-4.55,1.94-.23-.05-1.19-2.89-6.16,6.26.7-.59.93-3.71-3.92,3.47-6.85,9.05-7.13,1.51-5.81-12.3-32.42,9.46-37.63,2.2" transform="translate(-2.51 -28.23)"/>
    <path id="path3954" class="cls-1" d="M558,238.35c-.43-16.06,2.73-18.21,13.46-7.7,3.09,2.08-4.32,2.21,1.06,5.22.16,2.5,2,3,3.3,3.72-2.45,1.51,3.47,1.22.4,1.78-.77,2.7-8.55-5.36-10.7-7-2.83-.41-1.51,2.49-5.28,1.51,4.79,1.65-.92,3.28-2.24,2.48" transform="translate(-2.51 -28.23)"/>
    <path id="path3982" class="cls-1" d="M574.63,230.65c2.82,3,9.76-3.44,6.21-4.12-1.09,4.54-9.37,1.5-6.21,4.12" transform="translate(-2.51 -28.23)"/>
  </g>
</svg>
