<svg xmlns="http://www.w3.org/2000/svg" width="1377.64" height="236.27" viewBox="0 0 1377.64 236.27">
  <defs>
    <style>
      .cls-1 {
        opacity: 0.19;
      }

      .cls-2 {
        fill: #fff;
      }

      .cls-3 {
        fill: #287ca0;
      }
    </style>
  </defs>
  <g id="Слой_2" data-name="Слой 2">
    <g id="Слой_1-2" data-name="Слой 1">
      <g>
        <g class="cls-1">
          <g>
            <path d="M278.34,151.44c.25,4.08.33,8.16.32,12.23.36-2.45,1.1-6.07,2.23-10.92a153.1,153.1,0,0,1,4.61-16.6c2.46-6.63,3.69-11.85,3.69-15.49a8.78,8.78,0,0,0-2.55-5.86,8.15,8.15,0,0,0-6.82-2.64,9.75,9.75,0,0,0-6,2.26A351.79,351.79,0,0,1,278.34,151.44Z"/>
            <path d="M335.88,190.94c-4.34-3.34-6.5-12.18-6.5-26.61a117.65,117.65,0,0,1,4.36-33.27,26.15,26.15,0,0,0,1.26-5.73q0-9.8-7.69-9.55a8.43,8.43,0,0,0-7.32,4.56c-1.73,2.93-3.7,9.07-5.91,18.27a61.76,61.76,0,0,1-14.26,26.71c-7.29,8.24-13.07,11.83-17.35,11.4-2.16-.23-3.45-2.49-3.89-6.77-.16,7.25-.51,14.47-.68,21.7l.18,1a10.49,10.49,0,0,0,1.51.33c6.4.91,12.71-.8,18.94-5.45S310.23,176,315,166.86c0,10.16,1.05,18.35,3.14,24.66s5.09,9.77,9,10.28a11.2,11.2,0,0,0,7.18-1.78c2.51-1.48,3.77-3.27,3.77-5.3A4.77,4.77,0,0,0,335.88,190.94Z"/>
            <path d="M413.72,193.5q-3.57-8.79-5.19-32c-1.09-16.09-3.51-24.1-7.27-24.11-3.56,0-9.71,8.27-18.45,24.07s-14.12,26.89-16.15,34.22a11,11,0,0,1-2.48,5.33c-1.21,1.34-2.41,1.94-3.59,1.81q-11.25-1.29-11.25-13.28c0-2.71.74-8.78,2.22-18.33,1.92-12.35,2.89-27.66,2.89-45.77a16.62,16.62,0,0,1,3-8.82c2-3.17,4.17-4.81,6.44-4.88q4.29-.14,6.59,2.38t2.3,13.73c0,5.67-1.41,16.7-4.22,32.78,10.71-29.66,22.66-45.75,35.86-46,11.46-.3,18.19,11.15,20.17,34.55,2,23.8,4.25,35.9,6.83,36.06a9.85,9.85,0,0,0,3.93-.74,10.94,10.94,0,0,1,4.23-.93q3.56.18,3.56,5.66c0,3.33-1.63,6.77-4.9,10.26A14.34,14.34,0,0,1,426,204.08c-5.74-.47-9.85-4-12.32-10.59Z"/>
            <path d="M500.87,179.55c-12.83,24.73-25.73,36.06-38.7,35-5.25-.4-9.48-3.51-12.7-9.22s-4.82-12.75-4.82-21.17c0-17,5.28-33.7,15.85-50.8s21.28-26.13,32.12-26.33q9.38-.18,13.31,6.57C509.64,91,511.85,76.73,512.54,71q2.24-15.86,3.72-21.15a18.58,18.58,0,0,1,4.54-8.33q3-3,5.28-3.17c2.52-.15,4.46,1.21,5.8,4.08a26.36,26.36,0,0,1,2,11c0,2-1.09,7.66-3.27,17q-5.36,22.86-9.93,54.81c-3,21.28-4.57,38.1-4.57,50.65q0,18,5.65,18.21a10.7,10.7,0,0,0,6.17-2c2.18-1.31,3.72-2,4.61-1.93q3.65.12,3.65,6.12c0,4.84-2.47,9.58-7.4,14.13s-9.61,6.67-14,6.42c-4.75-.27-8.42-4.05-11-11.26S500.23,189.82,500.87,179.55Zm-8.25-52.74c-6.49,0-13.26,6.88-20.31,20.19s-10.59,25.28-10.59,36.3q0,9.66,5.35,10c6,.33,13.25-6.5,21.62-21s12.56-26.27,12.56-34.9a12.26,12.26,0,0,0-2.38-7.25A7.29,7.29,0,0,0,492.62,126.81Z"/>
            <path d="M661.27,89.42q-.66.87-1.19,4.92t-3,37.59q-2.51,33.56-2.5,53.65a145.46,145.46,0,0,0,1.34,18.57,14.86,14.86,0,0,1,.37,3.5,23.36,23.36,0,0,1-2.34,10.59q-2.34,4.68-6,4.65-2.46,0-6.22-3.61t-4.5-12.1q-.75-8.52-.75-22.14,0-18.66,3-55.51T643,91.88q-2.09,0-16.67,1.73t-17.05,1.77q-7.66.08-10.64-2.76c-2-1.88-3-4.88-3-9,0-3.67,1.06-6.5,3.16-8.48s7.46-3.06,16-3.18A223.5,223.5,0,0,0,657,67.47c15.49-3.56,27.23-5.27,35.22-5.22,8.93,0,14.37,1.66,16.3,4.76a17.38,17.38,0,0,1,2.91,9.24c0,7-2.14,10.55-6.41,10.53a55.1,55.1,0,0,1-6.7-.69,93.53,93.53,0,0,0-10.94-.59C674.77,85.46,666.09,86.79,661.27,89.42Z"/>
            <path d="M718.14,168.5q12.36-33.93,21.33-46c6-8.11,12-12.11,18.12-12.07,4.22,0,7.73,2.16,10.53,6.36s4.85,15.08,6.14,32.62q.81,12.51,2.08,20.19t2.83,13.57a46.62,46.62,0,0,0,4.46,11,16.5,16.5,0,0,1,2.23,7.92,11.32,11.32,0,0,1-2.56,7.12,7.83,7.83,0,0,1-5.92,3.41q-6.61.24-11.75-10t-6.11-28.69q-1.18-22.47-2.56-28.72t-4.58-6.24c-2.88,0-8.47,8.34-16.78,25.14s-14.31,30.33-18,40.46q-3.42,11.47-5.28,14.88t-4.62,3.45a9.16,9.16,0,0,1-7.37-3.19q-2.83-3.24-2.83-9.25,0-3,2-18.47Q707.12,133.29,712,67.32q1.2-15.9,4.58-21.89t6.22-5.93q3.94.07,6.84,4.59t2.91,12.43a225,225,0,0,1-2,28q-2,15.84-7.52,50.6Q719.64,156.08,718.14,168.5Z"/>
            <path d="M859.39,177.93c0,7-4.34,15.61-13,26s-18.46,16-29.36,16.58q-12.57.69-19.78-10.27C792.43,202.89,790,192.45,790,179a110.73,110.73,0,0,1,14.73-55.71c9.82-17.18,20.3-25.42,31.45-25.15,5.55.13,10,2.68,13.38,7.59a29.85,29.85,0,0,1,5,17.33c0,11.83-4.14,23.07-12.41,34a67.35,67.35,0,0,1-31.82,23.39q-2.24.79-2.23,3.85a16.14,16.14,0,0,0,3.16,9.51,9.32,9.32,0,0,0,8.44,4.23c10-.41,19.85-8.08,29.66-22.54q2.82-4.18,5.5-4.26Q859.39,171.12,859.39,177.93Zm-49.88-17c7.83-2.38,14.73-7.2,20.71-14.39s8.95-13.6,8.95-19.38a11.15,11.15,0,0,0-1.37-5.73,4.1,4.1,0,0,0-3.53-2.36c-4.31,0-9.1,4.34-14.35,13.25A82.49,82.49,0,0,0,809.51,161Z"/>
            <path d="M1035.45,192.57a10.9,10.9,0,0,1-3.88,3.82,12.22,12.22,0,0,1-4.62,2c-3.3.42-6.29-1-9-4.49s-6.64-12.56-11.87-27.88-8.11-24.75-8.65-27.53q-9.13,19.22-18.28,39.56c-10.12,22.52-16.86,34.67-20.22,35a8.54,8.54,0,0,1-6.23-1.46q-2.6-1.87-4.92-8c-1.56-4.11-3.67-13.4-6.34-28.08s-5.08-29.68-7.23-45-3.57-24.82-4.26-28.44q-.68-3.61-1.27-5.82a52.29,52.29,0,0,1-1.92-11.1,12.74,12.74,0,0,1,2.89-7.93q2.9-3.74,6.75-3.45c4.69.35,8,5.31,9.86,14.77s2.93,16.09,3.18,20q1,7.83,1.93,15.62t2.3,16.81q1.47,9.34,2.37,15.89c2,14.62,3.26,22.59,3.85,24.07,9.24-18.7,15.33-30.84,18.3-37.31s7.35-17.12,13.17-31.52a10.2,10.2,0,0,1,3.37-3.81,7.48,7.48,0,0,1,4.77-1.57c2.12.09,3.9,1.42,5.33,4s3.87,9,7.32,19.19a18.14,18.14,0,0,0,.74,2.26q3,8.94,6,17.68c5.32,15.62,8.25,23.25,8.79,23.6,14.09-30.48,22.53-58.74,25.34-87.6a4.78,4.78,0,0,1,2.54-4.46,9.41,9.41,0,0,1,5.87-1q4.57.56,6.49,3.65a12.33,12.33,0,0,1,1.92,6.64c0,4.9-1.33,12.47-4,23a273.7,273.7,0,0,1-11.81,35c-.71,1.8-1.43,3.61-2.14,5.42-.54,1.56-4.5,10.31-11.89,27.38C1037.76,186.71,1036.24,190.45,1035.45,192.57Z"/>
          </g>
        </g>
        <g>
          <path class="cls-2" d="M31.21,155.64c-.83,2.15-3.41,6.89-7.71,13.9s-7.29,10.65-9,11.26a9.21,9.21,0,0,1-4.42.62c-1.77-.26-3.9-1.58-6.38-3.9S0,173,0,171s6.17-11.27,18.52-30.29A342.23,342.23,0,0,0,37,108.23C48.14,85.7,55,71.36,57.47,67.4s5-6.21,7.64-6.49c4.19-.45,7.22.49,9.09,2.85.94.72,1.4,2.61,1.4,5.68A24.26,24.26,0,0,1,75.09,75c9,31.61,16.07,55.39,21.18,69.49s10.21,24.79,15.34,31.67a58.73,58.73,0,0,1,4.7,6.95,10.66,10.66,0,0,1,.85,4.56,11.53,11.53,0,0,1-3,8.26,7.86,7.86,0,0,1-7,2.56c-3.74-.49-7.55-3.69-11.42-9.43s-7.52-13.35-10.94-22.7-5.14-14.47-5.14-15.58a.34.34,0,0,0-.37-.37c-2.66-.16-8.59.62-17.77,2.16s-16.56,3-22.12,4.5a11.47,11.47,0,0,1-3.77.42A6.88,6.88,0,0,1,31.21,155.64Zm42.55-23.18c-1.19-3.41-4.68-15.72-10.5-35.95-.54-1.84-.91-3-1.1-3.51q-10.5,23.37-21,44.9,4.65-.71,9.53-1.27c2.16-.2,7.68-1.14,16.54-3Q70.51,133,73.76,132.46Z"/>
          <path class="cls-2" d="M141.94,147.05c.42-1,.83-2,1.25-3.05,6-15.47,12.4-28.38,19.29-38.55s13.61-15.58,20.18-15.81A14.62,14.62,0,0,1,195,95a22.66,22.66,0,0,1,3.15,22.36q-1.64,3.6-4.52,3.58c-3.07,0-5.86-1.78-8.37-5.26-1.78-2.26-3.19-3.37-4.23-3.36-3.7,0-9.9,8-18.59,23.32a124.21,124.21,0,0,0-15.69,50.65c-.55,5.4-1.75,9.08-3.63,11s-4.42,2.72-7.62,2.33c-3.41-.42-5.82-3.21-7.25-8.33s-2.15-13.26-2.15-24.47q0-6.9.3-18.6c.19-7.36.76-16.35,1.7-27,.24-2.78.42-5,.52-6.54a90.06,90.06,0,0,1,1.51-12.79,14.47,14.47,0,0,1,4-6.65A10.07,10.07,0,0,1,141,92a6.6,6.6,0,0,1,6.07,2.8,11.23,11.23,0,0,1,2.08,6.58c0,3.06-1.11,9.45-3.33,19a104,104,0,0,0-2,11.82Q142.86,139.64,141.94,147.05Z"/>
          <path class="cls-2" d="M266.8,150.51c-3.32,17.39-9.61,31.76-18.88,42.82s-18.53,15.88-27.77,14.94c-7.32-.74-13.34-5.22-18.09-13.23S195,177.66,195,166.73c0-17.85,4.35-35.17,13-52.78s19.25-27,31.66-27.42c8.45-.28,15.3,4.13,20.54,13.44s7.87,20.63,7.87,33.73a109.09,109.09,0,0,1-1.26,16.69Zm-38.57-35.35c-3.46,4.47-6.85,11.54-10.16,21.14a87.74,87.74,0,0,0-5,28.84,41.27,41.27,0,0,0,2.26,14.69c1.5,3.93,3.49,6,6,6.19,6.13.47,12.51-4.29,19.13-14.63s9.94-22.4,9.94-35.87c0-7.58-1.07-13.83-3.22-18.7s-5.16-7.28-9-7.24c-3.65,0-6.94,1.91-9.86,5.58Z"/>
          <path class="cls-2" d="M330.92,169.08q-7.12,20.46-16.52,31.86c-6.26,7.61-12.61,11.06-19,10.53-3.82-.31-7.66-3.74-11.55-10.18s-5.82-16-5.82-28.67c0-9,1.48-22.47,4.45-40.64,2.57-15,3.86-26.49,3.86-34.33,2-6.43,5.07-9.73,9.28-9.84,2.87-.07,5.16,1.35,6.86,4.29A17.59,17.59,0,0,1,305,101c0,5.49-1.24,13.33-3.72,23.43-1.43,6-3,14.48-4.64,25.38s-2.48,17.86-2.48,20.92q0,15.3,4.08,15.54c4.31.25,10.12-5.81,17.45-18.55A117.44,117.44,0,0,0,330,127.82c2.23-13.48,4.21-22.38,5.94-26.6s4.18-6.38,7.35-6.44q7.73-.14,7.73,13.83a50.45,50.45,0,0,1-1.27,8.18,237.84,237.84,0,0,0-4.38,47.82q0,31.14,6.54,37.66a7.14,7.14,0,0,1,2.15,5.19,10.77,10.77,0,0,1-3.79,7.94q-3.78,3.57-7.2,3.31c-3.91-.29-6.92-5-9-13.92S330.92,183.93,330.92,169.08Z"/>
          <path class="cls-2" d="M429.89,200.21q-3.57-11.52-5.2-42.53Q423,125.4,417.4,125.41c-3.57,0-9.74,11.14-18.51,33s-14.17,37.66-16.2,48A19.94,19.94,0,0,1,380.2,214q-1.83,3-3.61,2.84c-7.53-.49-11.29-6.38-11.29-17.62,0-3.81.74-12.43,2.23-25.92q2.89-26.17,2.9-64.27a29.41,29.41,0,0,1,3-12.3c2-4.38,4.19-6.61,6.47-6.65a7.25,7.25,0,0,1,6.61,3.46q2.31,3.54,2.31,19c0,7.81-1.42,23-4.24,45.3,10.75-41.4,22.74-62.82,36-63,11.49-.16,18.24,15.16,20.22,46.11,2,31.51,4.26,47.38,6.84,47.47a8,8,0,0,0,3.94-1.15,9.29,9.29,0,0,1,4.24-1.4q3.57.12,3.57,7.29c0,4.35-1.63,8.93-4.91,13.7s-7.38,7-12.34,6.78c-5.75-.27-9.87-4.74-12.34-13.35Z"/>
          <path class="cls-2" d="M517.05,178.68c-12.84,31.8-25.76,47.11-38.76,46.53q-7.87-.36-12.72-11.31t-4.83-27.44c0-22.3,5.29-44.32,15.88-66.51s21.31-33.56,32.18-33.67q9.37-.11,13.31,8.52c3.72-28.73,5.93-46.76,6.63-54q2.22-20,3.72-26.68A24.7,24.7,0,0,1,537,3.8q3-3.72,5.28-3.8,3.79-.12,5.81,5.37a41.19,41.19,0,0,1,2,14c0,2.47-1.09,9.61-3.27,21.37q-5.36,28.67-9.93,69c-3.06,26.9-4.58,48.23-4.58,64.12q0,22.77,5.65,22.9,2.91.07,6.18-2.63t4.62-2.55q3.65.06,3.64,7.61c0,6.09-2.47,12.11-7.4,18s-9.62,8.76-14,8.61q-7.14-.22-11-13.88T517.05,178.68Zm-8.25-67.19c-6.5,0-13.28,8.74-20.35,26s-10.6,32.88-10.6,47.17q0,12.53,5.35,12.7c6.05.19,13.27-8.94,21.65-27.66S517.43,136,517.43,125a18.7,18.7,0,0,0-2.38-9.24C513.46,112.9,511.37,111.48,508.8,111.49Z"/>
          <path class="cls-2" d="M677.21,65.65q-.66,1.08-1.19,6.06T673,118q-2.5,41.34-2.5,66.1A220,220,0,0,0,671.85,207a22.29,22.29,0,0,1,.38,4.31,34.58,34.58,0,0,1-2.35,13.06q-2.34,5.78-6,5.76-2.46,0-6.22-4.41t-4.5-14.89q-.75-10.5-.75-27.31,0-23,3-68.47T659,68.65q-2.09,0-16.67,2.07t-17,2.09q-7.66,0-10.64-3.49t-3-11.17q0-6.82,3.16-10.47t16-3.76A178.35,178.35,0,0,0,672.9,38.6q23.22-6.51,35.21-6.44,13.39,0,16.3,5.79a25,25,0,0,1,2.91,11.38q0,13.05-6.4,13a46.12,46.12,0,0,1-6.71-.83,77.33,77.33,0,0,0-10.94-.7Q684.43,60.79,677.21,65.65Z"/>
          <path class="cls-2" d="M733.93,163.18q12.36-41.84,21.33-56.88t18.13-15q6.32,0,10.53,7.86t6.14,40.6q.81,15.6,2.08,25.17t2.83,17a67.72,67.72,0,0,0,4.47,13.84,24.94,24.94,0,0,1,2.23,9.94,16.18,16.18,0,0,1-2.57,8.83c-1.71,2.69-3.68,4.07-5.91,4.11q-6.63.14-11.77-12.72t-6.1-35.72q-1.19-27.92-2.57-35.67t-4.58-7.75c-2.87,0-8.47,10.33-16.78,31.07s-14.31,37.38-18,49.86Q730,221.79,728.12,226t-4.61,4.21a8.55,8.55,0,0,1-7.37-4q-2.83-4-2.83-11.43,0-3.63,2-22.75,7.59-72.28,12.43-153.72,1.2-19.62,4.58-27.05t6.22-7.39q3.94,0,6.85,5.58t2.9,15.34a343.56,343.56,0,0,1-2,34.6q-2,19.58-7.52,62.54Q735.43,147.85,733.93,163.18Z"/>
          <path class="cls-2" d="M875.11,177c0,9-4.34,19.89-13,32.76s-18.48,19.56-29.4,19.91q-12.57.41-19.79-13.54t-7.22-39.22a166.67,166.67,0,0,1,14.73-69.7c9.83-21.59,20.32-32.19,31.48-32,5.56.07,10,3.24,13.4,9.46s5.05,13.57,5.06,22.08c0,15.12-4.15,29.51-12.43,43.35s-18.9,23.55-31.85,29.05q-2.24,1-2.23,4.8a24.4,24.4,0,0,0,3.16,12q3.16,5.67,8.45,5.54c10-.24,19.87-9.6,29.69-27.81,1.88-3.52,3.72-5.29,5.5-5.33Q875.11,168.25,875.11,177Zm-49.93-22.45q11.76-4.35,20.72-18t9-24.55a17.13,17.13,0,0,0-1.38-7.28c-.92-2-2.09-3-3.53-3-4.32,0-9.11,5.55-14.36,16.8A122.23,122.23,0,0,0,825.18,154.51Z"/>
          <path class="cls-2" d="M1051.4,207.14a12.38,12.38,0,0,1-3.9,5.17q-2.77,2.26-4.64,2.42c-3.32.24-6.32-2.22-9-7.44s-6.68-18.71-11.92-40.77-8.15-35.27-8.7-39.21q-9.16,27-18.35,54.63c-10.15,30.58-16.92,46.38-20.29,46.58a7.53,7.53,0,0,1-6.24-2.52q-2.61-2.76-4.94-11.24c-1.57-5.66-3.68-18.35-6.36-38.18s-5.09-40-7.25-60.39-3.58-33.09-4.27-37.89c-.45-3.2-.87-5.78-1.27-7.72a89,89,0,0,1-1.93-14.7,21.38,21.38,0,0,1,2.9-10.69q2.89-5.11,6.76-4.95c4.71.2,8,6.67,9.89,19.35s3,21.62,3.2,26.86Q966,97,967,107.54t2.31,22.78q1.49,12.69,2.37,21.61c2,19.92,3.27,30.85,3.87,32.89,9.26-25,15.38-41.67,18.36-50.58s7.38-23.63,13.22-43.94a14.8,14.8,0,0,1,3.38-5.46,6.49,6.49,0,0,1,4.79-2.36c2.13,0,3.92,1.86,5.35,5.42s3.89,12.69,7.36,27.22c.15.88.39,2,.74,3.23q3,12.81,6,25.5c5.34,22.67,8.29,34.07,8.83,34.61,14.16-43.36,22.65-86,25.47-129.68,0-3,.85-5.34,2.56-7a7.51,7.51,0,0,1,5.9-2.21,7.27,7.27,0,0,1,6.53,4.86,25.19,25.19,0,0,1,1.93,10c0,7.55-1.33,19.35-4,35.6a533.25,533.25,0,0,1-11.88,53.16c-.72,2.68-1.43,5.37-2.15,8.06-.55,2.28-4.53,15.37-12,39.94C1053.73,198.78,1052.19,204.11,1051.4,207.14Z"/>
          <path class="cls-2" d="M1158.3,148.74c-3.31,16.67-9.6,31.07-18.87,43.41s-18.52,19.2-27.77,20c-7.32.68-13.36-2.83-18.11-10.67s-7.12-17.86-7.12-29.89a137,137,0,0,1,13.06-57.95c8.71-18.78,19.26-27.63,31.67-27.21,8.46.28,15.3,5.1,20.54,14.21s7.86,19.75,7.86,32.11a99.08,99.08,0,0,1-1.26,15.84Zm-38.56-33.64c-3.46,4.56-6.85,11.9-10.16,22.09a99.29,99.29,0,0,0-5,30.75c0,6.21.75,11.3,2.26,15.24s3.5,5.8,6,5.63c6.14-.43,12.51-6.34,19.14-17.42a69.13,69.13,0,0,0,9.94-36.24c0-7.42-1.08-13.51-3.23-18.32s-5.15-7.26-9-7.29c-3.66,0-7,1.8-9.86,5.56Z"/>
          <path class="cls-2" d="M1188.67,148.76l1.26-3.32c6-16.77,12.41-30,19.29-40s13.61-14.59,20.18-14.33a16.51,16.51,0,0,1,12.32,5.8,18.71,18.71,0,0,1,4.77,12.71,17.22,17.22,0,0,1-1.63,7.79c-1.08,2.18-2.59,3.28-4.51,3.29-3.06,0-5.85-1.6-8.36-4.89-1.78-2.12-3.19-3.2-4.22-3.21-3.7,0-9.9,7.41-18.58,23.08s-13.93,33.77-15.71,53.67q-.81,8.63-3.62,12.34a10.64,10.64,0,0,1-7.64,4.26c-3.4.38-5.82-2.07-7.26-7.38s-2.15-14.17-2.15-26.56q0-7.62.3-20.57c.2-8.14.77-18.11,1.71-29.84q.36-4.59.51-7.18a106.93,106.93,0,0,1,1.52-14,14.64,14.64,0,0,1,4-7,8.94,8.94,0,0,1,6.89-3.07,7.1,7.1,0,0,1,6.07,3.36,12.63,12.63,0,0,1,2.08,7c0,3.18-1.12,9.73-3.34,19.79a115.86,115.86,0,0,0-2,12.46Q1189.59,140.84,1188.67,148.76Z"/>
          <path class="cls-2" d="M1272.74,36.77q8,1.09,8,11.63a52.72,52.72,0,0,1-1.1,10.3c-.74,3.66-2.76,12.67-6.07,27.38a288.88,288.88,0,0,0-5.51,35.36c-1.25,12.88-1.88,23-1.88,30.27,0,7.75.47,16.94,1.4,27.51.25,2.84.37,4.62.37,5.35a16,16,0,0,1-3.25,9.81c-2.17,2.9-4.54,4.53-7.1,4.86-3.5.46-6-1.31-7.4-5.34s-2.15-11.17-2.15-21.42c0-22,2-48.22,6.11-77.7s7.4-46.3,10-51.26S1269.58,36.35,1272.74,36.77Z"/>
          <path class="cls-2" d="M1337.31,155.06c-12.75,20.64-25.58,33-38.49,34.68-5.22.69-9.43-1.19-12.64-5.75s-4.8-10.73-4.8-18.41c0-15.53,5.26-31.4,15.78-46.37s21.17-21.58,31.95-21.15c6.2.25,10.61,2.21,13.22,5.78,3.69-17.25,5.88-27.69,6.57-31.91,1.47-7.79,2.7-12.87,3.69-15.32a10.08,10.08,0,0,1,4.5-5.35,8.4,8.4,0,0,1,5.24-1.3,7.81,7.81,0,0,1,5.75,4,16.11,16.11,0,0,1,2,8.21c0,1.4-1.08,5.24-3.24,11.68A303,303,0,0,0,1357,113c-3,15.67-4.54,28.43-4.54,37.79q0,13.47,5.61,12.86a15.45,15.45,0,0,0,6.12-2.22,14.48,14.48,0,0,1,4.57-2q3.62-.34,3.62,3.88c0,3.41-2.45,7.08-7.34,11.18s-9.53,6.53-13.91,7.15c-4.72.67-8.37-1.52-10.93-6.69S1336.67,163.14,1337.31,155.06Zm-8.2-41.24c-6.45,0-13.18,5.33-20.2,16.83s-10.53,22.37-10.53,31.95q0,8.42,5.32,7.88c6-.57,13.17-7.53,21.5-20s12.48-21.59,12.48-28.34a8.34,8.34,0,0,0-2.37-5.66A8,8,0,0,0,1329.11,113.82Z"/>
        </g>
        <g>
          <path class="cls-3" d="M34.21,161.64c-.83,2.15-3.41,6.89-7.71,13.9s-7.29,10.65-9,11.26a9.19,9.19,0,0,1-4.42.62c-1.77-.26-3.9-1.58-6.38-3.9S3,179,3,177s6.17-11.27,18.52-30.29A342.23,342.23,0,0,0,40,114.23C51.14,91.7,58,77.36,60.47,73.4s5-6.21,7.64-6.49c4.19-.45,7.22.49,9.09,2.85.94.72,1.4,2.61,1.4,5.68A24.26,24.26,0,0,1,78.09,81c9,31.61,16.07,55.39,21.18,69.49s10.21,24.79,15.34,31.67a57.71,57.71,0,0,1,4.7,7,10.6,10.6,0,0,1,.85,4.56,11.51,11.51,0,0,1-3,8.25,7.83,7.83,0,0,1-7,2.56c-3.74-.49-7.55-3.69-11.42-9.43s-7.52-13.35-10.94-22.7-5.14-14.46-5.14-15.58a.34.34,0,0,0-.37-.37c-2.66-.16-8.59.62-17.77,2.16s-16.56,3-22.12,4.5a11.44,11.44,0,0,1-3.77.42A6.88,6.88,0,0,1,34.21,161.64Zm42.55-23.18c-1.19-3.41-4.68-15.72-10.5-35.95-.54-1.84-.91-3-1.1-3.51q-10.5,23.37-21,44.9,4.65-.71,9.53-1.27c2.16-.2,7.68-1.14,16.54-3Q73.51,139,76.76,138.46Z"/>
          <path class="cls-3" d="M145.09,153.06l1.26-3.05c6-15.47,12.39-28.39,19.28-38.56s13.61-15.59,20.18-15.82A14.62,14.62,0,0,1,198.15,101a22.68,22.68,0,0,1,3.15,22.37q-1.63,3.6-4.52,3.58c-3.07,0-5.86-1.78-8.37-5.26-1.78-2.26-3.19-3.37-4.23-3.36-3.7,0-9.9,8-18.59,23.33a124.36,124.36,0,0,0-15.69,50.66q-.81,8.1-3.63,11c-1.87,1.95-4.42,2.72-7.62,2.33-3.41-.42-5.82-3.21-7.25-8.33s-2.15-13.26-2.15-24.48q0-6.9.3-18.6c.19-7.37.76-16.36,1.7-27,.24-2.78.42-5,.52-6.54a92,92,0,0,1,1.51-12.8,14.49,14.49,0,0,1,4-6.64A10,10,0,0,1,144.13,98a6.59,6.59,0,0,1,6.06,2.79,11.16,11.16,0,0,1,2.08,6.58c0,3.06-1.11,9.46-3.33,19.05a104.21,104.21,0,0,0-2,11.83Q146,145.65,145.09,153.06Z"/>
          <path class="cls-3" d="M270.1,156.52c-3.32,17.4-9.61,31.78-18.88,42.84s-18.53,15.89-27.77,14.95c-7.31-.75-13.34-5.22-18.08-13.23s-7.12-17.4-7.12-28.33c0-17.85,4.35-35.18,13-52.8s19.25-27,31.66-27.43c8.46-.28,15.3,4.13,20.55,13.45s7.86,20.63,7.86,33.74a109.32,109.32,0,0,1-1.26,16.7Zm-38.57-35.36c-3.46,4.47-6.84,11.55-10.15,21.15a87.56,87.56,0,0,0-5,28.85,41.24,41.24,0,0,0,2.26,14.69c1.51,3.94,3.5,6,6,6.2,6.13.47,12.5-4.3,19.13-14.64s9.94-22.41,9.94-35.88c0-7.58-1.08-13.84-3.23-18.72s-5.16-7.27-9-7.24c-3.66,0-6.95,1.91-9.86,5.59Z"/>
          <path class="cls-3" d="M334.37,175.11q-7.12,20.47-16.52,31.87c-6.26,7.62-12.61,11.07-19,10.54-3.81-.31-7.66-3.74-11.54-10.19s-5.83-16-5.83-28.68c0-9,1.49-22.48,4.46-40.66,2.57-15,3.86-26.51,3.86-34.35,2-6.43,5.07-9.73,9.27-9.84,2.87-.08,5.16,1.34,6.87,4.28a17.63,17.63,0,0,1,2.56,9c0,5.49-1.24,13.34-3.71,23.44q-2.16,9-4.64,25.4c-1.66,10.91-2.49,17.86-2.49,20.93q0,15.3,4.09,15.55c4.3.25,10.12-5.81,17.44-18.56a117.19,117.19,0,0,0,14.33-40q3.34-20.25,5.94-26.62t7.36-6.44q7.73-.13,7.72,13.84a51.55,51.55,0,0,1-1.26,8.18,238.12,238.12,0,0,0-4.38,47.84q0,31.16,6.53,37.68a7.13,7.13,0,0,1,2.16,5.2,10.77,10.77,0,0,1-3.79,7.94c-2.53,2.39-4.93,3.49-7.21,3.32-3.91-.29-6.92-5-9-13.93S334.37,190,334.37,175.11Z"/>
          <path class="cls-3" d="M433.5,206.27q-3.57-11.53-5.21-42.57c-1.09-21.53-3.52-32.27-7.28-32.29-3.57,0-9.74,11.16-18.51,33s-14.17,37.69-16.21,48a19.88,19.88,0,0,1-2.48,7.6c-1.22,2-2.42,2.91-3.61,2.84q-11.29-.75-11.29-17.64c0-3.81.74-12.44,2.23-25.94Q374,153.09,374,115a29.44,29.44,0,0,1,3.05-12.3c2-4.39,4.19-6.62,6.47-6.66a7.26,7.26,0,0,1,6.61,3.46q2.29,3.54,2.3,19c0,7.81-1.41,23-4.23,45.32,10.75-41.42,22.74-62.85,36-63q17.25-.25,20.23,46.13c2,31.53,4.26,47.41,6.84,47.5a8,8,0,0,0,3.94-1.14,9.05,9.05,0,0,1,4.24-1.4q3.57.1,3.57,7.29c0,4.35-1.64,8.94-4.91,13.7s-7.39,7-12.34,6.79c-5.75-.27-9.87-4.75-12.35-13.36Z"/>
          <path class="cls-3" d="M520.81,184.72C508,216.55,495,231.86,482.05,231.28c-5.25-.23-9.49-4-12.72-11.31s-4.83-16.43-4.83-27.46c0-22.32,5.29-44.35,15.88-66.55s21.31-33.59,32.17-33.71q9.38-.1,13.32,8.53c3.72-28.74,5.93-46.79,6.63-54q2.22-20.06,3.72-26.69a24.64,24.64,0,0,1,4.54-10.36Q543.8,6,546,5.92q3.8-.12,5.8,5.37a41.29,41.29,0,0,1,2,14q0,3.7-3.27,21.38-5.36,28.68-9.94,69.07t-4.57,64.16q0,22.78,5.65,22.92,2.91.06,6.18-2.64t4.61-2.55q3.65.06,3.65,7.62,0,9.14-7.4,18c-4.94,5.9-9.62,8.76-14,8.62q-7.14-.24-11-13.89T520.81,184.72Zm-8.26-67.23c-6.49,0-13.28,8.75-20.34,26s-10.6,32.91-10.6,47.21q0,12.52,5.35,12.71c6.05.19,13.27-9,21.65-27.68S521.19,142,521.19,131a18.61,18.61,0,0,0-2.39-9.24C517.22,118.89,515.13,117.48,512.55,117.49Z"/>
          <path class="cls-3" d="M681.28,71.61q-.67,1.1-1.19,6.07t-3,46.35q-2.49,41.37-2.49,66.15a217.74,217.74,0,0,0,1.34,22.91,23.16,23.16,0,0,1,.37,4.31,34.44,34.44,0,0,1-2.35,13.07c-1.56,3.85-3.56,5.78-6,5.76-1.64,0-3.71-1.48-6.22-4.41s-4-7.9-4.5-14.9-.74-16.11-.74-27.33q0-23,3-68.52T663,74.61q-2.09,0-16.68,2.07t-17.05,2.1q-7.66,0-10.64-3.5t-3-11.17q0-6.84,3.16-10.49t16-3.76A178.33,178.33,0,0,0,677,44.54c15.49-4.35,27.22-6.47,35.21-6.45q13.41.06,16.31,5.8a25.14,25.14,0,0,1,2.9,11.39q0,13-6.4,13a43.18,43.18,0,0,1-6.7-.83,77.71,77.71,0,0,0-10.95-.69C694.78,66.75,686.09,68.38,681.28,71.61Z"/>
          <path class="cls-3" d="M738.15,169.21q12.36-41.86,21.33-56.92t18.12-15q6.33,0,10.53,7.86t6.15,40.64q.81,15.6,2.08,25.19t2.83,17a68.42,68.42,0,0,0,4.46,13.85,25,25,0,0,1,2.24,9.94,16.19,16.19,0,0,1-2.57,8.84c-1.71,2.7-3.69,4.07-5.92,4.12q-6.63.14-11.76-12.73t-6.1-35.75q-1.2-27.94-2.57-35.7t-4.58-7.76c-2.88,0-8.47,10.34-16.79,31.1s-14.3,37.41-18,49.9q-3.43,14.15-5.29,18.33c-1.24,2.79-2.78,4.2-4.61,4.21a8.55,8.55,0,0,1-7.38-4c-1.88-2.68-2.82-6.5-2.82-11.43q0-3.65,2-22.77Q727.13,125.75,732,44.25q1.18-19.63,4.58-27.07c2.25-4.95,4.33-7.42,6.21-7.4q3.94,0,6.85,5.59t2.91,15.35q0,15-2,34.62T743,127.93Q739.63,153.87,738.15,169.21Z"/>
          <path class="cls-3" d="M879.47,183c0,9-4.34,19.91-13,32.78S848,235.36,837.06,235.71q-12.57.4-19.79-13.55t-7.22-39.24a166.8,166.8,0,0,1,14.73-69.75C834.61,91.55,845.1,81,856.26,81.1c5.56.08,10,3.25,13.39,9.47s5.06,13.58,5.06,22.1c0,15.13-4.14,29.53-12.42,43.38s-18.9,23.57-31.85,29.08q-2.24,1-2.23,4.8a24.37,24.37,0,0,0,3.16,12q3.17,5.68,8.45,5.56c10-.24,19.86-9.62,29.68-27.84q2.84-5.28,5.51-5.33Q879.48,174.29,879.47,183Zm-49.92-22.46q11.75-4.35,20.72-18c6-9.07,9-17.24,9-24.58a17.16,17.16,0,0,0-1.38-7.28q-1.38-3-3.53-3c-4.32,0-9.11,5.56-14.37,16.81A122.71,122.71,0,0,0,829.55,160.54Z"/>
          <path class="cls-3" d="M1056.07,213.2a12.38,12.38,0,0,1-3.89,5.17q-2.79,2.28-4.64,2.42c-3.32.25-6.33-2.22-9-7.45s-6.67-18.71-11.92-40.79-8.15-35.29-8.69-39.23q-9.18,27-18.35,54.66c-10.16,30.6-16.92,46.41-20.29,46.61a7.56,7.56,0,0,1-6.25-2.52q-2.6-2.76-4.94-11.25c-1.56-5.66-3.68-18.36-6.36-38.2s-5.09-40-7.24-60.44-3.59-33.1-4.28-37.91c-.45-3.2-.87-5.78-1.26-7.72A89.49,89.49,0,0,1,947,61.84a21.48,21.48,0,0,1,2.9-10.69q2.91-5.13,6.77-5c4.71.2,8,6.68,9.89,19.37s2.94,21.62,3.19,26.87q1,10.56,1.93,21.11T974,136.33Q975.47,149,976.36,158c2,19.93,3.27,30.87,3.86,32.92,9.27-25,15.39-41.71,18.36-50.62s7.38-23.65,13.23-44a14.8,14.8,0,0,1,3.38-5.46,6.49,6.49,0,0,1,4.79-2.37q3.19.09,5.35,5.44c1.43,3.56,3.88,12.68,7.35,27.23.15.88.4,2,.74,3.23q3,12.81,6,25.51c5.35,22.69,8.29,34.1,8.84,34.64,14.16-43.38,22.64-86.09,25.47-129.77a9.11,9.11,0,0,1,2.56-7,7.49,7.49,0,0,1,5.9-2.21,7.26,7.26,0,0,1,6.53,4.86,25.2,25.2,0,0,1,1.93,10c0,7.55-1.34,19.36-4,35.62a531.05,531.05,0,0,1-11.88,53.2q-1.07,4-2.15,8.06c-.54,2.28-4.53,15.39-12,40Q1057.26,208.63,1056.07,213.2Z"/>
          <path class="cls-3" d="M1163.13,154.76c-3.32,16.68-9.6,31.09-18.87,43.44s-18.53,19.2-27.78,20.05c-7.32.68-13.35-2.83-18.1-10.67s-7.13-17.87-7.13-29.9a137.32,137.32,0,0,1,13.06-58C1113,100.9,1123.58,92,1136,92.46c8.45.28,15.3,5.11,20.54,14.22s7.86,19.76,7.86,32.13a99,99,0,0,1-1.26,15.84Zm-38.56-33.67c-3.46,4.57-6.85,11.92-10.16,22.11a99.13,99.13,0,0,0-5,30.77c0,6.21.76,11.3,2.27,15.24s3.5,5.82,6,5.64c6.13-.42,12.51-6.35,19.14-17.43a69.19,69.19,0,0,0,9.93-36.26q0-11.13-3.22-18.33c-2.15-4.81-5.16-7.26-9-7.3-3.66,0-7,1.81-9.87,5.56Z"/>
          <path class="cls-3" d="M1193.65,154.77l1.26-3.32c6-16.77,12.4-30.06,19.29-40s13.61-14.59,20.17-14.34a16.56,16.56,0,0,1,12.33,5.81,18.74,18.74,0,0,1,4.77,12.72,17.22,17.22,0,0,1-1.63,7.79c-1.08,2.18-2.59,3.28-4.51,3.29-3.06,0-5.85-1.6-8.36-4.89-1.78-2.13-3.19-3.21-4.22-3.21-3.71,0-9.9,7.41-18.59,23.09s-13.92,33.79-15.7,53.7q-.81,8.61-3.63,12.34a10.6,10.6,0,0,1-7.63,4.26c-3.41.38-5.83-2.07-7.26-7.38s-2.15-14.18-2.15-26.57q0-7.62.3-20.58.3-12.22,1.7-29.86c.25-3,.42-5.45.52-7.18a107.38,107.38,0,0,1,1.52-14,14.7,14.7,0,0,1,4-7,9,9,0,0,1,6.89-3.07,7.1,7.1,0,0,1,6.08,3.36,12.6,12.6,0,0,1,2.07,7c0,3.19-1.11,9.74-3.33,19.8a113.23,113.23,0,0,0-2,12.47Q1194.57,146.85,1193.65,154.77Z"/>
          <path class="cls-3" d="M1277.87,42.75q8,1.09,8,11.63a51.93,51.93,0,0,1-1.11,10.3c-.73,3.67-2.76,12.68-6.06,27.4a288.58,288.58,0,0,0-5.51,35.36c-1.26,12.88-1.88,23-1.88,30.28,0,7.75.46,16.95,1.4,27.51.25,2.84.37,4.62.37,5.35a16,16,0,0,1-3.25,9.82c-2.17,2.9-4.54,4.53-7.1,4.87-3.51.45-6-1.32-7.4-5.35s-2.15-11.18-2.15-21.42c0-22.05,2-48.23,6.11-77.72s7.39-46.31,10-51.28S1274.71,42.32,1277.87,42.75Z"/>
          <path class="cls-3" d="M1342.59,161.06c-12.75,20.64-25.58,33-38.49,34.68-5.22.69-9.43-1.19-12.64-5.75s-4.8-10.73-4.8-18.41c0-15.53,5.26-31.4,15.78-46.37s21.17-21.58,32-21.15c6.2.25,10.61,2.21,13.22,5.78,3.69-17.25,5.88-27.69,6.57-31.91,1.47-7.79,2.7-12.87,3.69-15.32a10.08,10.08,0,0,1,4.5-5.35,8.4,8.4,0,0,1,5.24-1.3,7.81,7.81,0,0,1,5.75,4,16.11,16.11,0,0,1,2,8.21c0,1.4-1.08,5.24-3.24,11.68a303,303,0,0,0-9.85,39.15c-3,15.67-4.54,28.43-4.54,37.79q0,13.47,5.61,12.86a15.45,15.45,0,0,0,6.12-2.22,14.48,14.48,0,0,1,4.57-2q3.62-.34,3.62,3.88c0,3.41-2.45,7.08-7.34,11.18s-9.53,6.53-13.91,7.15c-4.72.67-8.37-1.52-10.92-6.69S1342,169.14,1342.59,161.06Zm-8.2-41.24c-6.45,0-13.18,5.33-20.2,16.83s-10.53,22.37-10.53,31.95q0,8.42,5.32,7.89c6-.58,13.18-7.54,21.5-20S1343,134.9,1343,128.15a8.3,8.3,0,0,0-2.37-5.66A8,8,0,0,0,1334.39,119.82Z"/>
        </g>
      </g>
    </g>
  </g>
</svg>
